<?xml version="1.0" encoding="utf-8"?>
<!-- Generator: Adobe Illustrator 17.1.0, SVG Export Plug-In . SVG Version: 6.00 Build 0)  -->
<!DOCTYPE svg PUBLIC "-//W3C//DTD SVG 1.1//EN" "http://www.w3.org/Graphics/SVG/1.1/DTD/svg11.dtd">
<svg version="1.1" id="Layer_1" xmlns="http://www.w3.org/2000/svg" xmlns:xlink="http://www.w3.org/1999/xlink" x="0px" y="0px"
	 viewBox="0 150 640 180" enable-background="new 0 150 640 180" xml:space="preserve">
<g id="Layer_1_1_" display="none">
	<g display="inline">
		<rect x="493.1" y="156.5" fill="#706F6F" width="120.7" height="30.5"/>
		<text transform="matrix(1.5002 0 0 1 496.5655 179.0581)" fill="#FFFFFF" font-family="'ArialMT'" font-size="22.2019">via sicilia</text>
		<g>
			<g>
				<path d="M30.2,199.7h21.9v7.9c3.2-3.3,6.3-5.6,9.5-7c3.2-1.4,7.1-2.1,11.6-2.1c4.9,0,8.7,0.8,11.6,2.3c2.8,1.5,5.2,3.8,7,6.8
					c3.7-3.5,7-5.9,10.1-7.2c3-1.3,6.8-1.9,11.2-1.9c6.6,0,11.7,1.7,15.4,5.2s5.5,8.8,5.5,16.2v34h-23.5V223c0-2.4-0.5-4.3-1.6-5.5
					c-1.6-1.9-3.5-2.8-5.9-2.8c-2.8,0-5,0.9-6.7,2.7s-2.5,4.6-2.5,8.5v27.9H70.3V224c0-2.4-0.2-4-0.5-4.8c-0.5-1.4-1.4-2.5-2.6-3.3
					s-2.7-1.2-4.3-1.2c-2.7,0-4.9,0.9-6.6,2.7c-1.7,1.8-2.6,4.8-2.6,8.9v27.6H30.2V199.7L30.2,199.7z"/>
				<path d="M138.3,226.9c0-8.3,3.1-15.1,9.4-20.4c6.3-5.4,14.8-8,25.5-8c12.2,0,21.5,3.1,27.8,9.4c5,5.1,7.5,11.3,7.5,18.7
					c0,8.3-3.1,15.2-9.4,20.5c-6.2,5.3-14.9,8-25.9,8c-9.8,0-17.8-2.2-23.8-6.6C142,242.9,138.3,235.8,138.3,226.9z M161.8,226.8
					c0,4.8,1.1,8.4,3.3,10.7s5,3.5,8.3,3.5c3.4,0,6.1-1.1,8.3-3.4c2.2-2.3,3.3-5.9,3.3-11c0-4.7-1.1-8.2-3.3-10.5s-4.9-3.4-8.1-3.4
					c-3.4,0-6.2,1.2-8.5,3.5C162.9,218.5,161.8,222.1,161.8,226.8z"/>
				<path d="M211.7,179.1h23.7V205c2.3-2.2,5-3.8,8-4.9c3-1.1,6.3-1.6,9.9-1.6c7.4,0,13.6,2.4,18.5,7.1c4.9,4.7,7.3,11.5,7.3,20.4
					c0,5.9-1.1,11.1-3.3,15.6c-2.2,4.5-5.3,7.9-9.2,10.1c-3.9,2.2-8.3,3.3-13.1,3.3c-4.1,0-7.9-0.8-11.3-2.3
					c-2.6-1.2-5.4-3.5-8.4-6.9v8h-21.9L211.7,179.1L211.7,179.1z M235.2,226.6c0,4.7,1,8,3,10.1s4.5,3.1,7.5,3.1
					c2.8,0,5.2-1,7.1-3.1c1.9-2.1,2.9-5.5,2.9-10.4c0-4.3-0.9-7.4-2.8-9.4c-1.9-2-4.1-3-6.8-3c-3.2,0-5.8,1-7.8,3.1
					C236.2,219.2,235.2,222.3,235.2,226.6z"/>
				<path d="M282.8,179.1h23.4v14.1h-23.4V179.1z M282.8,199.7h23.4v54.1h-23.4V199.7z"/>
				<path d="M314.6,179.1h23.5v74.7h-23.5V179.1z"/>
				<path d="M345.6,199.7h21.8v8.8c3.3-3.6,6.6-6.2,9.9-7.7s7.4-2.3,12.2-2.3c6.5,0,11.6,1.7,15.2,5.1c3.7,3.4,5.5,8.7,5.5,15.8
					v34.4h-23.5V224c0-3.4-0.7-5.8-2.1-7.2s-3.4-2.1-6-2.1c-2.8,0-5.1,1-6.9,2.9s-2.6,5.3-2.6,10.2v26h-23.4L345.6,199.7
					L345.6,199.7z"/>
				<path d="M415.4,226.9c0-8.3,3.1-15.1,9.4-20.4c6.3-5.4,14.8-8,25.5-8c12.2,0,21.5,3.1,27.8,9.4c5,5.1,7.5,11.3,7.5,18.7
					c0,8.3-3.1,15.2-9.4,20.5c-6.2,5.3-14.9,8-25.9,8c-9.8,0-17.8-2.2-23.8-6.6C419.1,242.9,415.4,235.8,415.4,226.9z M438.9,226.8
					c0,4.8,1.1,8.4,3.3,10.7s5,3.5,8.3,3.5c3.4,0,6.1-1.1,8.3-3.4c2.2-2.3,3.3-5.9,3.3-11c0-4.7-1.1-8.2-3.3-10.5
					c-2.2-2.3-4.9-3.4-8.1-3.4c-3.4,0-6.2,1.2-8.5,3.5C440,218.5,438.9,222.1,438.9,226.8z"/>
				<path d="M477.2,199.7h24.4l11.9,34.3l12.3-34.3h23.6l-26,54.1h-20.8L477.2,199.7z"/>
				<path d="M542.5,226.9c0-8.3,3.1-15.1,9.4-20.4c6.3-5.4,14.8-8,25.5-8c12.2,0,21.5,3.1,27.8,9.4c5,5.1,7.5,11.3,7.5,18.7
					c0,8.3-3.1,15.2-9.4,20.5c-6.2,5.3-14.9,8-25.9,8c-9.8,0-17.8-2.2-23.8-6.6C546.2,242.9,542.5,235.8,542.5,226.9z M566,226.8
					c0,4.8,1.1,8.4,3.3,10.7s5,3.5,8.3,3.5c3.4,0,6.1-1.1,8.3-3.4s3.3-5.9,3.3-11c0-4.7-1.1-8.2-3.3-10.5s-4.9-3.4-8.1-3.4
					c-3.4,0-6.2,1.2-8.5,3.5C567.1,218.5,566,222.1,566,226.8z"/>
			</g>
			<rect x="30" y="270.4" fill="#E4371E" width="581.9" height="10"/>
			<rect x="30" y="270.4" fill="#E30613" width="581.9" height="10"/>
			<g>
				<path d="M37.3,305.1l-6-0.7c0.7-1.6,1.8-2.8,3.5-3.6c1.6-0.8,4.1-1.2,7.3-1.2c2.9,0,5.1,0.2,6.6,0.7c1.4,0.5,2.5,1.1,3,1.8
					s0.9,2,0.9,3.9l-0.1,5.1c0,1.5,0.1,2.5,0.3,3.2s0.6,1.4,1.2,2.2h-6.5c-0.2-0.3-0.4-0.7-0.6-1.3c-0.1-0.3-0.2-0.4-0.2-0.5
					c-1.1,0.7-2.3,1.3-3.6,1.6c-1.3,0.4-2.7,0.6-4.1,0.6c-2.6,0-4.6-0.5-6.1-1.4s-2.2-2.1-2.2-3.5c0-0.9,0.3-1.8,1-2.5
					s1.6-1.3,2.8-1.7c1.2-0.4,3-0.7,5.3-1c3.1-0.4,5.2-0.7,6.4-1.1v-0.4c0-0.8-0.3-1.5-0.9-1.8c-0.6-0.4-1.8-0.5-3.5-0.5
					c-1.2,0-2.1,0.2-2.7,0.5C38.2,303.8,37.7,304.4,37.3,305.1z M46.1,308.7c-0.8,0.2-2.2,0.4-4,0.7c-1.8,0.3-3,0.5-3.6,0.8
					c-0.9,0.4-1.3,0.9-1.3,1.6c0,0.6,0.3,1.1,1,1.6s1.6,0.7,2.6,0.7c1.2,0,2.3-0.3,3.4-0.8c0.8-0.4,1.3-0.9,1.6-1.5
					c0.2-0.4,0.3-1.1,0.3-2.1V308.7L46.1,308.7z"/>
				<path d="M68.7,316.7h-6.6V300h6.1v2.4c1-1.1,2-1.9,2.8-2.2c0.8-0.4,1.8-0.5,2.9-0.5c1.5,0,3,0.3,4.3,0.8l-2,3.8
					c-1.1-0.5-2.1-0.7-3.1-0.7c-0.9,0-1.7,0.2-2.4,0.5c-0.6,0.3-1.1,1-1.5,1.8c-0.4,0.9-0.6,2.8-0.6,5.6v5.2H68.7z"/>
				<path d="M105.2,305l-6.5,0.8c-0.2-0.9-0.7-1.5-1.5-2c-0.8-0.4-1.8-0.7-3-0.7c-1.6,0-3,0.4-3.9,1.1c-1,0.8-1.5,2-1.5,3.8
					c0,2,0.5,3.4,1.5,4.2c1,0.8,2.3,1.2,4,1.2c1.3,0,2.3-0.2,3.1-0.7c0.8-0.5,1.4-1.3,1.7-2.5l6.5,0.7c-0.7,2-2,3.5-3.9,4.5
					s-4.5,1.5-7.7,1.5c-3.7,0-6.6-0.8-8.7-2.3c-2.2-1.5-3.3-3.7-3.3-6.4c0-2.7,1.1-4.9,3.3-6.4s5.1-2.3,8.8-2.3c3,0,5.5,0.4,7.3,1.3
					C103.2,301.9,104.4,303.2,105.2,305z"/>
				<path d="M117.1,293.7v8.5c2.1-1.7,4.7-2.5,7.6-2.5c1.5,0,2.9,0.2,4.1,0.6c1.2,0.4,2.1,0.9,2.8,1.4c0.6,0.6,1,1.2,1.3,1.9
					c0.2,0.7,0.3,1.8,0.3,3.3v9.8h-6.6v-8.8c0-1.7-0.1-2.9-0.4-3.3c-0.3-0.5-0.7-0.8-1.3-1.1c-0.6-0.3-1.4-0.4-2.4-0.4
					c-1.1,0-2.1,0.2-2.9,0.5c-0.9,0.4-1.5,0.9-1.9,1.6s-0.6,1.8-0.6,3.2v8.3h-6.6v-23H117.1L117.1,293.7z"/>
				<path d="M140.6,297.8v-4.1h6.6v4.1H140.6z M140.6,316.7V300h6.6v16.7H140.6z"/>
				<path d="M167.1,300.1v3.5h-4.5v6.7c0,1.4,0,2.2,0.1,2.4s0.3,0.4,0.6,0.6c0.3,0.1,0.7,0.2,1.1,0.2c0.6,0,1.5-0.1,2.7-0.4l0.6,3.4
					c-1.5,0.4-3.3,0.7-5.2,0.7c-1.2,0-2.3-0.1-3.2-0.4c-1-0.3-1.7-0.6-2.1-1c-0.4-0.4-0.8-1-0.9-1.7c-0.1-0.5-0.2-1.5-0.2-3.1v-7.3
					h-3v-3.5h3v-3.3l6.6-2.6v5.9L167.1,300.1L167.1,300.1z"/>
				<path d="M188.1,311.4l6.6,0.7c-0.8,1.6-2.2,2.8-4,3.7c-1.8,0.8-4.1,1.3-6.9,1.3c-4.3,0-7.6-0.9-9.6-2.8
					c-1.6-1.5-2.5-3.4-2.5-5.7c0-2.8,1.1-4.9,3.2-6.5c2.2-1.6,4.9-2.3,8.2-2.3c3.7,0,6.6,0.8,8.8,2.5c2.1,1.6,3.2,4.1,3.1,7.5h-16.5
					c0.1,1.3,0.6,2.3,1.6,3.1c1,0.7,2.3,1.1,3.8,1.1c1,0,1.9-0.2,2.6-0.6C187.2,312.9,187.7,312.3,188.1,311.4z M188.4,307
					c0-1.3-0.5-2.2-1.5-2.9c-0.9-0.7-2.1-1-3.4-1c-1.4,0-2.6,0.4-3.6,1c-0.9,0.7-1.4,1.7-1.4,2.9H188.4L188.4,307z"/>
				<path d="M212.1,300.1v3.5h-4.5v6.7c0,1.4,0,2.2,0.1,2.4s0.3,0.4,0.6,0.6c0.3,0.1,0.7,0.2,1.1,0.2c0.6,0,1.5-0.1,2.7-0.4l0.6,3.4
					c-1.5,0.4-3.3,0.7-5.2,0.7c-1.2,0-2.3-0.1-3.2-0.4c-1-0.3-1.7-0.6-2.1-1c-0.4-0.4-0.8-1-0.9-1.7c-0.1-0.5-0.2-1.5-0.2-3.1v-7.3
					h-3v-3.5h3v-3.3l6.6-2.6v5.9L212.1,300.1L212.1,300.1z"/>
				<path d="M230.1,300.1v3.5h-4.5v6.7c0,1.4,0,2.2,0.1,2.4s0.3,0.4,0.6,0.6c0.3,0.1,0.7,0.2,1.1,0.2c0.6,0,1.5-0.1,2.7-0.4l0.6,3.4
					c-1.5,0.4-3.3,0.7-5.2,0.7c-1.2,0-2.3-0.1-3.2-0.4c-1-0.3-1.7-0.6-2.1-1c-0.4-0.4-0.8-1-0.9-1.7c-0.1-0.5-0.2-1.5-0.2-3.1v-7.3
					h-3v-3.5h3v-3.3l6.6-2.6v5.9L230.1,300.1L230.1,300.1z"/>
				<path d="M253.1,316.7v-2.5c-0.9,0.9-2.1,1.6-3.6,2.1s-3,0.8-4.7,0.8s-3.2-0.2-4.5-0.7s-2.3-1.2-2.9-2.1
					c-0.6-0.9-0.9-2.1-0.9-3.7v-10.5h6.6v7.7c0,2.3,0.1,3.8,0.4,4.3c0.2,0.5,0.7,0.9,1.3,1.3c0.6,0.3,1.5,0.5,2.4,0.5
					c1.1,0,2.1-0.2,3-0.6s1.5-0.9,1.8-1.5s0.5-2.1,0.5-4.5v-7h6.6V317L253.1,316.7L253.1,316.7z"/>
				<path d="M273.1,316.7h-6.6V300h6.1v2.4c1-1.1,2-1.9,2.8-2.2c0.8-0.4,1.8-0.5,2.9-0.5c1.5,0,3,0.3,4.3,0.8l-2,3.8
					c-1.1-0.5-2.1-0.7-3.1-0.7c-0.9,0-1.7,0.2-2.4,0.5c-0.6,0.3-1.1,1-1.5,1.8c-0.4,0.9-0.6,2.8-0.6,5.6L273.1,316.7L273.1,316.7z"
					/>
				<path d="M292.7,305.1l-6-0.7c0.7-1.6,1.8-2.8,3.5-3.6c1.6-0.8,4.1-1.2,7.3-1.2c2.9,0,5.1,0.2,6.6,0.7s2.5,1.1,3,1.8
					c0.6,0.7,0.9,2,0.9,3.9l-0.1,5.1c0,1.5,0.1,2.5,0.3,3.2c0.2,0.7,0.6,1.4,1.2,2.2H303c-0.2-0.3-0.4-0.7-0.6-1.3
					c-0.1-0.3-0.2-0.4-0.2-0.5c-1.1,0.7-2.3,1.3-3.6,1.6c-1.3,0.4-2.7,0.6-4.1,0.6c-2.6,0-4.6-0.5-6.1-1.4s-2.2-2.1-2.2-3.5
					c0-0.9,0.3-1.8,1-2.5s1.6-1.3,2.8-1.7c1.2-0.4,3-0.7,5.3-1c3.1-0.4,5.2-0.7,6.4-1.1v-0.4c0-0.8-0.3-1.5-0.9-1.8
					c-0.6-0.4-1.8-0.5-3.6-0.5c-1.2,0-2.1,0.2-2.7,0.5C293.7,303.8,293.2,304.4,292.7,305.1z M301.6,308.7c-0.8,0.2-2.2,0.4-4,0.7
					c-1.8,0.3-3,0.5-3.6,0.8c-0.9,0.4-1.3,0.9-1.3,1.6c0,0.6,0.3,1.1,1,1.6s1.6,0.7,2.6,0.7c1.2,0,2.3-0.3,3.4-0.8
					c0.8-0.4,1.3-0.9,1.6-1.5c0.2-0.4,0.3-1.1,0.3-2.1V308.7L301.6,308.7z"/>
				<path d="M352.8,316.7h-6.1v-2.4c-1,1-2.2,1.7-3.6,2.1c-1.4,0.5-2.8,0.7-4.2,0.7c-2.9,0-5.3-0.8-7.4-2.3c-2-1.5-3.1-3.7-3.1-6.5
					s1-5,3-6.4c2-1.5,4.5-2.2,7.5-2.2c2.8,0,5.2,0.8,7.2,2.3v-8.3h6.6L352.8,316.7L352.8,316.7z M335.1,308c0,1.8,0.4,3.1,1.1,3.9
					c1.1,1.2,2.6,1.7,4.5,1.7c1.5,0,2.8-0.4,3.9-1.3s1.6-2.1,1.6-3.9c0-1.9-0.5-3.3-1.6-4.1c-1-0.8-2.4-1.3-4-1.3s-2.9,0.4-3.9,1.2
					C335.7,305.1,335.1,306.4,335.1,308z"/>
				<path d="M374.4,311.4l6.6,0.7c-0.8,1.6-2.2,2.8-4,3.7c-1.8,0.8-4.1,1.3-6.9,1.3c-4.3,0-7.6-0.9-9.6-2.8
					c-1.6-1.5-2.5-3.4-2.5-5.7c0-2.8,1.1-4.9,3.2-6.5c2.2-1.6,4.9-2.3,8.2-2.3c3.7,0,6.6,0.8,8.8,2.5c2.1,1.6,3.2,4.1,3.1,7.5h-16.6
					c0,1.3,0.6,2.3,1.6,3.1c1,0.7,2.3,1.1,3.8,1.1c1,0,1.9-0.2,2.6-0.6C373.5,312.9,374.1,312.3,374.4,311.4z M374.8,307
					c0-1.3-0.5-2.2-1.5-2.9s-2.1-1-3.4-1c-1.4,0-2.6,0.4-3.6,1c-0.9,0.7-1.4,1.7-1.4,2.9H374.8L374.8,307z"/>
				<path d="M389.4,317.8l7.5,0.6c0.1,0.6,0.4,1,0.9,1.2c0.6,0.3,1.6,0.5,3,0.5c1.7,0,3-0.2,3.9-0.5c0.6-0.2,1-0.6,1.3-1.1
					c0.2-0.4,0.3-1,0.3-2V314c-2,1.8-4.5,2.7-7.5,2.7c-3.4,0-6-0.9-8-2.8c-1.5-1.5-2.3-3.4-2.3-5.6c0-2.8,1-4.9,3-6.4
					s4.5-2.2,7.5-2.2c3.1,0,5.6,0.9,7.6,2.7v-2.3h6.2V315c0,2-0.2,3.4-0.7,4.4s-1.2,1.7-2,2.3c-0.9,0.6-2,1-3.5,1.3
					s-3.3,0.5-5.6,0.5c-4.2,0-7.2-0.5-9-1.5s-2.7-2.2-2.7-3.7C389.4,318.2,389.4,318,389.4,317.8z M395.3,308c0,1.8,0.5,3.1,1.5,3.9
					s2.3,1.2,3.8,1.2c1.6,0,3-0.4,4.1-1.3c1.1-0.8,1.7-2.1,1.7-3.7c0-1.7-0.5-3-1.6-3.8s-2.4-1.3-4-1.3s-2.9,0.4-3.9,1.2
					S395.3,306.4,395.3,308z"/>
				<path d="M420.1,316.7v-23h6.6v23H420.1z"/>
				<path d="M435.1,297.8v-4.1h6.6v4.1H435.1z M435.1,316.7V300h6.6v16.7H435.1z"/>
				<path d="M462.2,297.8v-4.1h6.6v4.1H462.2z M462.2,316.7V300h6.6v16.7H462.2z"/>
				<path d="M499.9,316.7h-6.6v-8.5c0-1.8-0.1-3-0.4-3.5s-0.7-0.9-1.4-1.2s-1.4-0.4-2.3-0.4c-1.1,0-2.2,0.2-3.1,0.6s-1.5,1-1.9,1.7
					c-0.3,0.7-0.5,2-0.5,3.8v7.5h-6.6V300h6.1v2.4c2.2-1.9,4.9-2.8,8.2-2.8c1.5,0,2.8,0.2,4,0.5c1.2,0.4,2.1,0.8,2.7,1.3
					s1.1,1.2,1.3,1.9c0.2,0.7,0.4,1.7,0.4,3L499.9,316.7L499.9,316.7z"/>
				<path d="M521.7,300.1v3.5h-4.5v6.7c0,1.4,0,2.2,0.1,2.4s0.3,0.4,0.6,0.6s0.7,0.2,1.1,0.2c0.6,0,1.5-0.1,2.7-0.4l0.6,3.4
					c-1.5,0.4-3.3,0.7-5.2,0.7c-1.2,0-2.3-0.1-3.2-0.4c-1-0.3-1.7-0.6-2.1-1s-0.8-1-0.9-1.7c-0.1-0.5-0.2-1.5-0.2-3.1v-7.3h-3v-3.5
					h3v-3.3l6.6-2.6v5.9L521.7,300.1L521.7,300.1z"/>
				<path d="M539.8,311.4l6.6,0.7c-0.8,1.6-2.2,2.8-4,3.7c-1.8,0.8-4.1,1.3-6.9,1.3c-4.3,0-7.6-0.9-9.6-2.8
					c-1.6-1.5-2.5-3.4-2.5-5.7c0-2.8,1.1-4.9,3.2-6.5c2.2-1.6,4.9-2.3,8.2-2.3c3.7,0,6.6,0.8,8.8,2.5c2.1,1.6,3.2,4.1,3.1,7.5h-16.5
					c0.1,1.3,0.6,2.3,1.6,3.1c1,0.7,2.3,1.1,3.8,1.1c1,0,1.9-0.2,2.6-0.6C538.9,312.9,539.4,312.3,539.8,311.4z M540.2,307
					c0-1.3-0.5-2.2-1.5-2.9c-0.9-0.7-2.1-1-3.4-1c-1.4,0-2.6,0.4-3.6,1c-0.9,0.7-1.4,1.7-1.4,2.9H540.2L540.2,307z"/>
				<path d="M561.7,316.7h-6.6V300h6.1v2.4c1.1-1.1,2-1.9,2.8-2.2c0.8-0.4,1.8-0.5,2.9-0.5c1.5,0,3,0.3,4.3,0.8l-2,3.8
					c-1.1-0.5-2.1-0.7-3.1-0.7c-0.9,0-1.7,0.2-2.3,0.5s-1.1,1-1.5,1.8c-0.4,0.9-0.6,2.8-0.6,5.6L561.7,316.7L561.7,316.7z"/>
				<path d="M596.1,316.7h-6.6v-8.5c0-1.8-0.1-3-0.4-3.5c-0.3-0.5-0.7-0.9-1.4-1.2c-0.6-0.3-1.4-0.4-2.3-0.4c-1.1,0-2.2,0.2-3.1,0.6
					c-0.9,0.4-1.5,1-1.9,1.7c-0.3,0.7-0.5,2-0.5,3.8v7.5h-6.6V300h6.1v2.4c2.2-1.9,4.9-2.8,8.2-2.8c1.5,0,2.8,0.2,4,0.5
					c1.2,0.4,2.1,0.8,2.7,1.3c0.6,0.5,1.1,1.2,1.3,1.9c0.2,0.7,0.4,1.7,0.4,3L596.1,316.7L596.1,316.7z"/>
				<path d="M606.5,297.8v-4.1h6.6v4.1H606.5z M606.5,316.7V300h6.6v16.7H606.5z"/>
			</g>
		</g>
	</g>
</g>
<g id="Layer_2" display="none">
	<g display="inline">
		<rect x="410.2" y="156.5" fill="#706F6F" width="195.1" height="30"/>
		<text transform="matrix(1.5002 0 0 1 412.1651 180.2476)" fill="#FFFFFF" font-family="'ArialMT'" font-size="21.839">via anastasio II</text>
		<g>
			<g>
				<path d="M35.3,201.7h21.5v7.8c3.1-3.2,6.2-5.6,9.4-6.9c3.2-1.4,7-2.1,11.4-2.1c4.8,0,8.6,0.8,11.4,2.3s5.1,3.7,6.9,6.7
					c3.6-3.5,6.9-5.8,9.9-7.1s6.7-1.9,11-1.9c6.4,0,11.5,1.7,15.1,5.1c3.6,3.4,5.4,8.7,5.4,15.9V255h-23.1v-30.3
					c0-2.4-0.5-4.2-1.6-5.4c-1.5-1.8-3.5-2.8-5.8-2.8c-2.7,0-4.9,0.9-6.5,2.6c-1.7,1.7-2.5,4.5-2.5,8.4V255h-23v-29.3
					c0-2.3-0.2-3.9-0.5-4.8c-0.5-1.3-1.3-2.4-2.6-3.2s-2.6-1.2-4.3-1.2c-2.7,0-4.8,0.9-6.5,2.7s-2.6,4.7-2.6,8.7V255h-23V201.7
					L35.3,201.7z"/>
				<path d="M141.7,228.5c0-8.1,3.1-14.8,9.3-20.1s14.6-7.9,25.1-7.9c12,0,21.1,3.1,27.3,9.3c4.9,5,7.4,11.1,7.4,18.4
					c0,8.2-3.1,14.9-9.2,20.1c-6.1,5.2-14.6,7.8-25.5,7.8c-9.7,0-17.5-2.2-23.4-6.5C145.3,244.3,141.7,237.2,141.7,228.5z
					 M164.8,228.4c0,4.7,1.1,8.3,3.3,10.5c2.2,2.3,4.9,3.4,8.2,3.4s6-1.1,8.2-3.4c2.1-2.2,3.2-5.8,3.2-10.8c0-4.6-1.1-8.1-3.2-10.3
					c-2.2-2.3-4.8-3.4-8-3.4c-3.4,0-6.1,1.1-8.3,3.4C165.9,220.3,164.8,223.7,164.8,228.4z"/>
				<path d="M213.9,181.4h23.3v25.5c2.3-2.1,4.9-3.7,7.8-4.8c2.9-1.1,6.2-1.6,9.7-1.6c7.3,0,13.4,2.3,18.2,7s7.2,11.4,7.2,20.1
					c0,5.8-1.1,10.9-3.3,15.4c-2.2,4.4-5.2,7.7-9.1,9.9s-8.2,3.3-12.9,3.3c-4,0-7.7-0.8-11.1-2.3c-2.5-1.2-5.3-3.5-8.3-6.8v7.9
					h-21.6L213.9,181.4L213.9,181.4z M237,228.2c0,4.6,1,7.9,2.9,10s4.4,3.1,7.4,3.1c2.8,0,5.1-1,6.9-3c1.9-2,2.8-5.4,2.8-10.2
					c0-4.2-0.9-7.3-2.7-9.3s-4.1-3-6.7-3c-3.1,0-5.7,1-7.7,3.1C238,220.9,237,224,237,228.2z"/>
				<path d="M283.8,181.4h23v13.9h-23V181.4z M283.8,201.7h23V255h-23V201.7z"/>
				<path d="M315.1,181.4h23.1V255h-23.1V181.4z"/>
				<path d="M345.6,201.7h21.5v8.7c3.2-3.5,6.5-6.1,9.7-7.6c3.3-1.5,7.3-2.3,12-2.3c6.4,0,11.4,1.7,15,5c3.6,3.4,5.4,8.5,5.4,15.6
					V255H386v-29.3c0-3.3-0.7-5.7-2.1-7.1c-1.4-1.4-3.4-2.1-5.9-2.1c-2.8,0-5.1,0.9-6.8,2.8c-1.7,1.9-2.6,5.2-2.6,10.1V255h-23
					V201.7L345.6,201.7z"/>
				<path d="M414.2,228.5c0-8.1,3.1-14.8,9.3-20.1c6.2-5.3,14.6-7.9,25.1-7.9c12,0,21.1,3.1,27.3,9.3c4.9,5,7.4,11.1,7.4,18.4
					c0,8.2-3.1,14.9-9.2,20.1c-6.1,5.2-14.6,7.8-25.5,7.8c-9.7,0-17.5-2.2-23.4-6.5C417.9,244.3,414.2,237.2,414.2,228.5z
					 M437.3,228.4c0,4.7,1.1,8.3,3.3,10.5c2.2,2.3,4.9,3.4,8.2,3.4c3.3,0,6-1.1,8.2-3.4c2.1-2.2,3.2-5.8,3.2-10.8
					c0-4.6-1.1-8.1-3.2-10.3c-2.2-2.3-4.8-3.4-8-3.4c-3.4,0-6.1,1.1-8.3,3.4C438.4,220.3,437.3,223.7,437.3,228.4z"/>
				<path d="M475,201.7h24l11.7,33.8l12.1-33.8H546L520.4,255H500L475,201.7z"/>
				<path d="M539.2,228.5c0-8.1,3.1-14.8,9.3-20.1s14.6-7.9,25.1-7.9c12,0,21.1,3.1,27.3,9.3c4.9,5,7.4,11.1,7.4,18.4
					c0,8.2-3.1,14.9-9.2,20.1c-6.1,5.2-14.6,7.8-25.5,7.8c-9.7,0-17.5-2.2-23.4-6.5C542.9,244.3,539.2,237.2,539.2,228.5z
					 M562.3,228.4c0,4.7,1.1,8.3,3.3,10.5c2.2,2.3,4.9,3.4,8.2,3.4s6-1.1,8.2-3.4c2.1-2.2,3.2-5.8,3.2-10.8c0-4.6-1.1-8.1-3.2-10.3
					c-2.2-2.3-4.8-3.4-8-3.4c-3.4,0-6.1,1.1-8.3,3.4C563.4,220.3,562.3,223.7,562.3,228.4z"/>
			</g>
			<rect x="35.1" y="271.3" fill="#E4371E" width="572.4" height="9.9"/>
			<rect x="35.1" y="271.3" fill="#E30613" width="572.4" height="9.9"/>
			<g>
				<path d="M42.3,305.4l-5.9-0.7c0.7-1.6,1.8-2.8,3.4-3.5c1.6-0.8,4-1.1,7.2-1.1c2.9,0,5.1,0.2,6.5,0.7s2.4,1,3,1.7s0.9,2,0.9,3.9
					l-0.1,5.1c0,1.4,0.1,2.5,0.3,3.2s0.6,1.4,1.2,2.2h-6.4c-0.2-0.3-0.4-0.7-0.6-1.3c-0.1-0.3-0.2-0.4-0.2-0.5
					c-1.1,0.7-2.3,1.3-3.6,1.6c-1.3,0.4-2.6,0.5-4,0.5c-2.5,0-4.5-0.5-6-1.4s-2.2-2.1-2.2-3.5c0-0.9,0.3-1.7,1-2.5
					c0.7-0.7,1.6-1.3,2.8-1.7c1.2-0.4,2.9-0.7,5.2-1c3-0.4,5.1-0.7,6.3-1.1v-0.4c0-0.8-0.3-1.4-0.9-1.8c-0.6-0.4-1.8-0.5-3.5-0.5
					c-1.2,0-2.1,0.2-2.7,0.5C43.2,304.1,42.7,304.7,42.3,305.4z M51,309c-0.8,0.2-2.2,0.4-4,0.7c-1.8,0.3-3,0.5-3.5,0.8
					c-0.8,0.4-1.3,0.9-1.3,1.5s0.3,1.1,1,1.6c0.7,0.4,1.5,0.7,2.6,0.7c1.2,0,2.3-0.3,3.4-0.8c0.8-0.4,1.3-0.9,1.5-1.4
					c0.2-0.4,0.3-1.1,0.3-2.1V309z"/>
				<path d="M73.2,316.8h-6.5v-16.4h6v2.3c1-1.1,2-1.8,2.8-2.2s1.8-0.5,2.8-0.5c1.5,0,2.9,0.3,4.3,0.8l-2,3.8
					c-1.1-0.5-2.1-0.7-3-0.7s-1.7,0.2-2.3,0.5c-0.6,0.3-1.1,0.9-1.5,1.8s-0.5,2.7-0.5,5.5L73.2,316.8L73.2,316.8z"/>
				<path d="M109.1,305.3l-6.4,0.8c-0.2-0.9-0.7-1.5-1.5-1.9s-1.8-0.6-3-0.6c-1.6,0-2.9,0.4-3.9,1.1s-1.4,2-1.4,3.7
					c0,1.9,0.5,3.3,1.5,4.1c1,0.8,2.3,1.2,3.9,1.2c1.2,0,2.2-0.2,3-0.7s1.3-1.3,1.7-2.4l6.4,0.7c-0.7,2-1.9,3.4-3.8,4.4
					s-4.4,1.5-7.6,1.5c-3.6,0-6.5-0.8-8.6-2.3s-3.2-3.6-3.2-6.3c0-2.7,1.1-4.8,3.2-6.3s5-2.3,8.7-2.3c3,0,5.4,0.4,7.1,1.3
					C107.1,302.2,108.4,303.5,109.1,305.3z"/>
				<path d="M120.8,294.2v8.3c2.1-1.6,4.6-2.5,7.5-2.5c1.5,0,2.8,0.2,4,0.6s2.1,0.8,2.7,1.4c0.6,0.6,1,1.2,1.2,1.9
					c0.2,0.7,0.3,1.8,0.3,3.3v9.6H130v-8.7c0-1.7-0.1-2.8-0.4-3.3c-0.2-0.5-0.7-0.8-1.3-1.1s-1.4-0.4-2.3-0.4c-1.1,0-2,0.2-2.9,0.5
					c-0.8,0.4-1.5,0.9-1.9,1.6s-0.6,1.7-0.6,3.1v8.2h-6.5v-22.6h6.7V294.2z"/>
				<path d="M143.9,298.2v-4h6.5v4H143.9z M143.9,316.8v-16.4h6.5v16.4H143.9L143.9,316.8z"/>
				<path d="M169.9,300.4v3.5h-4.4v6.6c0,1.3,0,2.1,0.1,2.3c0.1,0.2,0.3,0.4,0.6,0.5s0.7,0.2,1.1,0.2c0.6,0,1.5-0.1,2.6-0.4l0.6,3.4
					c-1.5,0.4-3.2,0.6-5.1,0.6c-1.2,0-2.2-0.1-3.2-0.4c-0.9-0.3-1.6-0.6-2.1-1c-0.4-0.4-0.7-1-0.9-1.7c-0.1-0.5-0.2-1.5-0.2-3.1
					v-7.1h-3v-3.5h3V297l6.5-2.5v5.8h4.4V300.4z"/>
				<path d="M190.6,311.6l6.5,0.7c-0.8,1.6-2.1,2.8-3.9,3.6c-1.8,0.8-4,1.2-6.7,1.2c-4.3,0-7.4-0.9-9.5-2.8
					c-1.6-1.5-2.4-3.4-2.4-5.6c0-2.7,1.1-4.8,3.2-6.4c2.1-1.5,4.8-2.3,8.1-2.3c3.7,0,6.5,0.8,8.6,2.4s3.1,4.1,3,7.4h-16.3
					c0,1.3,0.6,2.3,1.6,3s2.3,1.1,3.7,1.1c1,0,1.9-0.2,2.6-0.6C189.7,313,190.3,312.4,190.6,311.6z M191,307.2
					c0-1.3-0.5-2.2-1.5-2.9c-0.9-0.7-2.1-1-3.4-1c-1.4,0-2.6,0.3-3.5,1s-1.4,1.6-1.4,2.8h9.8V307.2z"/>
				<path d="M214.3,300.4v3.5h-4.4v6.6c0,1.3,0,2.1,0.1,2.3c0.1,0.2,0.3,0.4,0.6,0.5s0.7,0.2,1.1,0.2c0.6,0,1.5-0.1,2.6-0.4l0.6,3.4
					c-1.5,0.4-3.2,0.6-5.1,0.6c-1.2,0-2.2-0.1-3.2-0.4c-0.9-0.3-1.6-0.6-2.1-1c-0.4-0.4-0.7-1-0.9-1.7c-0.1-0.5-0.2-1.5-0.2-3.1
					v-7.1h-3v-3.5h3V297l6.5-2.5v5.8h4.4V300.4z"/>
				<path d="M232,300.4v3.5h-4.4v6.6c0,1.3,0,2.1,0.1,2.3c0.1,0.2,0.3,0.4,0.6,0.5s0.7,0.2,1.1,0.2c0.6,0,1.5-0.1,2.6-0.4l0.6,3.4
					c-1.5,0.4-3.2,0.6-5.1,0.6c-1.2,0-2.2-0.1-3.2-0.4c-0.9-0.3-1.6-0.6-2.1-1c-0.4-0.4-0.7-1-0.9-1.7c-0.1-0.5-0.2-1.5-0.2-3.1
					v-7.1h-3v-3.5h3V297l6.5-2.5v5.8h4.4V300.4z"/>
				<path d="M254.6,316.8v-2.5c-0.9,0.9-2.1,1.6-3.5,2.1c-1.5,0.5-3,0.8-4.6,0.8c-1.7,0-3.1-0.2-4.4-0.7c-1.3-0.5-2.3-1.2-2.8-2
					c-0.6-0.9-0.9-2.1-0.9-3.6v-10.4h6.5v7.5c0,2.3,0.1,3.7,0.4,4.2c0.2,0.5,0.7,0.9,1.3,1.2c0.6,0.3,1.4,0.5,2.4,0.5
					c1.1,0,2.1-0.2,3-0.6s1.5-0.9,1.8-1.5s0.5-2.1,0.5-4.4v-6.9h6.5v16.4L254.6,316.8L254.6,316.8z"/>
				<path d="M274.2,316.8h-6.5v-16.4h6v2.3c1-1.1,2-1.8,2.8-2.2c0.8-0.4,1.8-0.5,2.8-0.5c1.5,0,2.9,0.3,4.3,0.8l-2,3.8
					c-1.1-0.5-2.1-0.7-3-0.7s-1.7,0.2-2.3,0.5c-0.6,0.3-1.1,0.9-1.5,1.8s-0.5,2.7-0.5,5.5v5.1H274.2z"/>
				<path d="M293.6,305.4l-5.9-0.7c0.7-1.6,1.8-2.8,3.4-3.5c1.6-0.8,4-1.1,7.2-1.1c2.9,0,5.1,0.2,6.5,0.7s2.4,1,3,1.7s0.9,2,0.9,3.9
					l-0.1,5.1c0,1.4,0.1,2.5,0.3,3.2c0.2,0.7,0.6,1.4,1.2,2.2h-6.4c-0.2-0.3-0.4-0.7-0.6-1.3c-0.1-0.3-0.2-0.4-0.2-0.5
					c-1.1,0.7-2.3,1.3-3.6,1.6c-1.3,0.4-2.6,0.5-4,0.5c-2.5,0-4.5-0.5-6-1.4s-2.2-2.1-2.2-3.5c0-0.9,0.3-1.7,1-2.5
					c0.7-0.7,1.6-1.3,2.8-1.7c1.2-0.4,2.9-0.7,5.2-1c3-0.4,5.1-0.7,6.3-1.1v-0.4c0-0.8-0.3-1.4-0.9-1.8s-1.8-0.5-3.5-0.5
					c-1.2,0-2.1,0.2-2.7,0.5C294.5,304.1,294,304.7,293.6,305.4z M302.3,309c-0.8,0.2-2.1,0.4-4,0.7c-1.8,0.3-3,0.5-3.5,0.8
					c-0.8,0.4-1.3,0.9-1.3,1.5s0.3,1.1,1,1.6c0.7,0.4,1.5,0.7,2.6,0.7c1.2,0,2.3-0.3,3.4-0.8c0.8-0.4,1.3-0.9,1.6-1.4
					c0.2-0.4,0.3-1.1,0.3-2.1L302.3,309L302.3,309z"/>
				<path d="M352.6,316.8h-6v-2.4c-1,0.9-2.2,1.6-3.6,2.1s-2.7,0.7-4.1,0.7c-2.8,0-5.2-0.8-7.2-2.3s-3-3.6-3-6.3
					c0-2.8,1-4.9,2.9-6.3c2-1.4,4.4-2.2,7.4-2.2c2.7,0,5.1,0.8,7.1,2.3v-8.1h6.5L352.6,316.8L352.6,316.8z M335.3,308.3
					c0,1.7,0.4,3,1.1,3.8c1,1.1,2.5,1.7,4.4,1.7c1.5,0,2.8-0.4,3.8-1.3c1-0.8,1.6-2.1,1.6-3.8c0-1.9-0.5-3.2-1.5-4.1
					c-1-0.8-2.3-1.2-3.9-1.2c-1.5,0-2.8,0.4-3.9,1.2C335.8,305.4,335.3,306.7,335.3,308.3z"/>
				<path d="M373.9,311.6l6.5,0.7c-0.8,1.6-2.1,2.8-3.9,3.6c-1.8,0.8-4,1.2-6.7,1.2c-4.3,0-7.4-0.9-9.5-2.8
					c-1.6-1.5-2.4-3.4-2.4-5.6c0-2.7,1.1-4.8,3.2-6.4c2.1-1.5,4.8-2.3,8.1-2.3c3.7,0,6.5,0.8,8.6,2.4s3.1,4.1,3,7.4h-16.3
					c0,1.3,0.6,2.3,1.6,3s2.3,1.1,3.7,1.1c1,0,1.9-0.2,2.6-0.6C373,313,373.6,312.4,373.9,311.6z M374.3,307.2
					c0-1.3-0.5-2.2-1.5-2.9c-0.9-0.7-2.1-1-3.4-1c-1.4,0-2.6,0.3-3.5,1s-1.4,1.6-1.4,2.8h9.8V307.2z"/>
				<path d="M388.6,317.9l7.4,0.6c0.1,0.6,0.4,1,0.9,1.2c0.6,0.3,1.6,0.5,2.9,0.5c1.7,0,3-0.2,3.8-0.5c0.6-0.2,1-0.6,1.3-1.1
					c0.2-0.4,0.3-1,0.3-2v-2.4c-1.9,1.8-4.4,2.7-7.3,2.7c-3.3,0-5.9-0.9-7.8-2.8c-1.5-1.5-2.3-3.3-2.3-5.5c0-2.7,1-4.8,3-6.3
					s4.4-2.2,7.4-2.2s5.5,0.9,7.5,2.7v-2.3h6.1v14.7c0,1.9-0.2,3.4-0.7,4.3c-0.5,1-1.1,1.7-2,2.3c-0.9,0.5-2,1-3.5,1.3
					c-1.4,0.3-3.3,0.5-5.5,0.5c-4.2,0-7.1-0.5-8.9-1.4c-1.7-1-2.6-2.2-2.6-3.6C388.6,318.3,388.6,318.1,388.6,317.9z M394.5,308.3
					c0,1.7,0.5,3,1.5,3.8s2.3,1.2,3.7,1.2c1.6,0,2.9-0.4,4-1.2c1.1-0.8,1.6-2.1,1.6-3.7c0-1.7-0.5-3-1.6-3.8c-1-0.8-2.4-1.2-4-1.2
					s-2.8,0.4-3.8,1.2C395,305.4,394.5,306.6,394.5,308.3z"/>
				<path d="M418.8,316.8v-22.6h6.5v22.6H418.8z"/>
				<path d="M433.6,298.2v-4h6.5v4H433.6z M433.6,316.8v-16.4h6.5v16.4H433.6L433.6,316.8z"/>
				<path d="M460.2,298.2v-4h6.5v4H460.2z M460.2,316.8v-16.4h6.5v16.4H460.2L460.2,316.8z"/>
				<path d="M497.3,316.8h-6.5v-8.4c0-1.8-0.1-2.9-0.4-3.4s-0.7-0.9-1.4-1.2c-0.6-0.3-1.4-0.4-2.3-0.4c-1.1,0-2.1,0.2-3,0.6
					s-1.5,1-1.8,1.6c-0.3,0.7-0.5,1.9-0.5,3.8v7.4H475v-16.4h6v2.4c2.1-1.9,4.8-2.8,8.1-2.8c1.4,0,2.7,0.2,3.9,0.5
					c1.2,0.3,2.1,0.8,2.7,1.3s1,1.1,1.3,1.8c0.2,0.7,0.4,1.7,0.4,2.9L497.3,316.8L497.3,316.8z"/>
				<path d="M518.8,300.4v3.5h-4.4v6.6c0,1.3,0,2.1,0.1,2.3c0.1,0.2,0.3,0.4,0.6,0.5s0.7,0.2,1.1,0.2c0.6,0,1.5-0.1,2.6-0.4l0.6,3.4
					c-1.5,0.4-3.2,0.6-5.1,0.6c-1.2,0-2.2-0.1-3.2-0.4c-0.9-0.3-1.6-0.6-2.1-1c-0.4-0.4-0.7-1-0.9-1.7c-0.1-0.5-0.2-1.5-0.2-3.1
					v-7.1h-3v-3.5h3V297l6.5-2.5v5.8h4.4V300.4z"/>
				<path d="M536.6,311.6l6.5,0.7c-0.8,1.6-2.1,2.8-3.9,3.6c-1.8,0.8-4,1.2-6.7,1.2c-4.3,0-7.4-0.9-9.5-2.8
					c-1.6-1.5-2.4-3.4-2.4-5.6c0-2.7,1.1-4.8,3.2-6.4c2.1-1.5,4.8-2.3,8.1-2.3c3.7,0,6.5,0.8,8.6,2.4s3.1,4.1,3,7.4h-16.3
					c0,1.3,0.6,2.3,1.6,3s2.3,1.1,3.7,1.1c1,0,1.9-0.2,2.6-0.6C535.7,313,536.2,312.4,536.6,311.6z M536.9,307.2
					c0-1.3-0.5-2.2-1.5-2.9c-0.9-0.7-2.1-1-3.4-1c-1.4,0-2.6,0.3-3.5,1s-1.4,1.6-1.4,2.8h9.8V307.2z"/>
				<path d="M558.1,316.8h-6.5v-16.4h6v2.3c1-1.1,2-1.8,2.8-2.2c0.8-0.4,1.8-0.5,2.8-0.5c1.5,0,2.9,0.3,4.3,0.8l-2,3.8
					c-1.1-0.5-2.1-0.7-3.1-0.7c-0.9,0-1.7,0.2-2.3,0.5s-1.1,0.9-1.5,1.8s-0.5,2.7-0.5,5.5V316.8L558.1,316.8z"/>
				<path d="M592,316.8h-6.5v-8.4c0-1.8-0.1-2.9-0.4-3.4c-0.3-0.5-0.7-0.9-1.4-1.2c-0.6-0.3-1.4-0.4-2.3-0.4c-1.1,0-2.1,0.2-3,0.6
					s-1.5,1-1.8,1.6c-0.3,0.7-0.5,1.9-0.5,3.8v7.4h-6.5v-16.4h6v2.4c2.1-1.9,4.8-2.8,8.1-2.8c1.4,0,2.7,0.2,3.9,0.5s2.1,0.8,2.7,1.3
					c0.6,0.5,1,1.1,1.3,1.8c0.2,0.7,0.4,1.7,0.4,2.9V316.8z"/>
				<path d="M602.2,298.2v-4h6.5v4H602.2z M602.2,316.8v-16.4h6.5v16.4H602.2L602.2,316.8z"/>
			</g>
		</g>
	</g>
</g>
<g id="Layer_3" display="none">
	<g display="inline">
		<polygon fill="#D3072A" points="228.2,312.1 415.2,312.1 415.2,323.5 228.2,323.5 		"/>
		<path fill="#FFFFFF" d="M234.3,320.4c0.3,0,0.6,0,0.8-0.1c0.4-0.1,0.6-0.4,0.9-0.7c0.2-0.3,0.3-0.6,0.4-1c0-0.3,0.1-0.5,0.1-0.7
			c0-0.8-0.2-1.5-0.5-2s-0.9-0.7-1.6-0.7h-1.6v5.2L234.3,320.4L234.3,320.4z M231.7,314.4h2.7c0.9,0,1.7,0.3,2.2,1
			c0.5,0.6,0.7,1.4,0.7,2.3c0,0.7-0.1,1.4-0.4,1.9c-0.5,1-1.3,1.5-2.5,1.5h-2.7V314.4L231.7,314.4z"/>
		<path fill="none" stroke="#FFFFFF" stroke-width="0.2835" stroke-miterlimit="3.8637" d="M234.3,320.4c0.3,0,0.6,0,0.8-0.1
			c0.4-0.1,0.6-0.4,0.9-0.7c0.2-0.3,0.3-0.6,0.4-1c0-0.3,0.1-0.5,0.1-0.7c0-0.8-0.2-1.5-0.5-2s-0.9-0.7-1.6-0.7h-1.6v5.2
			L234.3,320.4L234.3,320.4z M231.7,314.4h2.7c0.9,0,1.7,0.3,2.2,1c0.5,0.6,0.7,1.4,0.7,2.3c0,0.7-0.1,1.4-0.4,1.9
			c-0.5,1-1.3,1.5-2.5,1.5h-2.7V314.4L231.7,314.4z"/>
		<polygon fill="#FFFFFF" stroke="#FFFFFF" stroke-width="0.2835" stroke-miterlimit="3.8637" points="241.4,314.4 246.4,314.4 
			246.4,315.2 242.3,315.2 242.3,317.3 246.1,317.3 246.1,318 242.3,318 242.3,320.3 246.4,320.3 246.4,321.1 241.4,321.1 		"/>
		<path fill="#FFFFFF" stroke="#FFFFFF" stroke-width="0.2835" stroke-miterlimit="3.8637" d="M251.1,319c0,0.4,0.1,0.7,0.3,0.9
			c0.3,0.4,0.8,0.7,1.6,0.7c0.3,0,0.7-0.1,0.9-0.1c0.5-0.2,0.8-0.5,0.8-1c0-0.4-0.1-0.6-0.3-0.8c-0.2-0.2-0.6-0.3-1.1-0.4l-0.9-0.2
			c-0.6-0.1-1-0.3-1.3-0.4c-0.4-0.3-0.6-0.7-0.6-1.3c0-0.6,0.2-1.1,0.6-1.5c0.4-0.4,1-0.6,1.8-0.6c0.7,0,1.3,0.2,1.8,0.5
			s0.7,0.9,0.7,1.6h-0.9c0-0.4-0.1-0.6-0.3-0.8c-0.3-0.4-0.8-0.5-1.4-0.5c-0.5,0-0.9,0.1-1.2,0.3c-0.2,0.2-0.4,0.5-0.4,0.8
			s0.1,0.6,0.4,0.7c0.2,0.1,0.6,0.2,1.2,0.4l0.9,0.2c0.5,0.1,0.8,0.2,1.1,0.4c0.4,0.3,0.6,0.8,0.6,1.4c0,0.7-0.3,1.3-0.8,1.6
			c-0.5,0.3-1.2,0.5-1.9,0.5c-0.8,0-1.5-0.2-2-0.6s-0.7-1-0.7-1.7h1.1V319z"/>
		<polygon fill="#FFFFFF" stroke="#FFFFFF" stroke-width="0.2835" stroke-miterlimit="3.8637" points="259.8,314.4 260.8,314.4 
			260.8,321.1 259.8,321.1 		"/>
		<path fill="#FFFFFF" stroke="#FFFFFF" stroke-width="0.2835" stroke-miterlimit="3.8637" d="M269.7,314.6c0.7,0.4,1.1,1,1.2,1.9
			H270c-0.1-0.5-0.3-0.9-0.7-1.1c-0.3-0.2-0.8-0.3-1.3-0.3c-0.6,0-1.2,0.2-1.6,0.7s-0.6,1.2-0.6,2.1c0,0.8,0.2,1.5,0.5,2
			c0.4,0.5,0.9,0.8,1.7,0.8c0.6,0,1.1-0.2,1.5-0.5c0.4-0.4,0.6-0.9,0.6-1.7H268v-0.8h3v3.6h-0.6l-0.2-0.9c-0.3,0.3-0.6,0.6-0.8,0.7
			c-0.4,0.2-0.9,0.3-1.5,0.3c-0.8,0-1.5-0.3-2.1-0.8c-0.6-0.7-0.9-1.5-0.9-2.7c0-1.1,0.3-2,0.9-2.7c0.6-0.6,1.3-1,2.3-1
			C268.7,314.2,269.2,314.3,269.7,314.6L269.7,314.6z"/>
		<polygon fill="#FFFFFF" stroke="#FFFFFF" stroke-width="0.2835" stroke-miterlimit="3.8637" points="275.3,314.4 276.4,314.4 
			279.8,319.9 279.8,314.4 280.7,314.4 280.7,321.1 279.6,321.1 276.2,315.7 276.2,321.1 275.3,321.1 		"/>
		<path fill="#FFFFFF" stroke="#FFFFFF" stroke-width="0.2835" stroke-miterlimit="3.8637" d="M295.3,314.9c0.5,0.5,0.7,1,0.8,1.5
			h-0.9c-0.1-0.4-0.3-0.8-0.6-1c-0.3-0.3-0.7-0.4-1.3-0.4c-0.7,0-1.2,0.2-1.6,0.7s-0.6,1.2-0.6,2.1c0,0.8,0.2,1.4,0.6,1.9
			s0.9,0.7,1.7,0.7c0.7,0,1.2-0.3,1.5-0.8c0.2-0.3,0.3-0.6,0.4-1.1h0.9c-0.1,0.7-0.3,1.3-0.8,1.8c-0.5,0.6-1.3,0.9-2.2,0.9
			c-0.8,0-1.4-0.2-2-0.7c-0.7-0.6-1.1-1.6-1.1-2.9c0-1,0.3-1.8,0.8-2.5c0.6-0.7,1.4-1,2.4-1C294.2,314.2,294.8,314.4,295.3,314.9
			L295.3,314.9z"/>
		<path fill="#FFFFFF" d="M305.7,315.4c0.4,0.6,0.7,1.4,0.7,2.3c0,1-0.3,1.8-0.8,2.5c-0.6,0.8-1.5,1.2-2.6,1.2c-1,0-1.9-0.3-2.5-1
			c-0.5-0.7-0.8-1.5-0.8-2.5c0-0.9,0.2-1.7,0.7-2.3c0.6-0.8,1.4-1.3,2.6-1.3C304.2,314.2,305.1,314.6,305.7,315.4L305.7,315.4z
			 M304.9,319.7c0.4-0.6,0.5-1.2,0.5-2s-0.2-1.4-0.6-1.9s-1-0.7-1.7-0.7s-1.3,0.2-1.7,0.7c-0.4,0.5-0.7,1.2-0.7,2.1
			c0,0.7,0.2,1.4,0.6,1.9s1,0.8,1.8,0.8C303.9,320.5,304.5,320.2,304.9,319.7L304.9,319.7z"/>
		<path fill="none" stroke="#FFFFFF" stroke-width="0.2835" stroke-miterlimit="3.8637" d="M305.7,315.4c0.4,0.6,0.7,1.4,0.7,2.3
			c0,1-0.3,1.8-0.8,2.5c-0.6,0.8-1.5,1.2-2.6,1.2c-1,0-1.9-0.3-2.5-1c-0.5-0.7-0.8-1.5-0.8-2.5c0-0.9,0.2-1.7,0.7-2.3
			c0.6-0.8,1.4-1.3,2.6-1.3C304.2,314.2,305.1,314.6,305.7,315.4L305.7,315.4z M304.9,319.7c0.4-0.6,0.5-1.2,0.5-2s-0.2-1.4-0.6-1.9
			s-1-0.7-1.7-0.7s-1.3,0.2-1.7,0.7c-0.4,0.5-0.7,1.2-0.7,2.1c0,0.7,0.2,1.4,0.6,1.9s1,0.8,1.8,0.8
			C303.9,320.5,304.5,320.2,304.9,319.7L304.9,319.7z"/>
		<polygon fill="#FFFFFF" stroke="#FFFFFF" stroke-width="0.2835" stroke-miterlimit="3.8637" points="310.3,314.4 311.4,314.4 
			314.8,319.9 314.8,314.4 315.7,314.4 315.7,321.1 314.6,321.1 311.2,315.7 311.2,321.1 310.3,321.1 		"/>
		<polygon fill="#FFFFFF" stroke="#FFFFFF" stroke-width="0.2835" stroke-miterlimit="3.8637" points="324.9,314.4 324.9,315.2 
			322.6,315.2 322.6,321.1 321.7,321.1 321.7,315.2 319.4,315.2 319.4,314.4 		"/>
		<polygon fill="#FFFFFF" stroke="#FFFFFF" stroke-width="0.2835" stroke-miterlimit="3.8637" points="328.7,314.4 333.6,314.4 
			333.6,315.2 329.6,315.2 329.6,317.3 333.3,317.3 333.3,318 329.6,318 329.6,320.3 333.7,320.3 333.7,321.1 328.7,321.1 		"/>
		<path fill="#FFFFFF" stroke="#FFFFFF" stroke-width="0.2835" stroke-miterlimit="3.8637" d="M337.7,314.4h1.3l1.9,5.7l1.9-5.7h1.3
			v6.8h-0.9v-4c0-0.1,0-0.4,0-0.7c0-0.3,0-0.7,0-1l-1.9,5.7h-0.9l-1.9-5.7v0.2c0,0.2,0,0.4,0,0.8c0,0.3,0,0.6,0,0.7v4h-0.9
			L337.7,314.4L337.7,314.4z"/>
		<path fill="#FFFFFF" d="M348.5,314.4h3c0.6,0,1.1,0.2,1.5,0.5s0.6,0.8,0.6,1.4c0,0.5-0.2,1-0.5,1.4s-0.8,0.6-1.5,0.6h-2.1v2.9
			h-0.9L348.5,314.4L348.5,314.4z M352.1,315.3c-0.2-0.1-0.5-0.1-0.8-0.1h-1.8v2.3h1.8c0.4,0,0.7-0.1,1-0.3c0.3-0.2,0.4-0.5,0.4-0.9
			C352.7,315.8,352.5,315.5,352.1,315.3L352.1,315.3z"/>
		<path fill="none" stroke="#FFFFFF" stroke-width="0.2835" stroke-miterlimit="3.8637" d="M348.5,314.4h3c0.6,0,1.1,0.2,1.5,0.5
			s0.6,0.8,0.6,1.4c0,0.5-0.2,1-0.5,1.4s-0.8,0.6-1.5,0.6h-2.1v2.9h-0.9L348.5,314.4L348.5,314.4z M352.1,315.3
			c-0.2-0.1-0.5-0.1-0.8-0.1h-1.8v2.3h1.8c0.4,0,0.7-0.1,1-0.3c0.3-0.2,0.4-0.5,0.4-0.9C352.7,315.8,352.5,315.5,352.1,315.3
			L352.1,315.3z"/>
		<path fill="#FFFFFF" d="M363.2,315.4c0.4,0.6,0.7,1.4,0.7,2.3c0,1-0.3,1.8-0.8,2.5c-0.6,0.8-1.5,1.2-2.6,1.2c-1,0-1.9-0.3-2.5-1
			c-0.5-0.7-0.8-1.5-0.8-2.5c0-0.9,0.2-1.7,0.7-2.3c0.6-0.8,1.4-1.3,2.6-1.3C361.7,314.2,362.6,314.6,363.2,315.4L363.2,315.4z
			 M362.3,319.7c0.4-0.6,0.5-1.2,0.5-2s-0.2-1.4-0.6-1.9s-1-0.7-1.7-0.7s-1.3,0.2-1.7,0.7c-0.4,0.5-0.7,1.2-0.7,2.1
			c0,0.7,0.2,1.4,0.6,1.9s1,0.8,1.8,0.8C361.4,320.5,362,320.2,362.3,319.7L362.3,319.7z"/>
		<path fill="none" stroke="#FFFFFF" stroke-width="0.2835" stroke-miterlimit="3.8637" d="M363.2,315.4c0.4,0.6,0.7,1.4,0.7,2.3
			c0,1-0.3,1.8-0.8,2.5c-0.6,0.8-1.5,1.2-2.6,1.2c-1,0-1.9-0.3-2.5-1c-0.5-0.7-0.8-1.5-0.8-2.5c0-0.9,0.2-1.7,0.7-2.3
			c0.6-0.8,1.4-1.3,2.6-1.3C361.7,314.2,362.6,314.6,363.2,315.4L363.2,315.4z M362.3,319.7c0.4-0.6,0.5-1.2,0.5-2s-0.2-1.4-0.6-1.9
			s-1-0.7-1.7-0.7s-1.3,0.2-1.7,0.7c-0.4,0.5-0.7,1.2-0.7,2.1c0,0.7,0.2,1.4,0.6,1.9s1,0.8,1.8,0.8
			C361.4,320.5,362,320.2,362.3,319.7L362.3,319.7z"/>
		<path fill="#FFFFFF" d="M370.9,317.5c0.4,0,0.8-0.1,1-0.3s0.4-0.5,0.4-0.9c0-0.5-0.2-0.8-0.5-1c-0.2-0.1-0.4-0.1-0.7-0.1h-2.2v2.3
			H370.9L370.9,317.5z M367.9,314.4h3.1c0.5,0,0.9,0.1,1.3,0.2c0.6,0.3,1,0.8,1,1.6c0,0.4-0.1,0.7-0.3,1c-0.2,0.3-0.4,0.5-0.7,0.6
			c0.3,0.1,0.5,0.2,0.6,0.4c0.1,0.2,0.2,0.5,0.2,0.9v0.9c0,0.3,0,0.5,0.1,0.6c0.1,0.2,0.2,0.4,0.3,0.4v0.2h-1.1
			c0-0.1-0.1-0.1-0.1-0.2s0-0.3,0-0.5l-0.1-1.1c0-0.4-0.2-0.7-0.5-0.9c-0.2-0.1-0.4-0.1-0.8-0.1h-2.1v2.9h-0.9V314.4L367.9,314.4z"
			/>
		<path fill="none" stroke="#FFFFFF" stroke-width="0.2835" stroke-miterlimit="3.8637" d="M370.9,317.5c0.4,0,0.8-0.1,1-0.3
			s0.4-0.5,0.4-0.9c0-0.5-0.2-0.8-0.5-1c-0.2-0.1-0.4-0.1-0.7-0.1h-2.2v2.3H370.9L370.9,317.5z M367.9,314.4h3.1
			c0.5,0,0.9,0.1,1.3,0.2c0.6,0.3,1,0.8,1,1.6c0,0.4-0.1,0.7-0.3,1c-0.2,0.3-0.4,0.5-0.7,0.6c0.3,0.1,0.5,0.2,0.6,0.4
			c0.1,0.2,0.2,0.5,0.2,0.9v0.9c0,0.3,0,0.5,0.1,0.6c0.1,0.2,0.2,0.4,0.3,0.4v0.2h-1.1c0-0.1-0.1-0.1-0.1-0.2s0-0.3,0-0.5l-0.1-1.1
			c0-0.4-0.2-0.7-0.5-0.9c-0.2-0.1-0.4-0.1-0.8-0.1h-2.1v2.9h-0.9V314.4L367.9,314.4z"/>
		<path fill="#FFFFFF" d="M380.9,318.4l-1-3l-1.1,3H380.9L380.9,318.4z M379.4,314.4h1l2.5,6.8h-1l-0.7-2h-2.7l-0.7,2h-0.9
			L379.4,314.4L379.4,314.4z"/>
		<path fill="none" stroke="#FFFFFF" stroke-width="0.2835" stroke-miterlimit="3.8637" d="M380.9,318.4l-1-3l-1.1,3H380.9
			L380.9,318.4z M379.4,314.4h1l2.5,6.8h-1l-0.7-2h-2.7l-0.7,2h-0.9L379.4,314.4L379.4,314.4z"/>
		<polygon fill="#FFFFFF" stroke="#FFFFFF" stroke-width="0.2835" stroke-miterlimit="3.8637" points="386.6,314.4 387.7,314.4 
			391.1,319.9 391.1,314.4 392,314.4 392,321.1 390.9,321.1 387.5,315.7 387.5,321.1 386.6,321.1 		"/>
		<polygon fill="#FFFFFF" stroke="#FFFFFF" stroke-width="0.2835" stroke-miterlimit="3.8637" points="396.3,314.4 401.3,314.4 
			401.3,315.2 397.2,315.2 397.2,317.3 401,317.3 401,318 397.2,318 397.2,320.3 401.3,320.3 401.3,321.1 396.3,321.1 		"/>
		<path d="M274.1,162.6c3.5,0,6.2,0.8,8.1,2.5s2.9,3.9,2.9,6.7c0,1.8-0.4,3.3-1.2,4.7c-0.8,1.4-2.1,2.4-3.8,3.3
			c-1.7,0.8-3.7,1.2-5.9,1.2c-1.8,0-3.6-0.3-5.3-0.9c-1.7-0.6-3.1-1.6-4.1-3s-1.6-3.1-1.6-5.2c0-2.8,1-5.1,2.9-6.7
			C267.9,163.4,270.6,162.6,274.1,162.6L274.1,162.6z M274.2,176.3c0.6,0,1.1-0.1,1.6-0.4c0.5-0.3,0.9-0.8,1.2-1.5
			c0.3-0.7,0.4-1.6,0.4-2.7c0-1.6-0.4-2.8-1.1-3.6c-0.5-0.6-1.2-0.9-2.2-0.9s-1.7,0.4-2.4,1.1c-0.6,0.7-0.9,1.9-0.9,3.6
			c0,1.1,0.1,1.9,0.4,2.6c0.3,0.6,0.7,1.1,1.2,1.4C273,176.1,273.6,176.3,274.2,176.3L274.2,176.3z"/>
		<path d="M286.5,180.4v-23.9h7.7v8.3c0.7-0.7,1.5-1.3,2.4-1.7s1.9-0.6,3-0.6c2.4,0,4.4,0.8,6.1,2.5s2.5,3.9,2.5,6.8
			c0,1.8-0.3,3.4-1,4.8c-0.7,1.4-1.7,2.4-3.1,3.2c-1.3,0.7-2.8,1.1-4.5,1.1c-1.5,0-2.7-0.3-3.7-0.8s-1.8-1.3-2.4-2.2v2.4
			L286.5,180.4L286.5,180.4z M297.2,167.9c-0.9,0-1.7,0.3-2.3,1c-0.6,0.6-0.9,1.6-0.9,2.9c0,0.9,0.1,1.6,0.4,2.3
			c0.3,0.6,0.7,1.1,1.2,1.4c0.5,0.3,1,0.4,1.6,0.4c0.9,0,1.7-0.3,2.3-1c0.6-0.7,0.9-1.7,0.9-3c0-1.4-0.3-2.4-0.9-3
			C298.9,168.2,298.2,167.9,297.2,167.9L297.2,167.9z"/>
		<path d="M309.9,156.6h7.7v4.9h-7.7V156.6L309.9,156.6z M309.9,180.4v-17.3h7.7v17.3H309.9L309.9,180.4z"/>
		<polygon points="320,180.4 320,156.5 327.6,156.5 327.6,180.4 		"/>
		<path d="M329.5,180.4v-17.3h7.1v2.7c0.9-1.1,1.9-1.9,2.9-2.4s2.3-0.7,3.6-0.7c2.4,0,4.2,0.6,5.5,1.8s2,2.9,2,5.2v10.8h-7.7V171
			c0-1-0.2-1.7-0.7-2.2s-1.2-0.7-2-0.7c-0.9,0-1.6,0.3-2.1,0.8s-0.8,1.4-0.8,2.5v9.1h-7.8V180.4z"/>
		<path d="M363.3,162.6c3.5,0,6.2,0.8,8.1,2.5s2.9,3.9,2.9,6.7c0,1.8-0.4,3.3-1.2,4.7c-0.8,1.4-2.1,2.4-3.8,3.3
			c-1.7,0.8-3.7,1.2-5.9,1.2c-1.8,0-3.6-0.3-5.3-0.9c-1.7-0.6-3.1-1.6-4.1-3s-1.6-3.1-1.6-5.2c0-2.8,1-5.1,2.9-6.7
			C357.2,163.5,359.8,162.6,363.3,162.6L363.3,162.6z M363.4,176.3c0.6,0,1.1-0.1,1.6-0.4c0.5-0.3,0.9-0.8,1.2-1.5
			c0.3-0.7,0.4-1.6,0.4-2.7c0-1.6-0.4-2.8-1.1-3.6c-0.5-0.6-1.2-0.9-2.2-0.9s-1.7,0.4-2.4,1.1c-0.6,0.7-0.9,1.9-0.9,3.6
			c0,1.1,0.1,1.9,0.4,2.6c0.3,0.6,0.7,1.1,1.2,1.4C362.3,176.1,362.8,176.3,363.4,176.3L363.4,176.3z"/>
		<polygon points="373.1,163.1 380.8,163.1 384.2,174 387.5,163.1 394.9,163.1 388.4,180.4 379.9,180.4 		"/>
		<path d="M404.6,162.6c3.5,0,6.2,0.8,8.1,2.5s2.9,3.9,2.9,6.7c0,1.8-0.4,3.3-1.2,4.7c-0.8,1.4-2.1,2.4-3.8,3.3
			c-1.7,0.8-3.7,1.2-5.9,1.2c-1.8,0-3.6-0.3-5.3-0.9c-1.7-0.6-3.1-1.6-4.1-3s-1.6-3.1-1.6-5.2c0-2.8,1-5.1,2.9-6.7
			C398.5,163.5,401.2,162.6,404.6,162.6L404.6,162.6z M404.7,176.3c0.6,0,1.1-0.1,1.6-0.4c0.5-0.3,0.9-0.8,1.2-1.5
			c0.3-0.7,0.4-1.6,0.4-2.7c0-1.6-0.4-2.8-1.1-3.6c-0.5-0.6-1.2-0.9-2.2-0.9s-1.7,0.4-2.4,1.1c-0.6,0.7-0.9,1.9-0.9,3.6
			c0,1.1,0.1,1.9,0.4,2.6c0.3,0.6,0.7,1.1,1.2,1.4C403.6,176.2,404.1,176.3,404.7,176.3L404.7,176.3z"/>
		<path d="M235.3,163.1v2.5c0.8-1,1.8-1.8,2.8-2.3c1.1-0.5,2.3-0.8,3.6-0.8c1.5,0,2.7,0.3,3.6,0.8c0.9,0.5,1.7,1.3,2.4,2.4
			c1-1.1,2.1-1.9,3.1-2.4s2.3-0.7,3.8-0.7c1.3,0,2.4,0.2,3.3,0.5s1.7,0.8,2.3,1.4c0.4,0.4,0.7,0.9,1,1.6c0.4,1.1,0.6,2.3,0.6,3.6
			v10.7h-7.6v-9.6c0-1-0.2-1.7-0.7-2.2s-1.1-0.7-1.8-0.7c-0.9,0-1.7,0.3-2.3,1c-0.4,0.5-0.6,1.3-0.6,2.4v9.1h-7.6v-9.3
			c0-1.1-0.2-1.8-0.5-2.3c-0.5-0.6-1.1-0.9-2-0.9s-1.6,0.3-2.1,0.8s-0.8,1.4-0.8,2.6v9h-7.5V163L235.3,163.1L235.3,163.1z"/>
		<path fill="#482C1F" d="M332.8,209.7c1.1,1.3,2.2,2.7,3.2,4.3c2.7,4.2,4.8,9,6.2,14.4c1.4,5.4,2.1,11.2,2.1,17.3
			s-0.6,11.8-1.8,16.9c-1.2,5.1-3,9.8-5.4,14c-2.8,4.9-5.9,8.5-9.4,11s-7.3,3.7-11.4,3.8c-4.9,0-9.3-1.6-13.2-4.9
			c-1.2-1.4-2.4-3.1-3.6-4.9c-5.3-8.7-8-19.5-8-32.4c0-6.1,0.7-11.8,2.2-17.2s3.6-10.3,6.4-14.7c2.6-4.1,5.5-7.3,8.8-9.4
			c3.3-2.2,6.8-3.3,10.6-3.3c3.8,0,7.4,1,10.6,3.1C331,208.2,331.9,208.9,332.8,209.7L332.8,209.7z M329.5,216.5
			c0.9,1.1,1.8,2.4,2.7,3.8c4.4,7.1,6.6,15.5,6.6,25.3c0,10.5-2.1,19.4-6.4,26.6s-9.5,10.8-15.8,10.9c-3.8,0-7.2-1.2-10.3-3.7
			c3.8,4.6,8.3,6.9,13.4,6.8c6.2,0,11.5-3.7,15.8-10.9c4.3-7.2,6.4-16.1,6.4-26.6c0-9.8-2.2-18.3-6.6-25.3
			C333.5,220.5,331.6,218.2,329.5,216.5L329.5,216.5z M303.2,276.2c3.1,2.5,6.5,3.8,10.3,3.7c6.2,0,11.5-3.7,15.8-10.9
			c4.3-7.2,6.4-16.1,6.4-26.6c0-9.8-2.2-18.3-6.6-25.3c-0.9-1.4-1.8-2.6-2.7-3.8c-3.1-2.5-6.4-3.7-10.2-3.7
			c-6.1,0-11.4,3.7-15.7,10.9c-4.3,7.2-6.5,15.9-6.5,26c0,10.3,2.2,18.9,6.5,26C301.5,274,302.3,275.2,303.2,276.2L303.2,276.2z
			 M313.2,198.3c3.8,0,7.4,1,10.6,3.1c2,1.3,4,3,5.8,5.1c-0.9-0.7-1.8-1.4-2.7-2c-3.3-2.1-6.8-3.2-10.6-3.1c-3.8,0-7.3,1.1-10.6,3.3
			c-3.2,2.1-6.2,5.3-8.8,9.4c-2.8,4.4-4.9,9.3-6.4,14.7s-2.2,11.2-2.2,17.2c0,12.9,2.7,23.7,8,32.4c1.1,1.8,2.3,3.5,3.6,4.9
			c-2.4-2-4.6-4.7-6.6-8c-5.3-8.7-8-19.5-8-32.4c0-6.1,0.7-11.8,2.2-17.2s3.6-10.3,6.4-14.7c2.6-4.1,5.5-7.3,8.8-9.4
			C305.9,199.5,309.5,198.4,313.2,198.3L313.2,198.3z"/>
		<polygon fill="#482C1F" points="335.8,199.9 342.9,199.9 343.5,203 340.7,203 357,286.3 352.8,286.3 		"/>
		<polygon fill="#482C1F" points="357.7,263.6 367.6,199.7 372.5,199.7 373,202.8 370.7,202.8 360.8,266.7 362.8,276.9 373.8,205.9 
			376.9,205.9 385.7,258.6 397.2,199.5 402.5,199.4 401.9,202.5 400.3,202.6 388.1,266.1 389.7,276.7 403.4,205.7 406.7,205.6 
			390.4,289.2 386.8,289.2 376,221.8 374.9,230.2 383.7,286.1 381.1,286.1 372.4,229.1 362.6,289.4 360.1,289.4 343.8,206.1 
			346.6,206.1 		"/>
		<polygon fill="#482C1F" points="239,200.6 246.7,200.5 247.9,203.7 243.3,203.7 243.3,287.1 239,287.1 		"/>
		<polygon fill="#482C1F" points="275.5,268.3 275.5,200.3 281.4,200.3 281.4,203.4 279.4,203.4 279.4,272.6 282.4,281.3 
			282.4,206.5 286.3,206.5 286.3,289.9 279.9,289.9 251.6,217 251.6,221.8 276.8,286.8 274.9,286.8 248.5,218.7 248.5,290.2 
			246.4,290.2 246.4,206.8 251.8,206.8 		"/>
	</g>
</g>
<g id="Layer_4">
	<g>
		<path fill="#FFFFFF" d="M173.5,277.95c0,1.9-2,3.4-4.4,3.4s-4.4-1.5-4.4-3.4v-57.6c0-7.2-5.7-13-12.8-13s-12.8,5.8-12.8,13v50
			c0,6.1-4.9,11-11,11c-6.1,0-11-4.9-11-11v-65.9c0-2.4,2-4.4,4.4-4.4s4.4,2,4.4,4.4v65.9c0,1.2,1,2.2,2.2,2.2s2.2-1,2.2-2.2v-50.3
			c0-11.9,9.7-21.6,21.6-21.6c11.9,0,21.6,9.7,21.6,21.6L173.5,277.95L173.5,277.95z"/>
		<path fill="#FFFFFF" d="M638,277.95c0,1.9-2,3.4-4.4,3.4s-4.4-1.5-4.4-3.4v-57.6c0-7.2-5.7-13-12.8-13s-12.8,5.8-12.8,13v50
			c0,6.1-4.9,11-11,11s-11-4.9-11-11v-65.9c0-2.4,2-4.4,4.4-4.4s4.4,2,4.4,4.4v65.9c0,1.2,1,2.2,2.2,2.2s2.2-1,2.2-2.2v-50.3
			c0-11.9,9.7-21.6,21.6-21.6s21.6,9.7,21.6,21.6V277.95L638,277.95z"/>
		<path fill="#FFFFFF" d="M399.5,156.55L399.5,156.55c2.4,0,4.4,2,4.4,4.4v116c0,2.4-2,4.4-4.4,4.4l0,0c-2.4,0-4.4-2-4.4-4.4v-116
			C395.1,158.55,397,156.55,399.5,156.55L399.5,156.55z"/>
		<path fill="#FFFFFF" d="M562.8,200.25L562.8,200.25c2.4,0,4.4,2,4.4,4.4v72.3c0,2.4-2,4.4-4.4,4.4l0,0c-2.4,0-4.4-2-4.4-4.4v-72.3
			C558.4,202.25,560.4,200.25,562.8,200.25L562.8,200.25z"/>
		<path fill="#FFFFFF" d="M562.8,183.75L562.8,183.75c2.4,0,4.4,2,4.4,4.4v2.6c0,2.4-2,4.4-4.4,4.4l0,0c-2.4,0-4.4-2-4.4-4.4v-2.6
			C558.4,185.75,560.4,183.75,562.8,183.75L562.8,183.75z"/>
		<path fill="#FFFFFF" d="M10.8,240.45c0,18.3,14.8,33.1,33.1,33.1s33.1-14.8,33.1-33.1s-14.8-33.1-33.1-33.1
			C25.7,207.35,10.8,222.25,10.8,240.45L10.8,240.45z M76.9,214.65v-3.6c0-6.1,4.9-11,11-11s11,4.9,11,11v65.9c0,2.4-2,4.4-4.4,4.4
			s-4.4-2-4.4-4.4v-65.9c0-1.2-1-2.2-2.2-2.2s-2.2,1-2.2,2.2l0.1,29.4c0,23.1-18.8,41.9-41.9,41.9S2,263.65,2,240.45
			s18.8-41.9,41.9-41.9C57.3,198.55,69.3,204.85,76.9,214.65L76.9,214.65z"/>
		<path fill="#FFFFFF" d="M207.6,266.95c5.5,4.1,12.4,6.6,19.8,6.6c7.4,0,14.3-2.4,19.8-6.6h12.6c-7.7,9.4-19.4,15.4-32.5,15.4
			s-24.8-6-32.5-15.4H207.6L207.6,266.95z M282.5,266.95v8.5c0,26.5-21.5,48-48,48c-13.9,0-26.4-5.9-35.2-15.4
			c-0.8-0.9-1.2-1.9-1.2-3.1c0-2.4,2-4.4,4.4-4.4c1.5,0,2.7,0.7,3.5,1.8c7.1,7.5,17.3,12.2,28.5,12.2c21.7,0,39.3-17.5,39.3-39.2
			v-8.5h8.7V266.95z"/>
		<path fill="#FFFFFF" d="M195,266.95c-5.9-7.2-9.4-16.4-9.4-26.5c0-23.1,18.8-41.9,41.9-41.9c13.4,0,25.4,6.3,33,16.1v-3.7
			c0-6.1,4.9-11,11-11s11,4.9,11,11v56h-8.7l-0.1-56c0-1.2-1-2.2-2.2-2.2s-2.2,1-2.2,2.2l0.1,29.5c0,10.1-3.5,19.3-9.4,26.5h-12.6
			c8.1-6,13.3-15.7,13.3-26.5c0-18.3-14.8-33.1-33.1-33.1s-33.1,14.8-33.1,33.1c0,10.8,5.2,20.5,13.3,26.5H195L195,266.95z"/>
		<path fill="#FFFFFF" d="M336.4,198.55c-23.1,0-41.9,18.8-41.9,41.9s18.8,41.9,41.9,41.9s41.9-18.8,41.9-41.9
			S359.5,198.55,336.4,198.55z M336.4,273.55c-18.3,0-33.1-14.8-33.1-33.1s14.8-33.1,33.1-33.1c18.3,0,33.1,14.8,33.1,33.1
			S354.6,273.55,336.4,273.55z"/>
		<path fill="#FFFFFF" d="M457.8,198.55c-23.1,0-41.9,18.8-41.9,41.9s18.8,41.9,41.9,41.9s41.9-18.8,41.9-41.9
			C499.7,217.35,480.9,198.55,457.8,198.55z M457.8,273.55c-18.3,0-33.1-14.8-33.1-33.1s14.8-33.1,33.1-33.1
			c18.3,0,33.1,14.8,33.1,33.1S476,273.55,457.8,273.55z"/>
	</g>
</g>
</svg>
