<?xml version="1.0" encoding="utf-8"?>
<!-- Generator: Adobe Illustrator 17.1.0, SVG Export Plug-In . SVG Version: 6.00 Build 0)  -->
<!DOCTYPE svg PUBLIC "-//W3C//DTD SVG 1.1//EN" "http://www.w3.org/Graphics/SVG/1.1/DTD/svg11.dtd">
<svg version="1.1" id="Layer_1" xmlns="http://www.w3.org/2000/svg" xmlns:xlink="http://www.w3.org/1999/xlink" x="0px" y="0px"
	 viewBox="0 150 640 180" enable-background="new 0 150 640 180" xml:space="preserve">
<g>
	<g>
		<g>
			<path fill="#FFFFFF" d="M0.446,185.853h23.96v8.655c3.453-3.608,6.933-6.181,10.45-7.704c3.517-1.527,7.756-2.289,12.724-2.289
				c5.346,0,9.579,0.838,12.693,2.514c3.115,1.673,5.662,4.166,7.64,7.479c4.029-3.87,7.701-6.507,11.02-7.902
				c3.316-1.396,7.409-2.094,12.279-2.094c7.18,0,12.782,1.89,16.814,5.666c4.029,3.782,6.046,9.688,6.046,17.731v37.242H88.348
				v-33.78c0-2.679-0.588-4.669-1.762-5.976c-1.716-2.045-3.852-3.069-6.409-3.069c-3.017,0-5.446,0.969-7.29,2.904
				s-2.764,5.047-2.764,9.326v30.598H44.396V212.49c0-2.606-0.171-4.376-0.509-5.306c-0.549-1.487-1.496-2.688-2.846-3.599
				c-1.35-0.911-2.932-1.368-4.745-1.368c-2.953,0-5.379,0.984-7.278,2.959s-2.85,5.211-2.85,9.716v30.266H0.446V185.853z"/>
			<path fill="#FFFFFF" d="M118.879,215.671c0-9.048,3.447-16.5,10.344-22.363c6.894-5.867,16.204-8.795,27.931-8.795
				c13.41,0,23.54,3.444,30.394,10.328c5.507,5.547,8.262,12.379,8.262,20.492c0,9.122-3.416,16.594-10.246,22.418
				c-6.833,5.824-16.277,8.734-28.343,8.734c-10.764,0-19.465-2.42-26.106-7.256C122.957,233.24,118.879,225.387,118.879,215.671z
				 M144.607,215.616c0,5.288,1.207,9.192,3.624,11.724c2.417,2.533,5.455,3.797,9.112,3.797c3.7,0,6.735-1.246,9.112-3.739
				c2.374-2.493,3.563-6.494,3.563-12.005c0-5.138-1.198-8.963-3.593-11.474c-2.395-2.511-5.361-3.77-8.89-3.77
				c-3.742,0-6.833,1.277-9.271,3.822C145.827,206.522,144.607,210.401,144.607,215.616z"/>
			<path fill="#FFFFFF" d="M199.254,163.292h25.917v28.367c2.563-2.383,5.474-4.169,8.731-5.361
				c3.255-1.192,6.863-1.786,10.813-1.786c8.152,0,14.9,2.597,20.242,7.79c5.336,5.19,8.009,12.648,8.009,22.363
				c0,6.476-1.219,12.181-3.657,17.112c-2.441,4.934-5.812,8.619-10.121,11.06c-4.309,2.435-9.088,3.654-14.342,3.654
				c-4.501,0-8.619-0.853-12.361-2.566c-2.816-1.341-5.885-3.852-9.207-7.54v8.768h-24.021v-81.862L199.254,163.292L199.254,163.292
				z M224.979,215.336c0,5.099,1.079,8.795,3.246,11.084c2.164,2.289,4.907,3.435,8.229,3.435c3.069,0,5.647-1.128,7.723-3.377
				c2.085-2.252,3.124-6.04,3.124-11.362c0-4.69-1.021-8.134-3.057-10.331c-2.042-2.197-4.51-3.294-7.409-3.294
				c-3.49,0-6.339,1.143-8.546,3.432C226.086,207.211,224.979,210.685,224.979,215.336z"/>
			<path fill="#FFFFFF" d="M277.167,163.292h25.664v15.47h-25.664V163.292z M277.167,185.853h25.664v59.301h-25.664V185.853z"/>
			<path fill="#FFFFFF" d="M311.974,163.292h25.725v81.859h-25.725V163.292z"/>
			<path fill="#FFFFFF" d="M345.961,185.853h23.896v9.661c3.572-3.944,7.189-6.766,10.846-8.46s8.113-2.542,13.367-2.542
				c7.104,0,12.663,1.871,16.68,5.614c4.014,3.739,6.022,9.521,6.022,17.335v37.693H390.98v-32.61c0-3.721-0.777-6.354-2.331-7.902
				c-1.554-1.542-3.739-2.316-6.559-2.316c-3.112,0-5.635,1.042-7.567,3.127c-1.935,2.088-2.901,5.827-2.901,11.224v28.477h-25.664
				v-59.301H345.961z"/>
			<path fill="#FFFFFF" d="M422.355,215.671c0-9.048,3.447-16.5,10.341-22.363c6.894-5.867,16.204-8.795,27.931-8.795
				c13.41,0,23.543,3.444,30.394,10.328c5.507,5.547,8.262,12.379,8.262,20.492c0,9.122-3.416,16.594-10.246,22.418
				c-6.833,5.824-16.277,8.734-28.346,8.734c-10.761,0-19.462-2.42-26.103-7.256C426.43,233.24,422.355,225.387,422.355,215.671z
				 M448.083,215.616c0,5.288,1.207,9.192,3.624,11.724c2.417,2.533,5.455,3.797,9.112,3.797c3.7,0,6.735-1.246,9.109-3.739
				c2.374-2.493,3.566-6.494,3.566-12.005c0-5.138-1.198-8.963-3.593-11.474c-2.395-2.511-5.361-3.77-8.89-3.77
				c-3.742,0-6.833,1.277-9.271,3.822C449.299,206.522,448.083,210.401,448.083,215.616z"/>
			<path fill="#FFFFFF" d="M490,185.853h26.7l12.992,37.58l13.48-37.58h25.899l-28.462,59.301h-22.76L490,185.853z"/>
			<path fill="#FFFFFF" d="M561.546,215.671c0-9.048,3.447-16.5,10.341-22.363c6.894-5.867,16.204-8.795,27.931-8.795
				c13.409,0,23.543,3.444,30.394,10.328c5.507,5.547,8.262,12.379,8.262,20.492c0,9.122-3.416,16.594-10.246,22.418
				c-6.833,5.824-16.277,8.734-28.346,8.734c-10.761,0-19.462-2.42-26.103-7.256C565.621,233.24,561.546,225.387,561.546,215.671z
				 M587.271,215.616c0,5.288,1.207,9.192,3.624,11.724c2.417,2.533,5.455,3.797,9.112,3.797c3.7,0,6.735-1.246,9.109-3.739
				c2.374-2.493,3.566-6.494,3.566-12.005c0-5.138-1.198-8.963-3.593-11.474c-2.395-2.511-5.361-3.77-8.89-3.77
				c-3.742,0-6.833,1.277-9.271,3.822C588.49,206.522,587.271,210.401,587.271,215.616z"/>
		</g>
		<rect x="0.22" y="263.354" fill="#FFFFFF" width="637.33" height="10.996"/>
		<rect x="0.22" y="263.354" fill="#FFFFFF" width="637.33" height="10.996"/>
		<g>
			<path fill="#FFFFFF" d="M24.701,298.615l-6.492,1.172c-0.219-1.297-0.715-2.273-1.488-2.93s-1.777-0.984-3.012-0.984
				c-1.641,0-2.949,0.566-3.926,1.699s-1.465,3.027-1.465,5.684c0,2.953,0.496,5.039,1.488,6.258s2.324,1.828,3.996,1.828
				c1.25,0,2.273-0.355,3.07-1.066s1.359-1.934,1.688-3.668l6.469,1.102c-0.672,2.969-1.961,5.211-3.867,6.727
				s-4.461,2.273-7.664,2.273c-3.641,0-6.543-1.148-8.707-3.445s-3.246-5.477-3.246-9.539c0-4.109,1.086-7.309,3.258-9.598
				s5.109-3.434,8.812-3.434c3.031,0,5.441,0.652,7.23,1.957S23.92,295.943,24.701,298.615z"/>
			<path fill="#FFFFFF" d="M71.612,308.224l6.562,1.102c-0.844,2.406-2.176,4.238-3.996,5.496s-4.098,1.887-6.832,1.887
				c-4.328,0-7.531-1.414-9.609-4.242c-1.641-2.266-2.461-5.125-2.461-8.578c0-4.125,1.078-7.355,3.234-9.691
				s4.883-3.504,8.18-3.504c3.703,0,6.625,1.223,8.766,3.668s3.164,6.191,3.07,11.238h-16.5c0.047,1.953,0.578,3.473,1.594,4.559
				s2.281,1.629,3.797,1.629c1.031,0,1.898-0.281,2.602-0.844S71.252,309.474,71.612,308.224z M71.987,301.568
				c-0.047-1.906-0.539-3.355-1.477-4.348s-2.078-1.488-3.422-1.488c-1.438,0-2.625,0.523-3.562,1.57
				c-0.937,1.047-1.398,2.469-1.383,4.266H71.987z"/>
			<path fill="#FFFFFF" d="M134.037,316.146h-6.586v-12.703c0-2.688-0.141-4.426-0.422-5.215s-0.738-1.402-1.371-1.84
				s-1.395-0.656-2.285-0.656c-1.141,0-2.164,0.312-3.07,0.938s-1.527,1.453-1.863,2.484s-0.504,2.938-0.504,5.719v11.273h-6.586
				v-24.891h6.117v3.656c2.172-2.812,4.906-4.219,8.203-4.219c1.453,0,2.781,0.262,3.984,0.785s2.113,1.191,2.73,2.004
				s1.047,1.734,1.289,2.766s0.363,2.508,0.363,4.43L134.037,316.146L134.037,316.146z"/>
			<path fill="#FFFFFF" d="M179.636,291.254v5.25h-4.5v10.031c0,2.031,0.043,3.215,0.129,3.551s0.281,0.613,0.586,0.832
				s0.676,0.328,1.113,0.328c0.609,0,1.492-0.211,2.648-0.633l0.562,5.109c-1.531,0.656-3.266,0.984-5.203,0.984
				c-1.188,0-2.258-0.199-3.211-0.598s-1.652-0.914-2.098-1.547s-0.754-1.488-0.926-2.566c-0.141-0.766-0.211-2.312-0.211-4.641
				v-10.852h-3.023v-5.25h3.023v-4.945l6.609-3.844v8.789h4.502V291.254z"/>
			<path fill="#FFFFFF" d="M218.014,316.146h-6.586v-24.891h6.117v3.539c1.047-1.672,1.988-2.773,2.824-3.305
				s1.785-0.797,2.848-0.797c1.5,0,2.945,0.414,4.336,1.242l-2.039,5.742c-1.109-0.719-2.141-1.078-3.094-1.078
				c-0.922,0-1.703,0.254-2.344,0.762s-1.145,1.426-1.512,2.754s-0.551,4.109-0.551,8.344L218.014,316.146L218.014,316.146z"/>
			<path fill="#FFFFFF" d="M256.37,303.349c0-2.188,0.539-4.305,1.617-6.352s2.605-3.609,4.582-4.688s4.184-1.617,6.621-1.617
				c3.766,0,6.852,1.223,9.258,3.668s3.609,5.535,3.609,9.27c0,3.766-1.215,6.887-3.645,9.363s-5.488,3.715-9.176,3.715
				c-2.281,0-4.457-0.516-6.527-1.547s-3.645-2.543-4.723-4.535S256.37,306.207,256.37,303.349z M263.12,303.701
				c0,2.469,0.586,4.359,1.758,5.672s2.617,1.969,4.336,1.969s3.16-0.656,4.324-1.969s1.746-3.219,1.746-5.719
				c0-2.438-0.582-4.312-1.746-5.625s-2.605-1.969-4.324-1.969s-3.164,0.656-4.336,1.969S263.12,301.232,263.12,303.701z"/>
			<path fill="#FFFFFF" d="M377.261,298.615l-6.492,1.172c-0.219-1.297-0.715-2.273-1.488-2.93s-1.777-0.984-3.012-0.984
				c-1.641,0-2.949,0.566-3.926,1.699s-1.465,3.027-1.465,5.684c0,2.953,0.496,5.039,1.488,6.258s2.324,1.828,3.996,1.828
				c1.25,0,2.273-0.355,3.07-1.066s1.359-1.934,1.688-3.668l6.469,1.102c-0.672,2.969-1.961,5.211-3.867,6.727
				s-4.461,2.273-7.664,2.273c-3.641,0-6.543-1.148-8.707-3.445s-3.246-5.477-3.246-9.539c0-4.109,1.086-7.309,3.258-9.598
				s5.109-3.434,8.812-3.434c3.031,0,5.441,0.652,7.23,1.957S376.48,295.943,377.261,298.615z"/>
			<path fill="#FFFFFF" d="M426.14,316.146v-3.727c-0.906,1.328-2.098,2.375-3.574,3.141s-3.035,1.148-4.676,1.148
				c-1.672,0-3.172-0.367-4.5-1.102s-2.289-1.766-2.883-3.094s-0.891-3.164-0.891-5.508v-15.75h6.586v11.438
				c0,3.5,0.121,5.645,0.363,6.434s0.684,1.414,1.324,1.875s1.453,0.691,2.438,0.691c1.125,0,2.133-0.309,3.023-0.926
				s1.5-1.383,1.828-2.297s0.492-3.152,0.492-6.715v-10.5h6.586v24.891L426.14,316.146L426.14,316.146z"/>
			<path fill="#FFFFFF" d="M488.284,298.615l-6.492,1.172c-0.219-1.297-0.715-2.273-1.488-2.93s-1.777-0.984-3.012-0.984
				c-1.641,0-2.949,0.566-3.926,1.699s-1.465,3.027-1.465,5.684c0,2.953,0.496,5.039,1.488,6.258s2.324,1.828,3.996,1.828
				c1.25,0,2.273-0.355,3.07-1.066s1.359-1.934,1.688-3.668l6.469,1.102c-0.672,2.969-1.961,5.211-3.867,6.727
				s-4.461,2.273-7.664,2.273c-3.641,0-6.543-1.148-8.707-3.445s-3.246-5.477-3.246-9.539c0-4.109,1.086-7.309,3.258-9.598
				s5.109-3.434,8.812-3.434c3.031,0,5.441,0.652,7.23,1.957S487.503,295.943,488.284,298.615z"/>
			<path fill="#FFFFFF" d="M520.781,287.879v-6.094h6.586v6.094H520.781z M520.781,316.146v-24.891h6.586v24.891H520.781z"/>
			<path fill="#FFFFFF" d="M584.261,316.146h-6.586v-12.703c0-2.688-0.141-4.426-0.422-5.215s-0.738-1.402-1.371-1.84
				s-1.395-0.656-2.285-0.656c-1.141,0-2.164,0.312-3.07,0.938s-1.527,1.453-1.863,2.484s-0.504,2.938-0.504,5.719v11.273h-6.586
				v-24.891h6.117v3.656c2.172-2.812,4.906-4.219,8.203-4.219c1.453,0,2.781,0.262,3.984,0.785s2.113,1.191,2.73,2.004
				s1.047,1.734,1.289,2.766s0.363,2.508,0.363,4.43L584.261,316.146L584.261,316.146z"/>
			<path fill="#FFFFFF" d="M632.86,308.224l6.562,1.102c-0.844,2.406-2.176,4.238-3.996,5.496s-4.098,1.887-6.832,1.887
				c-4.328,0-7.531-1.414-9.609-4.242c-1.641-2.266-2.461-5.125-2.461-8.578c0-4.125,1.078-7.355,3.234-9.691
				s4.883-3.504,8.18-3.504c3.703,0,6.625,1.223,8.766,3.668s3.164,6.191,3.07,11.238h-16.5c0.047,1.953,0.578,3.473,1.594,4.559
				s2.281,1.629,3.797,1.629c1.031,0,1.898-0.281,2.602-0.844S632.5,309.474,632.86,308.224z M633.235,301.568
				c-0.047-1.906-0.539-3.355-1.477-4.348s-2.078-1.488-3.422-1.488c-1.438,0-2.625,0.523-3.562,1.57s-1.398,2.469-1.383,4.266
				H633.235z"/>
		</g>
	</g>
</g>
</svg>
