<?xml version="1.0" encoding="utf-8"?>
<!-- Generator: Adobe Illustrator 17.1.0, SVG Export Plug-In . SVG Version: 6.00 Build 0)  -->
<!DOCTYPE svg PUBLIC "-//W3C//DTD SVG 1.1//EN" "http://www.w3.org/Graphics/SVG/1.1/DTD/svg11.dtd">
<svg version="1.1" id="Layer_1" xmlns="http://www.w3.org/2000/svg" xmlns:xlink="http://www.w3.org/1999/xlink" x="0px" y="0px"
	 viewBox="0 150 640 180" enable-background="new 0 150 640 180" xml:space="preserve">
<g id="Layer_1_1_" display="none">
	<g display="inline">
		<rect x="819" y="0" fill="#706F6F" width="347.1" height="87.8"/>
		<text transform="matrix(1.5002 0 0 1 828.992 64.793)" fill="#FFFFFF" font-family="'ArialMT'" font-size="63.8304">via sicilia</text>
		<g>
			<g>
				<path d="M-511.9,124.1h62.9v22.7c9.1-9.5,18.2-16.2,27.4-20.2c9.2-4,20.4-6,33.4-6c14,0,25.1,2.2,33.3,6.6
					c8.2,4.4,14.9,10.9,20.1,19.6c10.6-10.2,20.2-17.1,28.9-20.7c8.7-3.7,19.4-5.5,32.2-5.5c18.8,0,33.6,5,44.1,14.9
					c10.6,9.9,15.9,25.4,15.9,46.5v97.8h-67.5V191c0-7-1.5-12.3-4.6-15.7c-4.5-5.4-10.1-8.1-16.8-8.1c-7.9,0-14.3,2.5-19.1,7.6
					c-4.8,5.1-7.3,13.2-7.3,24.5v80.3h-67.5V194c0-6.8-0.4-11.5-1.3-13.9c-1.4-3.9-3.9-7.1-7.5-9.4s-7.7-3.6-12.5-3.6
					c-7.8,0-14.1,2.6-19.1,7.8s-7.5,13.7-7.5,25.5v79.4h-67.5V124.1L-511.9,124.1z"/>
				<path d="M-201,202.3c0-23.8,9-43.3,27.2-58.7c18.1-15.4,42.5-23.1,73.3-23.1c35.2,0,61.8,9,79.8,27.1
					C-6.2,162.2,1,180.1,1,201.4c0,23.9-9,43.6-26.9,58.8c-17.9,15.3-42.7,22.9-74.4,22.9c-28.3,0-51.1-6.4-68.5-19
					C-190.3,248.5-201,227.8-201,202.3z M-133.5,202.2c0,13.9,3.2,24.1,9.5,30.8s14.3,10,23.9,10c9.7,0,17.7-3.3,23.9-9.8
					s9.4-17,9.4-31.5c0-13.5-3.1-23.5-9.4-30.1s-14.1-9.9-23.3-9.9c-9.8,0-17.9,3.4-24.3,10C-130.3,178.3-133.5,188.5-133.5,202.2z"
					/>
				<path d="M10,64.8h68v74.5c6.7-6.3,14.4-10.9,22.9-14.1c8.5-3.1,18-4.7,28.4-4.7c21.4,0,39.1,6.8,53.1,20.4s21,33.2,21,58.7
					c0,17-3.2,32-9.6,44.9c-6.4,13-15.3,22.6-26.6,29s-23.9,9.6-37.6,9.6c-11.8,0-22.6-2.2-32.4-6.7c-7.4-3.5-15.4-10.1-24.2-19.8
					v23H10V64.8L10,64.8z M77.5,201.5c0,13.4,2.8,23.1,8.5,29.1s12.9,9,21.6,9c8.1,0,14.8-3,20.3-8.9c5.5-5.9,8.2-15.9,8.2-29.8
					c0-12.3-2.7-21.4-8-27.1c-5.4-5.8-11.8-8.6-19.4-8.6c-9.2,0-16.6,3-22.4,9S77.5,189.2,77.5,201.5z"/>
				<path d="M214.5,64.8h67.4v40.6h-67.4V64.8z M214.5,124.1h67.4v155.7h-67.4V124.1z"/>
				<path d="M305.9,64.8h67.5v214.9h-67.5V64.8L305.9,64.8z"/>
				<path d="M395.1,124.1h62.7v25.4c9.4-10.4,18.9-17.8,28.5-22.2c9.6-4.4,21.3-6.7,35.1-6.7c18.6,0,33.2,4.9,43.8,14.7
					c10.5,9.8,15.8,25,15.8,45.5v98.9h-67.7v-85.6c0-9.8-2-16.7-6.1-20.7s-9.8-6.1-17.2-6.1c-8.2,0-14.8,2.7-19.9,8.2
					s-7.6,15.3-7.6,29.5v74.8h-67.4L395.1,124.1L395.1,124.1z"/>
				<path d="M595.6,202.3c0-23.8,9-43.3,27.1-58.7s42.5-23.1,73.3-23.1c35.2,0,61.8,9,79.8,27.1c14.5,14.6,21.7,32.5,21.7,53.8
					c0,23.9-9,43.6-26.9,58.8c-17.9,15.3-42.7,22.9-74.4,22.9c-28.2,0-51.1-6.4-68.5-19C606.3,248.5,595.6,227.8,595.6,202.3z
					 M663.2,202.2c0,13.9,3.2,24.1,9.5,30.8s14.3,10,23.9,10c9.7,0,17.7-3.3,23.9-9.8s9.4-17,9.4-31.5c0-13.5-3.1-23.5-9.4-30.1
					c-6.3-6.6-14.1-9.9-23.3-9.9c-9.8,0-17.9,3.4-24.3,10C666.4,178.3,663.2,188.5,663.2,202.2z"/>
				<path d="M773.2,124.1h70.1l34.1,98.6l35.4-98.6h68L906,279.7h-59.7L773.2,124.1z"/>
				<path d="M961,202.3c0-23.8,9-43.3,27.1-58.7s42.5-23.1,73.3-23.1c35.2,0,61.8,9,79.8,27.1c14.5,14.6,21.7,32.5,21.7,53.8
					c0,23.9-9,43.6-26.9,58.8c-17.9,15.3-42.7,22.9-74.4,22.9c-28.2,0-51.1-6.4-68.5-19C971.7,248.5,961,227.8,961,202.3z
					 M1028.5,202.2c0,13.9,3.2,24.1,9.5,30.8s14.3,10,23.9,10c9.7,0,17.7-3.3,23.9-9.8c6.2-6.5,9.4-17,9.4-31.5
					c0-13.5-3.1-23.5-9.4-30.1s-14.1-9.9-23.3-9.9c-9.8,0-17.9,3.4-24.3,10C1031.7,178.3,1028.5,188.5,1028.5,202.2z"/>
			</g>
			<rect x="-512.5" y="327.5" fill="#E4371E" width="1673" height="28.9"/>
			<rect x="-512.5" y="327.5" fill="#E30613" width="1673" height="28.9"/>
			<g>
				<path d="M-491.4,427.3l-17.2-2.1c1.9-4.6,5.3-8.1,10-10.3c4.7-2.2,11.8-3.3,21.1-3.3c8.5,0,14.8,0.7,18.9,2s7.1,3,8.8,5.1
					c1.7,2.1,2.5,5.8,2.5,11.3l-0.2,14.8c0,4.2,0.3,7.3,0.9,9.3s1.7,4.1,3.4,6.4H-462c-0.5-0.8-1.1-2.1-1.8-3.7
					c-0.3-0.8-0.5-1.2-0.7-1.5c-3.2,2.1-6.7,3.7-10.4,4.7s-7.6,1.6-11.8,1.6c-7.4,0-13.2-1.3-17.5-4s-6.4-6.1-6.4-10.2
					c0-2.7,1-5.1,2.9-7.2s4.6-3.7,8.1-4.9c3.5-1.1,8.5-2.1,15.1-3c8.9-1.1,15-2.2,18.4-3.1V428c0-2.4-0.9-4.2-2.7-5.2
					c-1.8-1-5.2-1.6-10.2-1.6c-3.4,0-6,0.4-7.9,1.3C-488.7,423.5-490.2,425.1-491.4,427.3z M-466,437.6c-2.4,0.5-6.3,1.2-11.6,1.9
					c-5.3,0.8-8.7,1.5-10.3,2.2c-2.5,1.2-3.7,2.7-3.7,4.5s1,3.3,3,4.6c2,1.3,4.5,1.9,7.6,1.9c3.4,0,6.7-0.8,9.8-2.3
					c2.3-1.1,3.8-2.5,4.5-4.2c0.5-1.1,0.7-3.1,0.7-6.2V437.6L-466,437.6z"/>
				<path d="M-401,460.6h-19v-47.9h17.6v6.8c3-3.2,5.7-5.3,8.1-6.4c2.4-1,5.1-1.5,8.2-1.5c4.3,0,8.5,0.8,12.5,2.4l-5.9,11
					c-3.2-1.4-6.2-2.1-8.9-2.1c-2.7,0-4.9,0.5-6.8,1.5c-1.8,1-3.3,2.7-4.4,5.3c-1.1,2.6-1.6,7.9-1.6,16.1L-401,460.6L-401,460.6z"/>
				<path d="M-296.1,426.8l-18.7,2.2c-0.6-2.5-2.1-4.4-4.3-5.6c-2.2-1.3-5.1-1.9-8.7-1.9c-4.7,0-8.5,1.1-11.3,3.3s-4.2,5.8-4.2,10.9
					c0,5.7,1.4,9.7,4.3,12s6.7,3.5,11.5,3.5c3.6,0,6.6-0.7,8.8-2c2.3-1.4,3.9-3.7,4.9-7.1l18.7,2.1c-1.9,5.7-5.7,10-11.2,12.9
					s-12.9,4.4-22.1,4.4c-10.5,0-18.9-2.2-25.1-6.6s-9.4-10.5-9.4-18.4s3.1-14.1,9.4-18.5s14.7-6.6,25.4-6.6
					c8.7,0,15.7,1.3,20.8,3.8C-302.1,417.9-298.4,421.7-296.1,426.8z"/>
				<path d="M-262,394.4v24.3c6.1-4.8,13.4-7.2,22-7.2c4.4,0,8.3,0.5,11.8,1.6s6.2,2.5,7.9,4.1c1.8,1.7,3,3.5,3.6,5.6
					c0.7,2,1,5.2,1,9.5v28.1h-19v-25.3c0-5-0.4-8.2-1.1-9.6c-0.7-1.4-2-2.4-3.8-3.2s-4.1-1.2-6.9-1.2c-3.2,0-6,0.5-8.4,1.5
					c-2.5,1-4.3,2.6-5.4,4.6c-1.2,2.1-1.7,5.1-1.7,9.1v24h-19v-66.1L-262,394.4L-262,394.4z"/>
				<path d="M-194.4,406.2v-11.7h19v11.7H-194.4z M-194.4,460.6v-47.9h19v47.9H-194.4z"/>
				<path d="M-118.4,412.7v10.1h-13v19.3c0,3.9,0.1,6.2,0.4,6.8s0.8,1.2,1.7,1.6s2,0.6,3.2,0.6c1.8,0,4.3-0.4,7.6-1.2l1.6,9.8
					c-4.4,1.3-9.4,1.9-15,1.9c-3.4,0-6.5-0.4-9.3-1.2c-2.7-0.8-4.8-1.8-6-3c-1.3-1.2-2.2-2.9-2.7-4.9c-0.4-1.5-0.6-4.5-0.6-8.9
					v-20.9h-8.7v-10.1h8.7v-9.5l19.1-7.4v16.9L-118.4,412.7L-118.4,412.7z"/>
				<path d="M-57.9,445.3l18.9,2.1c-2.4,4.6-6.3,8.2-11.5,10.6s-11.8,3.6-19.7,3.6c-12.5,0-21.7-2.7-27.7-8.2
					c-4.7-4.4-7.1-9.9-7.1-16.5c0-7.9,3.1-14.2,9.3-18.7c6.2-4.5,14.1-6.7,23.6-6.7c10.7,0,19.1,2.4,25.3,7.1s9.1,11.9,8.8,21.6
					h-47.6c0.1,3.8,1.7,6.7,4.6,8.8c2.9,2.1,6.6,3.1,10.9,3.1c3,0,5.5-0.5,7.5-1.6C-60.5,449.5-59,447.7-57.9,445.3z M-56.9,432.5
					c-0.1-3.7-1.6-6.5-4.3-8.4s-6-2.9-9.9-2.9c-4.1,0-7.6,1-10.3,3c-2.7,2-4,4.8-4,8.2L-56.9,432.5L-56.9,432.5z"/>
				<path d="M11.2,412.7v10.1h-13v19.3c0,3.9,0.1,6.2,0.4,6.8s0.8,1.2,1.7,1.6s2,0.6,3.2,0.6c1.8,0,4.3-0.4,7.6-1.2l1.6,9.8
					c-4.4,1.3-9.4,1.9-15,1.9c-3.4,0-6.5-0.4-9.3-1.2c-2.7-0.8-4.8-1.8-6-3c-1.3-1.2-2.2-2.9-2.7-4.9c-0.4-1.5-0.6-4.5-0.6-8.9
					v-20.9h-8.7v-10.1h8.7v-9.5l19.1-7.4v16.9L11.2,412.7L11.2,412.7z"/>
				<path d="M63,412.7v10.1H50v19.3c0,3.9,0.1,6.2,0.4,6.8c0.2,0.6,0.8,1.2,1.7,1.6s1.9,0.6,3.2,0.6c1.8,0,4.3-0.4,7.6-1.2l1.6,9.8
					c-4.4,1.3-9.4,1.9-15,1.9c-3.4,0-6.5-0.4-9.3-1.2c-2.7-0.8-4.8-1.8-6-3c-1.3-1.2-2.2-2.9-2.7-4.9c-0.4-1.5-0.6-4.5-0.6-8.9
					v-20.9h-8.7v-10.1H31v-9.5l19.1-7.4v16.9L63,412.7L63,412.7z"/>
				<path d="M129.1,460.6v-7.2c-2.6,2.6-6,4.6-10.3,6c-4.3,1.5-8.8,2.2-13.5,2.2c-4.8,0-9.1-0.7-13-2.1s-6.6-3.4-8.3-6
					c-1.7-2.6-2.6-6.1-2.6-10.6v-30.3h19v22c0,6.7,0.4,10.9,1,12.4c0.7,1.5,2,2.7,3.8,3.6s4.2,1.3,7,1.3c3.2,0,6.1-0.6,8.7-1.8
					c2.6-1.2,4.3-2.7,5.3-4.4c1-1.8,1.4-6.1,1.4-12.9v-20.2h19v47.9L129.1,460.6L129.1,460.6z"/>
				<path d="M186.5,460.6h-19v-47.9h17.6v6.8c3-3.2,5.7-5.3,8.1-6.4c2.4-1,5.2-1.5,8.2-1.5c4.3,0,8.5,0.8,12.5,2.4l-5.9,11
					c-3.2-1.4-6.2-2.1-8.9-2.1s-4.9,0.5-6.8,1.5s-3.3,2.7-4.4,5.3c-1,2.6-1.6,7.9-1.6,16.1L186.5,460.6L186.5,460.6z"/>
				<path d="M243,427.3l-17.2-2.1c1.9-4.6,5.3-8.1,10-10.3c4.7-2.2,11.8-3.3,21.1-3.3c8.5,0,14.8,0.7,18.9,2s7.1,3,8.8,5.1
					c1.7,2.1,2.5,5.8,2.5,11.3l-0.2,14.8c0,4.2,0.3,7.3,0.9,9.3s1.7,4.1,3.4,6.4h-18.8c-0.5-0.8-1.1-2.1-1.8-3.7
					c-0.3-0.8-0.5-1.2-0.7-1.5c-3.2,2.1-6.7,3.7-10.4,4.7c-3.7,1-7.6,1.6-11.8,1.6c-7.4,0-13.2-1.3-17.5-4s-6.4-6.1-6.4-10.2
					c0-2.7,1-5.1,2.9-7.2s4.6-3.7,8.1-4.9c3.5-1.1,8.5-2.1,15.1-3c8.9-1.1,15-2.2,18.4-3.1V428c0-2.4-0.9-4.2-2.7-5.2
					c-1.8-1-5.2-1.6-10.2-1.6c-3.4,0-6,0.4-7.9,1.3C245.7,423.5,244.2,425.1,243,427.3z M268.4,437.6c-2.4,0.5-6.3,1.2-11.5,1.9
					c-5.3,0.8-8.7,1.5-10.3,2.2c-2.5,1.2-3.7,2.7-3.7,4.5s1,3.3,3,4.6c2,1.3,4.5,1.9,7.6,1.9c3.4,0,6.7-0.8,9.8-2.3
					c2.3-1.1,3.8-2.5,4.5-4.2c0.5-1.1,0.7-3.1,0.7-6.2L268.4,437.6L268.4,437.6z"/>
				<path d="M415.6,460.6H398v-7c-2.9,2.7-6.4,4.8-10.4,6.1c-4,1.3-8,2-12.1,2c-8.2,0-15.3-2.2-21.2-6.7c-5.9-4.4-8.8-10.6-8.8-18.6
					c0-8.1,2.9-14.3,8.6-18.5s13-6.3,21.7-6.3c8,0,15,2.2,20.8,6.7v-23.8h19V460.6z M364.9,435.6c0,5.1,1,8.8,3.2,11.1
					c3.1,3.3,7.3,5,12.8,5c4.4,0,8.1-1.2,11.2-3.7s4.6-6.2,4.6-11.1c0-5.5-1.5-9.5-4.5-11.9s-6.8-3.6-11.4-3.6
					c-4.5,0-8.3,1.2-11.3,3.6C366.4,427.3,364.9,430.8,364.9,435.6z"/>
				<path d="M477.8,445.3l18.9,2.1c-2.4,4.6-6.3,8.2-11.5,10.6s-11.8,3.6-19.7,3.6c-12.5,0-21.7-2.7-27.7-8.2
					c-4.7-4.4-7.1-9.9-7.1-16.5c0-7.9,3.1-14.2,9.3-18.7c6.2-4.5,14.1-6.7,23.6-6.7c10.7,0,19.1,2.4,25.3,7.1
					c6.2,4.7,9.1,11.9,8.8,21.6h-47.6c0.1,3.8,1.7,6.7,4.6,8.8c2.9,2.1,6.6,3.1,10.9,3.1c3,0,5.5-0.5,7.5-1.6
					C475.2,449.5,476.8,447.7,477.8,445.3z M478.9,432.5c-0.1-3.7-1.6-6.5-4.3-8.4c-2.7-1.9-6-2.9-9.9-2.9c-4.1,0-7.6,1-10.3,3
					c-2.7,2-4,4.8-4,8.2L478.9,432.5L478.9,432.5z"/>
				<path d="M520.9,463.7l21.7,1.8c0.4,1.7,1.2,2.8,2.5,3.5c1.8,0.9,4.6,1.4,8.5,1.4c5,0,8.7-0.5,11.2-1.5c1.7-0.7,2.9-1.7,3.8-3.2
					c0.6-1.1,0.9-3,0.9-5.8v-7c-5.7,5.2-12.8,7.8-21.5,7.8c-9.6,0-17.3-2.7-22.9-8.2c-4.4-4.3-6.6-9.6-6.6-16c0-8,2.9-14.2,8.7-18.4
					c5.8-4.2,13-6.4,21.6-6.4c8.9,0,16.2,2.6,22,7.8v-6.7h17.8v43c0,5.7-0.7,9.9-2.1,12.7c-1.4,2.8-3.4,5-5.9,6.6s-5.9,2.8-10.1,3.7
					c-4.2,0.9-9.6,1.4-16,1.4c-12.2,0-20.8-1.4-25.9-4.2c-5.1-2.8-7.6-6.3-7.6-10.6C520.8,464.8,520.8,464.3,520.9,463.7z
					 M537.8,435.6c0,5.1,1.5,8.8,4.4,11.2c3,2.4,6.6,3.5,10.9,3.5c4.6,0,8.6-1.2,11.8-3.6s4.8-6,4.8-10.8c0-5-1.5-8.6-4.6-11
					s-6.9-3.6-11.6-3.6c-4.6,0-8.3,1.2-11.2,3.5C539.3,427.2,537.8,430.8,537.8,435.6z"/>
				<path d="M609.1,460.6v-66.1h19v66.1H609.1z"/>
				<path d="M652.3,406.2v-11.7h19v11.7H652.3z M652.3,460.6v-47.9h19v47.9H652.3z"/>
				<path d="M730.1,406.2v-11.7h19v11.7H730.1z M730.1,460.6v-47.9h19v47.9H730.1z"/>
				<path d="M838.6,460.6h-19v-24.4c0-5.2-0.4-8.5-1.2-10s-2.1-2.7-4-3.5c-1.8-0.8-4-1.3-6.6-1.3c-3.3,0-6.2,0.6-8.8,1.8
					c-2.6,1.2-4.4,2.8-5.4,4.8s-1.4,5.6-1.4,11v21.7h-19v-47.9h17.6v7c6.3-5.4,14.2-8.1,23.7-8.1c4.2,0,8,0.5,11.5,1.5
					s6.1,2.3,7.9,3.9c1.8,1.6,3,3.3,3.7,5.3s1,4.8,1,8.5V460.6L838.6,460.6z"/>
				<path d="M901.3,412.7v10.1h-13v19.3c0,3.9,0.1,6.2,0.4,6.8c0.2,0.6,0.8,1.2,1.7,1.6s1.9,0.6,3.2,0.6c1.8,0,4.3-0.4,7.6-1.2
					l1.6,9.8c-4.4,1.3-9.4,1.9-15,1.9c-3.4,0-6.5-0.4-9.3-1.2c-2.7-0.8-4.8-1.8-6-3c-1.3-1.2-2.2-2.9-2.7-4.9
					c-0.4-1.5-0.6-4.5-0.6-8.9v-20.9h-8.7v-10.1h8.7v-9.5l19-7.4v16.9L901.3,412.7L901.3,412.7z"/>
				<path d="M953.2,445.3l18.9,2.1c-2.4,4.6-6.3,8.2-11.5,10.6s-11.8,3.6-19.7,3.6c-12.5,0-21.7-2.7-27.7-8.2
					c-4.7-4.4-7.1-9.9-7.1-16.5c0-7.9,3.1-14.2,9.3-18.7s14.1-6.7,23.6-6.7c10.7,0,19.1,2.4,25.3,7.1s9.1,11.9,8.8,21.6h-47.6
					c0.1,3.8,1.7,6.7,4.6,8.8c2.9,2.1,6.6,3.1,10.9,3.1c3,0,5.5-0.5,7.5-1.6C950.7,449.5,952.2,447.7,953.2,445.3z M954.3,432.5
					c-0.1-3.7-1.6-6.5-4.3-8.4s-6-2.9-9.9-2.9c-4.1,0-7.6,1-10.3,3s-4,4.8-4,8.2L954.3,432.5L954.3,432.5z"/>
				<path d="M1016.2,460.6h-19v-47.9h17.6v6.8c3-3.2,5.7-5.3,8.1-6.4c2.4-1,5.2-1.5,8.2-1.5c4.3,0,8.5,0.8,12.5,2.4l-5.9,11
					c-3.2-1.4-6.2-2.1-8.9-2.1c-2.7,0-4.9,0.5-6.8,1.5c-1.8,1-3.3,2.7-4.4,5.3c-1.1,2.6-1.6,7.9-1.6,16.1L1016.2,460.6L1016.2,460.6
					z"/>
				<path d="M1115.3,460.6h-19v-24.4c0-5.2-0.4-8.5-1.2-10c-0.8-1.5-2.1-2.7-4-3.5s-4-1.3-6.6-1.3c-3.3,0-6.2,0.6-8.8,1.8
					c-2.6,1.2-4.4,2.8-5.4,4.8s-1.4,5.6-1.4,11v21.7h-19v-47.9h17.6v7c6.3-5.4,14.2-8.1,23.7-8.1c4.2,0,8,0.5,11.5,1.5
					s6.1,2.3,7.9,3.9s3,3.3,3.7,5.3s1.1,4.8,1.1,8.5L1115.3,460.6L1115.3,460.6z"/>
				<path d="M1145,406.2v-11.7h19v11.7H1145z M1145,460.6v-47.9h19v47.9H1145z"/>
			</g>
		</g>
	</g>
</g>
<g id="Layer_2" display="none">
	<g display="inline">
		<rect x="580.7" y="0" fill="#706F6F" width="560.9" height="86.3"/>
		<text transform="matrix(1.5002 0 0 1 586.3456 68.2148)" fill="#FFFFFF" font-family="'ArialMT'" font-size="62.7872">via anastasio II</text>
		<g>
			<g>
				<path d="M-497.1,129.9h61.9v22.4c8.9-9.3,17.9-16,27-19.9s20-5.9,32.9-5.9c13.8,0,24.7,2.2,32.8,6.5c8,4.3,14.6,10.8,19.7,19.3
					c10.4-10,19.9-16.8,28.5-20.4c8.6-3.6,19.1-5.4,31.7-5.4c18.5,0,33,4.9,43.4,14.6c10.4,9.8,15.6,25,15.6,45.8V283H-270v-87.2
					c0-6.9-1.5-12.1-4.5-15.4c-4.4-5.3-10-7.9-16.5-7.9c-7.8,0-14.1,2.5-18.8,7.5s-7.1,13-7.1,24.1v79h-66.4v-84.3
					c0-6.7-0.4-11.3-1.3-13.7c-1.4-3.8-3.9-6.9-7.4-9.3c-3.5-2.4-7.6-3.5-12.2-3.5c-7.6,0-13.9,2.5-18.8,7.6s-7.4,13.5-7.4,25.1v78
					h-66.4L-497.1,129.9L-497.1,129.9z"/>
				<path d="M-191.3,206.9c0-23.4,8.9-42.6,26.7-57.7c17.8-15.1,41.8-22.7,72.1-22.7c34.6,0,60.8,8.9,78.5,26.7
					c14.2,14.3,21.3,32,21.3,52.9c0,23.6-8.8,42.8-26.5,57.9c-17.6,15-42,22.6-73.2,22.6c-27.8,0-50.3-6.2-67.4-18.7
					C-180.8,252.2-191.3,232-191.3,206.9z M-124.9,206.7c0,13.6,3.1,23.7,9.4,30.3c6.2,6.5,14.1,9.8,23.5,9.8
					c9.6,0,17.4-3.2,23.5-9.7c6.1-6.4,9.2-16.8,9.2-31c0-13.3-3.1-23.1-9.3-29.6s-13.8-9.7-23-9.7c-9.7,0-17.6,3.3-23.9,9.9
					C-121.8,183.3-124.9,193.3-124.9,206.7z"/>
				<path d="M16.2,71.6h66.9v73.2c6.6-6.2,14.1-10.8,22.6-13.8c8.4-3.1,17.7-4.6,27.9-4.6c21.1,0,38.5,6.7,52.3,20.1
					s20.7,32.7,20.7,57.7c0,16.7-3.2,31.5-9.4,44.2c-6.3,12.7-15,22.3-26.1,28.6s-23.5,9.4-37,9.4c-11.6,0-22.3-2.2-31.9-6.6
					c-7.3-3.5-15.2-10-23.8-19.5V283h-62L16.2,71.6L16.2,71.6z M82.6,206c0,13.2,2.8,22.7,8.4,28.6c5.6,5.9,12.7,8.9,21.2,8.9
					c7.9,0,14.6-2.9,19.9-8.7c5.4-5.8,8.1-15.6,8.1-29.3c0-12.1-2.6-21-7.9-26.7c-5.3-5.7-11.6-8.5-19.1-8.5c-9,0-16.4,3-22.1,8.9
					C85.5,185,82.6,194,82.6,206z"/>
				<path d="M217.4,71.6h66.3v39.9h-66.3L217.4,71.6L217.4,71.6z M217.4,129.9h66.3V283h-66.3L217.4,129.9L217.4,129.9z"/>
				<path d="M307.2,71.6h66.4V283h-66.4V71.6z"/>
				<path d="M395,129.9h61.7v24.9c9.2-10.2,18.6-17.5,28-21.8c9.4-4.4,20.9-6.6,34.5-6.6c18.3,0,32.7,4.8,43.1,14.5
					c10.4,9.7,15.6,24.6,15.6,44.8V283h-66.6v-84.2c0-9.6-2-16.4-6-20.4s-9.7-6-16.9-6c-8,0-14.5,2.7-19.5,8.1c-5,5.4-7.5,15-7.5,29
					V283H395V129.9L395,129.9z"/>
				<path d="M592.3,206.9c0-23.4,8.9-42.6,26.7-57.7c17.8-15.1,41.8-22.7,72.1-22.7c34.6,0,60.8,8.9,78.5,26.7
					c14.2,14.3,21.3,32,21.3,52.9c0,23.6-8.8,42.8-26.5,57.9c-17.6,15-42,22.6-73.2,22.6c-27.8,0-50.3-6.2-67.4-18.7
					C602.8,252.2,592.3,232,592.3,206.9z M658.7,206.7c0,13.6,3.1,23.7,9.4,30.3c6.2,6.5,14.1,9.8,23.5,9.8c9.6,0,17.4-3.2,23.5-9.7
					c6.1-6.4,9.2-16.8,9.2-31c0-13.3-3.1-23.1-9.3-29.6s-13.8-9.7-23-9.7c-9.7,0-17.6,3.3-23.9,9.9
					C661.8,183.3,658.7,193.3,658.7,206.7z"/>
				<path d="M766.9,129.9h68.9l33.5,97l34.8-97H971L897.6,283h-58.8L766.9,129.9z"/>
				<path d="M951.7,206.9c0-23.4,8.9-42.6,26.7-57.7c17.8-15.1,41.8-22.7,72.1-22.7c34.6,0,60.8,8.9,78.5,26.7
					c14.2,14.3,21.3,32,21.3,52.9c0,23.6-8.8,42.8-26.5,57.9c-17.6,15-42,22.6-73.2,22.6c-27.8,0-50.3-6.2-67.4-18.7
					C962.2,252.2,951.7,232,951.7,206.9z M1018.1,206.7c0,13.6,3.1,23.7,9.4,30.3c6.2,6.5,14.1,9.8,23.5,9.8
					c9.6,0,17.4-3.2,23.5-9.7c6.1-6.4,9.2-16.8,9.2-31c0-13.3-3.1-23.1-9.3-29.6c-6.2-6.5-13.8-9.7-23-9.7c-9.7,0-17.6,3.3-23.9,9.9
					C1021.2,183.3,1018.1,193.3,1018.1,206.7z"/>
			</g>
			<rect x="-497.7" y="330" fill="#E4371E" width="1645.6" height="28.4"/>
			<rect x="-497.7" y="330" fill="#E30613" width="1645.6" height="28.4"/>
			<g>
				<path d="M-477,428.1l-17-2c1.9-4.6,5.2-7.9,9.8-10.1c4.7-2.2,11.6-3.3,20.7-3.3c8.3,0,14.5,0.7,18.6,2s7,3,8.6,5
					c1.7,2,2.5,5.7,2.5,11.2l-0.2,14.6c0,4.1,0.3,7.2,0.9,9.2s1.7,4.1,3.4,6.3H-448c-0.5-0.8-1.1-2.1-1.8-3.7
					c-0.3-0.7-0.5-1.2-0.7-1.5c-3.2,2.1-6.6,3.6-10.2,4.7c-3.6,1-7.5,1.6-11.6,1.6c-7.3,0-13-1.3-17.2-3.9s-6.3-6-6.3-10
					c0-2.7,1-5,2.9-7.1s4.6-3.7,8-4.8c3.4-1.1,8.4-2.1,14.9-2.9c8.7-1.1,14.8-2.1,18.1-3.1v-1.2c0-2.4-0.9-4.1-2.7-5.1
					s-5.1-1.5-10-1.5c-3.3,0-5.9,0.4-7.8,1.3C-474.3,424.4-475.8,426-477,428.1z M-452,438.2c-2.4,0.5-6.2,1.2-11.4,1.9
					c-5.2,0.7-8.6,1.5-10.2,2.2c-2.4,1.2-3.7,2.6-3.7,4.4c0,1.7,1,3.2,2.9,4.5s4.4,1.9,7.4,1.9c3.4,0,6.6-0.7,9.6-2.2
					c2.3-1.1,3.7-2.5,4.5-4.1c0.5-1.1,0.7-3.1,0.7-6.1L-452,438.2L-452,438.2z"/>
				<path d="M-388.1,460.9h-18.7v-47.1h17.3v6.7c3-3.2,5.6-5.2,8-6.3c2.4-1,5.1-1.5,8.1-1.5c4.3,0,8.4,0.8,12.3,2.4l-5.8,10.9
					c-3.1-1.4-6.1-2-8.8-2c-2.6,0-4.8,0.5-6.6,1.4s-3.2,2.7-4.3,5.2s-1.6,7.8-1.6,15.8L-388.1,460.9L-388.1,460.9z"/>
				<path d="M-284.9,427.7l-18.4,2.2c-0.6-2.5-2-4.3-4.2-5.6c-2.2-1.2-5-1.9-8.5-1.9c-4.7,0-8.4,1.1-11.1,3.2
					c-2.8,2.1-4.2,5.7-4.2,10.8c0,5.6,1.4,9.5,4.2,11.8s6.6,3.5,11.3,3.5c3.5,0,6.4-0.7,8.7-2c2.3-1.3,3.9-3.7,4.8-6.9l18.4,2.1
					c-1.9,5.6-5.6,9.9-11,12.7c-5.4,2.9-12.7,4.3-21.7,4.3c-10.3,0-18.6-2.2-24.7-6.5s-9.2-10.4-9.2-18.1c0-7.8,3.1-13.8,9.2-18.2
					c6.2-4.3,14.5-6.5,25-6.5c8.6,0,15.4,1.2,20.5,3.7C-290.8,418.9-287.1,422.6-284.9,427.7z"/>
				<path d="M-251.3,395.8v23.9c6-4.7,13.2-7,21.6-7c4.3,0,8.2,0.5,11.6,1.6c3.5,1.1,6.1,2.4,7.8,4.1c1.8,1.7,2.9,3.5,3.6,5.5
					c0.6,2,1,5.1,1,9.4v27.6h-18.7V436c0-4.9-0.4-8.1-1.1-9.4c-0.7-1.3-2-2.4-3.8-3.2c-1.8-0.8-4-1.2-6.8-1.2
					c-3.1,0-5.9,0.5-8.3,1.5s-4.2,2.5-5.4,4.6c-1.1,2-1.7,5-1.7,9v23.6H-270v-65L-251.3,395.8L-251.3,395.8z"/>
				<path d="M-184.9,407.4v-11.5h18.7v11.5H-184.9z M-184.9,460.9v-47.1h18.7v47.1H-184.9L-184.9,460.9z"/>
				<path d="M-110,413.8v9.9h-12.8v19c0,3.8,0.1,6.1,0.4,6.7c0.2,0.6,0.8,1.2,1.7,1.6c0.9,0.4,1.9,0.6,3.2,0.6
					c1.7,0,4.2-0.4,7.5-1.2l1.6,9.7c-4.3,1.2-9.3,1.9-14.8,1.9c-3.4,0-6.4-0.4-9.1-1.1c-2.7-0.8-4.7-1.7-5.9-2.9
					c-1.3-1.2-2.1-2.8-2.6-4.8c-0.4-1.5-0.6-4.4-0.6-8.8v-20.5h-8.6V414h8.6v-9.4l18.7-7.3v16.6h12.7V413.8z"/>
				<path d="M-50.6,445.9L-32,448c-2.4,4.6-6.2,8-11.3,10.4c-5.2,2.4-11.6,3.6-19.4,3.6c-12.3,0-21.4-2.7-27.2-8
					c-4.7-4.3-7-9.7-7-16.2c0-7.8,3.1-13.9,9.2-18.4c6.1-4.4,13.8-6.6,23.2-6.6c10.5,0,18.8,2.3,24.9,6.9s9,11.7,8.7,21.3h-46.8
					c0.1,3.7,1.6,6.6,4.5,8.6s6.5,3.1,10.8,3.1c2.9,0,5.4-0.5,7.4-1.6C-53.1,450-51.6,448.2-50.6,445.9z M-49.6,433.3
					c-0.1-3.6-1.5-6.4-4.2-8.2s-5.9-2.8-9.7-2.8c-4.1,0-7.4,1-10.1,3s-4,4.7-3.9,8.1L-49.6,433.3L-49.6,433.3z"/>
				<path d="M17.4,413.8v9.9H4.6v19c0,3.8,0.1,6.1,0.4,6.7c0.2,0.6,0.8,1.2,1.7,1.6s1.9,0.6,3.2,0.6c1.7,0,4.2-0.4,7.5-1.2l1.6,9.7
					c-4.3,1.2-9.3,1.9-14.8,1.9c-3.4,0-6.4-0.4-9.1-1.1c-2.7-0.8-4.7-1.7-5.9-2.9c-1.3-1.2-2.1-2.8-2.6-4.8
					c-0.4-1.5-0.6-4.4-0.6-8.8v-20.5h-8.6V414h8.6v-9.4l18.7-7.3v16.6h12.7V413.8z"/>
				<path d="M68.3,413.8v9.9H55.6v19c0,3.8,0.1,6.1,0.4,6.7c0.2,0.6,0.8,1.2,1.7,1.6s1.9,0.6,3.2,0.6c1.7,0,4.2-0.4,7.5-1.2l1.6,9.7
					c-4.3,1.2-9.3,1.9-14.8,1.9c-3.4,0-6.4-0.4-9.1-1.1c-2.7-0.8-4.7-1.7-5.9-2.9c-1.3-1.2-2.1-2.8-2.6-4.8
					c-0.4-1.5-0.6-4.4-0.6-8.8v-20.5h-8.6V414H37v-9.4l18.7-7.3v16.6h12.6V413.8z"/>
				<path d="M133.3,460.9v-7c-2.6,2.5-5.9,4.5-10.1,5.9s-8.6,2.2-13.3,2.2c-4.7,0-9-0.7-12.8-2.1s-6.5-3.3-8.2-5.9
					c-1.7-2.5-2.5-6-2.5-10.4v-29.8h18.7v21.7c0,6.6,0.3,10.7,1,12.2s1.9,2.7,3.8,3.6c1.8,0.9,4.1,1.3,6.9,1.3c3.2,0,6-0.6,8.6-1.7
					c2.5-1.2,4.2-2.6,5.2-4.4c0.9-1.7,1.4-6,1.4-12.7v-19.9h18.7V461L133.3,460.9L133.3,460.9z"/>
				<path d="M189.8,460.9h-18.7v-47.1h17.4v6.7c3-3.2,5.6-5.2,8-6.3c2.4-1,5.1-1.5,8.1-1.5c4.3,0,8.4,0.8,12.3,2.4l-5.8,10.9
					c-3.1-1.4-6.1-2-8.8-2c-2.6,0-4.8,0.5-6.7,1.4s-3.2,2.7-4.3,5.2c-1,2.5-1.6,7.8-1.6,15.8L189.8,460.9L189.8,460.9z"/>
				<path d="M245.4,428.1l-17-2c1.9-4.6,5.2-7.9,9.8-10.1c4.7-2.2,11.6-3.3,20.7-3.3c8.3,0,14.5,0.7,18.6,2s6.9,3,8.6,5
					s2.5,5.7,2.5,11.2l-0.2,14.6c0,4.1,0.3,7.2,0.9,9.2s1.7,4.1,3.4,6.3h-18.5c-0.5-0.8-1.1-2.1-1.8-3.7c-0.3-0.7-0.5-1.2-0.7-1.5
					c-3.2,2.1-6.6,3.6-10.2,4.7c-3.6,1-7.5,1.6-11.6,1.6c-7.3,0-13-1.3-17.2-3.9s-6.3-6-6.3-10c0-2.7,1-5,2.9-7.1s4.6-3.7,8-4.8
					c3.4-1.1,8.4-2.1,14.9-2.9c8.7-1.1,14.8-2.1,18.1-3.1v-1.2c0-2.4-0.9-4.1-2.6-5.1c-1.8-1-5.1-1.5-10-1.5c-3.3,0-5.9,0.4-7.8,1.3
					C248.1,424.4,246.6,426,245.4,428.1z M270.4,438.2c-2.4,0.5-6.2,1.2-11.4,1.9c-5.2,0.7-8.6,1.5-10.2,2.2
					c-2.4,1.2-3.6,2.6-3.6,4.4c0,1.7,1,3.2,2.9,4.5s4.4,1.9,7.4,1.9c3.4,0,6.6-0.7,9.6-2.2c2.3-1.1,3.7-2.5,4.5-4.1
					c0.5-1.1,0.7-3.1,0.7-6.1L270.4,438.2L270.4,438.2z"/>
				<path d="M415.2,460.9h-17.3V454c-2.9,2.7-6.3,4.7-10.2,6c-3.9,1.3-7.9,2-11.9,2c-8.1,0-15.1-2.2-20.8-6.5
					c-5.8-4.4-8.7-10.4-8.7-18.3c0-8,2.8-14,8.4-18.2s12.7-6.2,21.3-6.2c7.9,0,14.7,2.2,20.5,6.6V396h18.7V460.9z M365.3,436.3
					c0,5,1,8.7,3.1,10.9c3,3.3,7.2,4.9,12.6,4.9c4.3,0,8-1.2,11-3.7c3-2.4,4.5-6.1,4.5-10.9c0-5.4-1.5-9.3-4.4-11.7
					c-2.9-2.4-6.7-3.6-11.2-3.6c-4.4,0-8.1,1.2-11.1,3.5C366.8,428.1,365.3,431.6,365.3,436.3z"/>
				<path d="M476.4,445.9L495,448c-2.4,4.6-6.2,8-11.3,10.4c-5.2,2.4-11.6,3.6-19.4,3.6c-12.3,0-21.4-2.7-27.3-8
					c-4.7-4.3-7-9.7-7-16.2c0-7.8,3.1-13.9,9.2-18.4c6.1-4.4,13.8-6.6,23.2-6.6c10.5,0,18.8,2.3,24.9,6.9s9,11.7,8.7,21.3h-46.8
					c0.1,3.7,1.6,6.6,4.5,8.6c2.9,2.1,6.5,3.1,10.8,3.1c2.9,0,5.4-0.5,7.4-1.6C473.8,450,475.4,448.2,476.4,445.9z M477.4,433.3
					c-0.1-3.6-1.5-6.4-4.2-8.2c-2.7-1.9-5.9-2.8-9.7-2.8c-4.1,0-7.4,1-10.1,3s-4,4.7-3.9,8.1L477.4,433.3L477.4,433.3z"/>
				<path d="M518.7,464l21.3,1.7c0.4,1.7,1.2,2.8,2.5,3.4c1.8,0.9,4.6,1.3,8.4,1.3c4.9,0,8.5-0.5,11-1.5c1.6-0.6,2.9-1.7,3.7-3.2
					c0.6-1,0.9-2.9,0.9-5.7v-6.9c-5.6,5.1-12.6,7.6-21.1,7.6c-9.5,0-17-2.7-22.5-8c-4.3-4.2-6.5-9.5-6.5-15.8
					c0-7.9,2.8-13.9,8.5-18.1s12.8-6.3,21.2-6.3c8.7,0,15.9,2.6,21.6,7.7v-6.6h17.5V456c0,5.6-0.7,9.7-2.1,12.5
					c-1.4,2.7-3.3,4.9-5.8,6.5s-5.8,2.8-9.9,3.7c-4.1,0.9-9.4,1.3-15.7,1.3c-12,0-20.4-1.4-25.5-4.1c-5-2.7-7.5-6.2-7.5-10.4
					C518.7,465.1,518.7,464.6,518.7,464z M535.4,436.3c0,5,1.5,8.7,4.4,11s6.5,3.5,10.7,3.5c4.6,0,8.4-1.2,11.6-3.6
					s4.7-5.9,4.7-10.6c0-4.9-1.5-8.5-4.5-10.9s-6.8-3.6-11.4-3.6c-4.5,0-8.2,1.2-11.1,3.5C536.9,428,535.4,431.6,535.4,436.3z"/>
				<path d="M605.5,460.9v-65h18.7v65H605.5z"/>
				<path d="M648,407.4v-11.5h18.7v11.5H648z M648,460.9v-47.1h18.7v47.1H648L648,460.9z"/>
				<path d="M724.6,407.4v-11.5h18.7v11.5H724.6z M724.6,460.9v-47.1h18.7v47.1H724.6L724.6,460.9z"/>
				<path d="M831.2,460.9h-18.7v-24c0-5.1-0.4-8.4-1.2-9.9s-2.1-2.6-3.9-3.5c-1.8-0.8-4-1.2-6.5-1.2c-3.2,0-6.1,0.6-8.7,1.8
					c-2.6,1.2-4.3,2.8-5.3,4.7c-1,1.9-1.4,5.6-1.4,10.8v21.3h-18.7v-47.1h17.3v6.9c6.2-5.3,13.9-8,23.3-8c4.1,0,7.9,0.5,11.3,1.5
					c3.4,1,6,2.3,7.7,3.8c1.8,1.5,3,3.3,3.7,5.2c0.7,2,1,4.7,1,8.4v29.3H831.2z"/>
				<path d="M892.9,413.8v9.9h-12.8v19c0,3.8,0.1,6.1,0.4,6.7c0.2,0.6,0.8,1.2,1.7,1.6s1.9,0.6,3.2,0.6c1.7,0,4.2-0.4,7.5-1.2
					l1.6,9.7c-4.3,1.2-9.3,1.9-14.8,1.9c-3.4,0-6.4-0.4-9.1-1.1c-2.7-0.8-4.7-1.7-6-2.9c-1.3-1.2-2.1-2.8-2.6-4.8
					c-0.4-1.5-0.6-4.4-0.6-8.8v-20.5h-8.6V414h8.6v-9.4l18.7-7.3v16.6h12.8V413.8z"/>
				<path d="M944,445.9l18.6,2.1c-2.4,4.6-6.2,8-11.3,10.4c-5.2,2.4-11.6,3.6-19.4,3.6c-12.3,0-21.4-2.7-27.3-8
					c-4.7-4.3-7-9.7-7-16.2c0-7.8,3.1-13.9,9.2-18.4c6.1-4.4,13.8-6.6,23.2-6.6c10.5,0,18.8,2.3,24.9,6.9s9,11.7,8.7,21.3h-46.8
					c0.1,3.7,1.6,6.6,4.5,8.6s6.5,3.1,10.8,3.1c2.9,0,5.4-0.5,7.4-1.6C941.5,450,943,448.2,944,445.9z M945.1,433.3
					c-0.1-3.6-1.5-6.4-4.2-8.2s-5.9-2.8-9.7-2.8c-4.1,0-7.4,1-10.1,3c-2.7,2-4,4.7-3.9,8.1L945.1,433.3L945.1,433.3z"/>
				<path d="M1006,460.9h-18.7v-47.1h17.3v6.7c3-3.2,5.6-5.2,8-6.3c2.4-1,5.1-1.5,8.1-1.5c4.3,0,8.4,0.8,12.3,2.4l-5.8,10.9
					c-3.1-1.4-6.1-2-8.8-2c-2.6,0-4.8,0.5-6.6,1.4c-1.8,1-3.2,2.7-4.3,5.2s-1.6,7.8-1.6,15.8L1006,460.9L1006,460.9z"/>
				<path d="M1103.4,460.9h-18.7v-24c0-5.1-0.4-8.4-1.2-9.9c-0.8-1.5-2.1-2.6-3.9-3.5c-1.8-0.8-4-1.2-6.5-1.2
					c-3.2,0-6.1,0.6-8.7,1.8c-2.6,1.2-4.3,2.8-5.3,4.7c-1,1.9-1.4,5.6-1.4,10.8v21.3H1039v-47.1h17.3v6.9c6.2-5.3,13.9-8,23.3-8
					c4.1,0,7.9,0.5,11.3,1.5s6,2.3,7.7,3.8c1.8,1.5,3,3.3,3.7,5.2c0.7,2,1,4.7,1,8.4v29.3H1103.4z"/>
				<path d="M1132.7,407.4v-11.5h18.7v11.5H1132.7z M1132.7,460.9v-47.1h18.7v47.1H1132.7L1132.7,460.9z"/>
			</g>
		</g>
	</g>
</g>
<g id="Layer_3">
	<g>
		<path fill="#FFFFFF" d="M339.15,172.101c2.1,2.5,4.2,5.2,6.2,8.3c5.3,8.1,9.3,17.3,12,27.8c2.8,10.4,4.1,21.5,4.1,33.4
			c0,11.8-1.2,22.7-3.5,32.7c-2.3,9.9-5.8,18.9-10.4,27c-5.4,9.4-11.4,16.4-18.2,21.2c-6.8,4.8-14.1,7.2-22.1,7.3
			c-9.4,0.1-17.9-3.1-25.4-9.5c-2.4-2.8-4.7-5.9-6.9-9.5c-10.3-16.8-15.5-37.6-15.5-62.5c0-11.7,1.4-22.8,4.2-33.3
			c2.8-10.5,6.9-20,12.3-28.4c5-8,10.7-14,16.9-18.1c6.3-4.2,13.1-6.3,20.4-6.3c7.4-0.1,14.2,2,20.5,6
			C335.75,169.301,337.45,170.601,339.15,172.101L339.15,172.101z M332.85,185.301c1.8,2.2,3.5,4.6,5.2,7.2
			c8.5,13.6,12.8,29.9,12.8,48.8c0,20.3-4.1,37.4-12.4,51.3s-18.4,20.9-30.4,21c-7.3,0.1-14-2.4-19.9-7.2c7.4,8.9,16,13.3,25.9,13.2
			c12-0.1,22.1-7.1,30.4-21c8.3-14,12.4-31.1,12.4-51.3c0-19-4.3-35.2-12.8-48.8C340.55,193.001,336.85,188.601,332.85,185.301
			L332.85,185.301z M282.15,300.501c6,4.9,12.6,7.3,19.9,7.2c12-0.1,22.1-7.1,30.4-21c8.3-14,12.4-31.1,12.4-51.3
			c0-19-4.3-35.2-12.8-48.8c-1.7-2.7-3.4-5.1-5.2-7.2c-5.9-4.8-12.4-7.2-19.6-7.2c-11.8,0.1-22,7.1-30.3,21.1
			c-8.3,13.9-12.5,30.6-12.5,50.2c0,19.8,4.2,36.5,12.6,50.1C278.75,296.101,280.35,298.401,282.15,300.501L282.15,300.501z
			 M301.45,150.201c7.4-0.1,14.2,2,20.5,6c3.9,2.5,7.7,5.8,11.2,9.8c-1.7-1.4-3.4-2.7-5.2-3.8c-6.3-4.1-13.1-6.1-20.5-6
			c-7.3,0.1-14.1,2.2-20.4,6.3c-6.2,4.1-11.9,10.1-16.9,18.1c-5.4,8.5-9.5,17.9-12.3,28.4s-4.2,21.6-4.2,33.3
			c0,24.8,5.1,45.7,15.5,62.5c2.2,3.5,4.5,6.7,6.9,9.5c-4.6-3.9-8.9-9.1-12.8-15.5c-10.3-16.8-15.5-37.6-15.5-62.5
			c0-11.7,1.4-22.8,4.2-33.3s6.9-20,12.3-28.4c5-8,10.7-14,16.9-18.1C287.35,152.401,294.15,150.301,301.45,150.201L301.45,150.201z
			"/>
		<polygon fill="#FFFFFF" points="344.95,153.301 358.65,153.201 359.75,159.201 354.35,159.301 385.95,319.901 377.75,319.901 		
			"/>
		<polygon fill="#FFFFFF" points="387.25,276.001 406.35,152.801 415.85,152.801 416.75,158.801 412.35,158.801 393.25,282.001 
			397.05,301.801 418.25,164.801 424.25,164.701 441.35,266.501 463.45,152.401 473.55,152.301 472.45,158.301 469.45,158.401 
			445.85,280.901 448.95,301.401 475.45,164.301 481.85,164.301 450.35,325.401 443.35,325.501 422.55,195.501 420.45,211.601 
			437.35,319.501 432.35,319.501 415.45,209.601 396.75,325.801 391.95,325.901 360.35,165.201 365.75,165.201 		"/>
		<polygon fill="#FFFFFF" points="158.15,154.601 173.05,154.501 175.45,160.501 166.55,160.601 166.55,321.401 158.15,321.501 		
			"/>
		<polygon fill="#FFFFFF" points="228.65,285.201 228.65,154.001 240.15,154.001 240.15,160.001 236.05,160.001 236.05,293.501 
			242.05,310.401 242.05,166.001 249.55,166.001 249.55,326.801 237.15,326.901 182.45,186.201 182.45,195.601 231.15,320.901 
			227.55,321.001 176.55,189.601 176.55,327.401 172.55,327.401 172.55,166.501 182.85,166.501 		"/>
	</g>
</g>
</svg>
