<?xml version="1.0" encoding="utf-8"?>
<!-- Generator: Adobe Illustrator 17.1.0, SVG Export Plug-In . SVG Version: 6.00 Build 0)  -->
<!DOCTYPE svg PUBLIC "-//W3C//DTD SVG 1.1//EN" "http://www.w3.org/Graphics/SVG/1.1/DTD/svg11.dtd">
<svg version="1.1" id="Layer_1" xmlns="http://www.w3.org/2000/svg" xmlns:xlink="http://www.w3.org/1999/xlink" x="0px" y="0px"
	 viewBox="0 152.7 640 180" enable-background="new 0 152.7 640 180" xml:space="preserve">
<g>
	<g enable-background="new    ">
		<path fill="#FFFFFF" d="M495.962,173.254l-7.196-12.609h3.385l4.061,7.551c0.439,0.815,0.844,1.663,1.212,2.541
			c0.285-0.665,0.683-1.464,1.193-2.398l4.203-7.694h3.296l-7.161,12.609H495.962z"/>
		<path fill="#FFFFFF" d="M508.965,158.306v-2.458h3.206v2.458H508.965z M508.965,173.254v-12.609h3.206v12.609H508.965z"/>
		<path fill="#FFFFFF" d="M529.395,171.699c-1.188,0.673-2.33,1.147-3.429,1.425c-1.099,0.277-2.277,0.416-3.535,0.416
			c-2.078,0-3.676-0.338-4.792-1.015s-1.674-1.542-1.674-2.595c0-0.617,0.21-1.181,0.632-1.692c0.422-0.51,0.974-0.92,1.657-1.229
			c0.683-0.309,1.451-0.542,2.307-0.701c0.629-0.111,1.579-0.218,2.85-0.321c2.589-0.206,4.494-0.451,5.718-0.736
			c0.012-0.293,0.018-0.479,0.018-0.558c0-0.871-0.303-1.484-0.908-1.84c-0.819-0.483-2.037-0.724-3.651-0.724
			c-1.509,0-2.622,0.176-3.34,0.528c-0.719,0.352-1.25,0.976-1.595,1.87l-3.135-0.285c0.285-0.895,0.754-1.617,1.407-2.167
			c0.653-0.55,1.597-0.974,2.832-1.271s2.666-0.445,4.293-0.445c1.614,0,2.927,0.127,3.937,0.38
			c1.009,0.253,1.751,0.572,2.227,0.956c0.475,0.384,0.808,0.869,0.997,1.455c0.107,0.364,0.16,1.021,0.16,1.971v2.85
			c0,1.987,0.068,3.244,0.205,3.77s0.407,1.031,0.811,1.514h-3.349C529.703,172.811,529.49,172.292,529.395,171.699z
			 M529.128,166.925c-1.164,0.317-2.909,0.586-5.237,0.808c-1.317,0.126-2.25,0.269-2.796,0.427
			c-0.547,0.159-0.968,0.39-1.265,0.695s-0.445,0.643-0.445,1.015c0,0.57,0.323,1.045,0.971,1.425c0.646,0.38,1.594,0.57,2.841,0.57
			c1.235,0,2.333-0.18,3.295-0.54c0.962-0.36,1.669-0.853,2.12-1.479c0.344-0.482,0.517-1.195,0.517-2.137V166.925z"/>
		<path fill="#FFFFFF" d="M546.192,169.49l3.171-0.333c0.178,0.847,0.674,1.496,1.487,1.947s1.95,0.677,3.411,0.677
			c1.472,0,2.564-0.2,3.277-0.6c0.712-0.4,1.068-0.869,1.068-1.407c0-0.482-0.314-0.862-0.944-1.14
			c-0.439-0.19-1.531-0.431-3.277-0.724c-2.351-0.396-3.98-0.738-4.889-1.027c-0.909-0.289-1.598-0.688-2.066-1.199
			c-0.47-0.51-0.704-1.074-0.704-1.692c0-0.562,0.193-1.082,0.579-1.561s0.911-0.877,1.576-1.193
			c0.499-0.245,1.179-0.453,2.04-0.624c0.86-0.17,1.784-0.255,2.77-0.255c1.484,0,2.787,0.143,3.91,0.428
			c1.122,0.285,1.95,0.671,2.484,1.158s0.902,1.138,1.104,1.953l-3.135,0.285c-0.143-0.649-0.556-1.155-1.238-1.52
			s-1.647-0.546-2.895-0.546c-1.473,0-2.523,0.163-3.152,0.487c-0.63,0.325-0.944,0.705-0.944,1.14c0,0.277,0.131,0.526,0.392,0.748
			c0.262,0.229,0.671,0.419,1.229,0.57c0.32,0.079,1.265,0.261,2.832,0.546c2.268,0.404,3.851,0.734,4.747,0.992
			s1.6,0.631,2.11,1.122s0.766,1.1,0.766,1.828c0,0.712-0.312,1.383-0.935,2.013s-1.523,1.116-2.698,1.46
			c-1.176,0.344-2.506,0.517-3.99,0.517c-2.458,0-4.331-0.34-5.62-1.021C547.371,171.837,546.549,170.828,546.192,169.49z"/>
		<path fill="#FFFFFF" d="M565.732,158.306v-2.458h3.206v2.458H565.732z M565.732,173.254v-12.609h3.206v12.609H565.732z"/>
		<path fill="#FFFFFF" d="M586.162,168.635l3.153,0.273c-0.345,1.449-1.227,2.583-2.646,3.402s-3.161,1.229-5.228,1.229
			c-2.589,0-4.67-0.564-6.243-1.692c-1.573-1.128-2.36-2.745-2.36-4.851c0-1.361,0.339-2.553,1.016-3.574s1.707-1.787,3.09-2.297
			c1.384-0.511,2.889-0.766,4.516-0.766c2.055,0,3.734,0.347,5.041,1.039c1.306,0.693,2.144,1.676,2.512,2.951l-3.117,0.32
			c-0.297-0.847-0.822-1.484-1.576-1.912c-0.755-0.427-1.666-0.641-2.734-0.641c-1.615,0-2.928,0.386-3.937,1.158
			c-1.01,0.772-1.514,1.993-1.514,3.663c0,1.694,0.486,2.925,1.46,3.692c0.974,0.768,2.244,1.152,3.812,1.152
			c1.259,0,2.31-0.257,3.153-0.772C585.402,170.496,585.937,169.704,586.162,168.635z"/>
		<path fill="#FFFFFF" d="M592.077,158.306v-2.458h3.206v2.458H592.077z M592.077,173.254v-12.609h3.206v12.609H592.077z"/>
		<path fill="#FFFFFF" d="M600.092,173.254v-17.406h3.207v17.406H600.092z"/>
		<path fill="#FFFFFF" d="M608.286,158.306v-2.458h3.206v2.458H608.286z M608.286,173.254v-12.609h3.206v12.609H608.286z"/>
		<path fill="#FFFFFF" d="M628.716,171.699c-1.188,0.673-2.33,1.147-3.429,1.425c-1.099,0.277-2.277,0.416-3.535,0.416
			c-2.078,0-3.676-0.338-4.792-1.015s-1.674-1.542-1.674-2.595c0-0.617,0.21-1.181,0.632-1.692c0.422-0.51,0.974-0.92,1.657-1.229
			c0.683-0.309,1.451-0.542,2.307-0.701c0.629-0.111,1.579-0.218,2.85-0.321c2.589-0.206,4.494-0.451,5.718-0.736
			c0.012-0.293,0.018-0.479,0.018-0.558c0-0.871-0.303-1.484-0.908-1.84c-0.819-0.483-2.037-0.724-3.651-0.724
			c-1.509,0-2.622,0.176-3.34,0.528c-0.719,0.352-1.25,0.976-1.595,1.87l-3.135-0.285c0.285-0.895,0.754-1.617,1.407-2.167
			c0.653-0.55,1.597-0.974,2.832-1.271s2.666-0.445,4.293-0.445c1.614,0,2.927,0.127,3.937,0.38
			c1.009,0.253,1.751,0.572,2.227,0.956c0.475,0.384,0.808,0.869,0.997,1.455c0.107,0.364,0.16,1.021,0.16,1.971v2.85
			c0,1.987,0.068,3.244,0.205,3.77s0.407,1.031,0.811,1.514h-3.349C629.024,172.811,628.812,172.292,628.716,171.699z
			 M628.449,166.925c-1.164,0.317-2.909,0.586-5.237,0.808c-1.317,0.126-2.25,0.269-2.796,0.427
			c-0.547,0.159-0.968,0.39-1.265,0.695s-0.445,0.643-0.445,1.015c0,0.57,0.323,1.045,0.971,1.425c0.646,0.38,1.594,0.57,2.841,0.57
			c1.235,0,2.333-0.18,3.295-0.54c0.962-0.36,1.669-0.853,2.12-1.479c0.344-0.482,0.517-1.195,0.517-2.137V166.925z"/>
	</g>
	<g>
		<g>
			<path fill="#FFFFFF" d="M0.5,195.8h24v8.7c3.5-3.6,6.9-6.2,10.5-7.7c3.5-1.5,7.8-2.3,12.7-2.3c5.3,0,9.6,0.8,12.7,2.5
				s5.7,4.2,7.6,7.5c4-3.9,7.7-6.5,11-7.9s7.4-2.1,12.3-2.1c7.2,0,12.8,1.9,16.8,5.7s6,9.7,6,17.7v37.2H88.4v-33.8
				c0-2.7-0.6-4.7-1.8-6c-1.7-2-3.9-3.1-6.4-3.1c-3,0-5.4,1-7.3,2.9c-1.8,1.9-2.8,5-2.8,9.3V255H44.4v-32.7c0-2.6-0.2-4.4-0.5-5.3
				c-0.5-1.5-1.5-2.7-2.8-3.6c-1.4-0.9-2.9-1.4-4.7-1.4c-3,0-5.4,1-7.3,3s-2.8,5.2-2.8,9.7V255H0.5V195.8z"/>
			<path fill="#FFFFFF" d="M118.9,225.7c0-9,3.4-16.5,10.3-22.4s16.2-8.8,27.9-8.8c13.4,0,23.5,3.4,30.4,10.3
				c5.5,5.5,8.3,12.4,8.3,20.5c0,9.1-3.4,16.6-10.2,22.4c-6.8,5.8-16.3,8.7-28.3,8.7c-10.8,0-19.5-2.4-26.1-7.3
				C123,243.2,118.9,235.4,118.9,225.7z M144.7,225.6c0,5.3,1.2,9.2,3.6,11.7c2.4,2.5,5.5,3.8,9.1,3.8c3.7,0,6.7-1.2,9.1-3.7
				c2.4-2.5,3.6-6.5,3.6-12c0-5.1-1.2-9-3.6-11.5c-2.4-2.5-5.4-3.8-8.9-3.8c-3.7,0-6.8,1.3-9.3,3.8
				C145.9,216.5,144.7,220.4,144.7,225.6z"/>
			<path fill="#FFFFFF" d="M199.3,173.3h25.9v28.4c2.6-2.4,5.5-4.2,8.7-5.4c3.3-1.2,6.9-1.8,10.8-1.8c8.2,0,14.9,2.6,20.2,7.8
				s8,12.6,8,22.4c0,6.5-1.2,12.2-3.7,17.1c-2.4,4.9-5.8,8.6-10.1,11.1c-4.3,2.4-9.1,3.7-14.3,3.7c-4.5,0-8.6-0.9-12.4-2.6
				c-2.8-1.3-5.9-3.9-9.2-7.5v8.8h-24L199.3,173.3L199.3,173.3z M225,225.3c0,5.1,1.1,8.8,3.2,11.1c2.2,2.3,4.9,3.4,8.2,3.4
				c3.1,0,5.6-1.1,7.7-3.4c2.1-2.3,3.1-6,3.1-11.4c0-4.7-1-8.1-3.1-10.3c-2-2.2-4.5-3.3-7.4-3.3c-3.5,0-6.3,1.1-8.5,3.4
				C226.1,217.2,225,220.7,225,225.3z"/>
			<path fill="#FFFFFF" d="M277.2,173.3h25.7v15.5h-25.7V173.3z M277.2,195.8h25.7v59.3h-25.7V195.8z"/>
			<path fill="#FFFFFF" d="M312,173.3h25.7v81.9H312V173.3z"/>
			<path fill="#FFFFFF" d="M346,195.8h23.9v9.7c3.6-3.9,7.2-6.8,10.8-8.5s8.1-2.5,13.4-2.5c7.1,0,12.7,1.9,16.7,5.6
				c4,3.7,6,9.5,6,17.3v37.7H391v-32.6c0-3.7-0.8-6.4-2.3-7.9c-1.6-1.5-3.7-2.3-6.6-2.3c-3.1,0-5.6,1-7.6,3.1
				c-1.9,2.1-2.9,5.8-2.9,11.2v28.5H346V195.8L346,195.8z"/>
			<path fill="#FFFFFF" d="M422.4,225.7c0-9,3.4-16.5,10.3-22.4s16.2-8.8,27.9-8.8c13.4,0,23.5,3.4,30.4,10.3
				c5.5,5.5,8.3,12.4,8.3,20.5c0,9.1-3.4,16.6-10.2,22.4c-6.8,5.8-16.3,8.7-28.3,8.7c-10.8,0-19.5-2.4-26.1-7.3
				C426.5,243.2,422.4,235.4,422.4,225.7z M448.1,225.6c0,5.3,1.2,9.2,3.6,11.7s5.5,3.8,9.1,3.8c3.7,0,6.7-1.2,9.1-3.7
				s3.6-6.5,3.6-12c0-5.1-1.2-9-3.6-11.5s-5.4-3.8-8.9-3.8c-3.7,0-6.8,1.3-9.3,3.8C449.3,216.5,448.1,220.4,448.1,225.6z"/>
			<path fill="#FFFFFF" d="M490,195.8h26.7l13,37.6l13.5-37.6h25.9l-28.5,59.3h-22.8L490,195.8z"/>
			<path fill="#FFFFFF" d="M561.6,225.7c0-9,3.4-16.5,10.3-22.4c6.9-5.9,16.2-8.8,27.9-8.8c13.4,0,23.5,3.4,30.4,10.3
				c5.5,5.5,8.3,12.4,8.3,20.5c0,9.1-3.4,16.6-10.2,22.4c-6.8,5.8-16.3,8.7-28.3,8.7c-10.8,0-19.5-2.4-26.1-7.3
				C565.7,243.2,561.6,235.4,561.6,225.7z M587.3,225.6c0,5.3,1.2,9.2,3.6,11.7c2.4,2.5,5.5,3.8,9.1,3.8c3.7,0,6.7-1.2,9.1-3.7
				c2.4-2.5,3.6-6.5,3.6-12c0-5.1-1.2-9-3.6-11.5c-2.4-2.5-5.4-3.8-8.9-3.8c-3.7,0-6.8,1.3-9.3,3.8
				C588.5,216.5,587.3,220.4,587.3,225.6z"/>
		</g>
		<rect x="0.3" y="273.3" fill="#FFFFFF" width="637.3" height="11"/>
		<rect x="0.3" y="273.3" fill="#FFFFFF" width="637.3" height="11"/>
		<g>
			<path fill="#FFFFFF" d="M8.3,311.3l-6.6-0.8c0.7-1.8,2-3.1,3.8-3.9s4.5-1.3,8-1.3c3.2,0,5.6,0.3,7.2,0.8s2.7,1.2,3.3,1.9
				c0.6,0.8,1,2.2,1,4.3v5.7c0,1.6,0.1,2.8,0.3,3.5c0.2,0.8,0.7,1.6,1.3,2.5h-7.2c-0.2-0.3-0.4-0.8-0.7-1.4
				c-0.1-0.3-0.2-0.5-0.3-0.6c-1.2,0.8-2.6,1.4-4,1.8s-2.9,0.6-4.5,0.6c-2.8,0-5-0.5-6.7-1.5c-1.6-1-2.4-2.3-2.4-3.9
				c0-1,0.4-1.9,1.1-2.8c0.7-0.8,1.8-1.4,3.1-1.9c1.3-0.4,3.2-0.8,5.8-1.1c3.4-0.4,5.7-0.8,7-1.2v-0.5c0-0.9-0.3-1.6-1-2
				s-2-0.6-3.9-0.6c-1.3,0-2.3,0.2-3,0.5C9.3,309.9,8.7,310.5,8.3,311.3z M18,315.3c-0.9,0.2-2.4,0.5-4.4,0.7
				c-2,0.3-3.3,0.6-3.9,0.8c-0.9,0.4-1.4,1-1.4,1.7s0.4,1.3,1.1,1.8c0.8,0.5,1.7,0.7,2.9,0.7c1.3,0,2.5-0.3,3.7-0.9
				c0.9-0.4,1.5-1,1.7-1.6c0.2-0.4,0.3-1.2,0.3-2.4C18,316.1,18,315.3,18,315.3z"/>
			<path fill="#FFFFFF" d="M42.7,324h-7.2v-18.2h6.7v2.6c1.1-1.2,2.2-2,3.1-2.4c0.9-0.4,2-0.6,3.1-0.6c1.6,0,3.2,0.3,4.8,0.9
				l-2.2,4.2c-1.2-0.5-2.3-0.8-3.4-0.8c-1,0-1.9,0.2-2.6,0.6c-0.7,0.4-1.3,1-1.7,2s-0.6,3-0.6,6.1C42.7,318.4,42.7,324,42.7,324z"/>
			<path fill="#FFFFFF" d="M82.7,311.2l-7.1,0.9c-0.2-1-0.8-1.7-1.6-2.1c-0.9-0.5-2-0.7-3.3-0.7c-1.8,0-3.2,0.4-4.3,1.2
				c-1.1,0.8-1.6,2.2-1.6,4.2c0,2.2,0.5,3.7,1.6,4.6s2.6,1.3,4.4,1.3c1.4,0,2.5-0.3,3.4-0.8s1.5-1.4,1.9-2.7l7.1,0.8
				c-0.7,2.2-2.2,3.8-4.2,4.9c-2.1,1.1-4.9,1.7-8.4,1.7c-4,0-7.2-0.8-9.6-2.5c-2.4-1.7-3.6-4-3.6-7s1.2-5.4,3.6-7
				c2.4-1.7,5.6-2.5,9.7-2.5c3.3,0,6,0.5,7.9,1.4C80.4,307.8,81.8,309.2,82.7,311.2z"/>
			<path fill="#FFFFFF" d="M95.7,298.8v9.3c2.3-1.8,5.1-2.7,8.4-2.7c1.7,0,3.2,0.2,4.5,0.6s2.3,0.9,3,1.6c0.7,0.6,1.1,1.4,1.4,2.1
				c0.2,0.8,0.4,2,0.4,3.6V324h-7.2v-9.6c0-1.9-0.1-3.1-0.4-3.6s-0.8-0.9-1.5-1.2c-0.7-0.3-1.6-0.5-2.6-0.5c-1.2,0-2.3,0.2-3.2,0.6
				c-0.9,0.4-1.6,1-2.1,1.8c-0.4,0.8-0.7,1.9-0.7,3.5v9.1h-7.2v-25.2h7.2V298.8z"/>
			<path fill="#FFFFFF" d="M121.4,303.3v-4.5h7.2v4.5H121.4z M121.4,324v-18.2h7.2V324H121.4z"/>
			<path fill="#FFFFFF" d="M150.4,305.8v3.8h-4.9v7.4c0,1.5,0,2.4,0.1,2.6s0.3,0.4,0.6,0.6s0.7,0.2,1.2,0.2c0.7,0,1.6-0.2,2.9-0.5
				l0.6,3.7c-1.7,0.5-3.6,0.7-5.7,0.7c-1.3,0-2.5-0.1-3.5-0.4s-1.8-0.7-2.3-1.1c-0.5-0.5-0.8-1.1-1-1.9c-0.2-0.6-0.2-1.7-0.2-3.4v-8
				h-3.3v-3.8h3.3v-3.6l7.3-2.8v6.4L150.4,305.8L150.4,305.8z"/>
			<path fill="#FFFFFF" d="M173.4,318.2l7.2,0.8c-0.9,1.8-2.4,3.1-4.4,4s-4.5,1.4-7.5,1.4c-4.8,0-8.3-1-10.6-3.1
				c-1.8-1.7-2.7-3.8-2.7-6.3c0-3,1.2-5.4,3.6-7.1c2.4-1.7,5.4-2.6,9-2.6c4.1,0,7.3,0.9,9.6,2.7c2.3,1.8,3.5,4.5,3.4,8.2h-18.1
				c0.1,1.4,0.6,2.5,1.8,3.3c1.1,0.8,2.5,1.2,4.2,1.2c1.1,0,2.1-0.2,2.9-0.6C172.4,319.8,173,319.1,173.4,318.2z M173.8,313.3
				c-0.1-1.4-0.6-2.5-1.6-3.2s-2.3-1.1-3.8-1.1c-1.6,0-2.9,0.4-3.9,1.1c-1,0.8-1.5,1.8-1.5,3.1L173.8,313.3L173.8,313.3z"/>
			<path fill="#FFFFFF" d="M199.8,305.8v3.8h-4.9v7.4c0,1.5,0,2.4,0.1,2.6s0.3,0.4,0.6,0.6s0.7,0.2,1.2,0.2c0.7,0,1.6-0.2,2.9-0.5
				l0.6,3.7c-1.7,0.5-3.6,0.7-5.7,0.7c-1.3,0-2.5-0.1-3.5-0.4s-1.8-0.7-2.3-1.1c-0.5-0.5-0.8-1.1-1-1.9c-0.2-0.6-0.2-1.7-0.2-3.4v-8
				h-3.3v-3.8h3.3v-3.6l7.3-2.8v6.4L199.8,305.8L199.8,305.8z"/>
			<path fill="#FFFFFF" d="M219.5,305.8v3.8h-4.9v7.4c0,1.5,0,2.4,0.1,2.6s0.3,0.4,0.6,0.6s0.7,0.2,1.2,0.2c0.7,0,1.6-0.2,2.9-0.5
				l0.6,3.7c-1.7,0.5-3.6,0.7-5.7,0.7c-1.3,0-2.5-0.1-3.5-0.4s-1.8-0.7-2.3-1.1c-0.5-0.5-0.8-1.1-1-1.9c-0.2-0.6-0.2-1.7-0.2-3.4v-8
				H204v-3.8h3.3v-3.6l7.3-2.8v6.4L219.5,305.8L219.5,305.8z"/>
			<path fill="#FFFFFF" d="M244.7,324v-2.7c-1,1-2.3,1.7-3.9,2.3c-1.6,0.6-3.3,0.8-5.1,0.8s-3.5-0.3-4.9-0.8
				c-1.5-0.5-2.5-1.3-3.2-2.3s-1-2.3-1-4v-11.5h7.2v8.4c0,2.6,0.1,4.1,0.4,4.7c0.3,0.6,0.7,1,1.5,1.4c0.7,0.3,1.6,0.5,2.7,0.5
				c1.2,0,2.3-0.2,3.3-0.7s1.6-1,2-1.7s0.5-2.3,0.5-4.9v-7.7h7.2V324H244.7L244.7,324z"/>
			<path fill="#FFFFFF" d="M266.5,324h-7.2v-18.2h6.7v2.6c1.1-1.2,2.2-2,3.1-2.4s2-0.6,3.1-0.6c1.6,0,3.2,0.3,4.8,0.9l-2.2,4.2
				c-1.2-0.5-2.3-0.8-3.4-0.8c-1,0-1.9,0.2-2.6,0.6s-1.3,1-1.7,2c-0.4,1-0.6,3-0.6,6.1L266.5,324L266.5,324z"/>
			<path fill="#FFFFFF" d="M288.1,311.3l-6.6-0.8c0.7-1.8,2-3.1,3.8-3.9s4.5-1.3,8-1.3c3.2,0,5.6,0.3,7.2,0.8s2.7,1.2,3.3,1.9
				c0.6,0.8,1,2.2,1,4.3l-0.1,5.6c0,1.6,0.1,2.8,0.4,3.5c0.2,0.8,0.7,1.6,1.3,2.5h-7.2c-0.2-0.3-0.4-0.8-0.7-1.4
				c-0.1-0.3-0.2-0.5-0.3-0.6c-1.2,0.8-2.6,1.4-4,1.8s-2.9,0.6-4.5,0.6c-2.8,0-5-0.5-6.7-1.5c-1.6-1-2.4-2.3-2.4-3.9
				c0-1,0.4-1.9,1.1-2.8c0.7-0.8,1.8-1.4,3.1-1.9c1.3-0.4,3.2-0.8,5.8-1.1c3.4-0.4,5.7-0.8,7-1.2v-0.5c0-0.9-0.3-1.6-1-2
				s-2-0.6-3.9-0.6c-1.3,0-2.3,0.2-3,0.5C289.1,309.9,288.5,310.5,288.1,311.3z M297.7,315.3c-0.9,0.2-2.4,0.5-4.4,0.7
				c-2,0.3-3.3,0.6-3.9,0.8c-0.9,0.4-1.4,1-1.4,1.7s0.4,1.3,1.1,1.8c0.8,0.5,1.7,0.7,2.9,0.7c1.3,0,2.6-0.3,3.7-0.9
				c0.9-0.4,1.4-1,1.7-1.6c0.2-0.4,0.3-1.2,0.3-2.4L297.7,315.3L297.7,315.3z"/>
			<path fill="#FFFFFF" d="M353.8,324h-6.7v-2.7c-1.1,1-2.4,1.8-4,2.3c-1.5,0.5-3,0.8-4.6,0.8c-3.1,0-5.8-0.8-8.1-2.5
				c-2.2-1.7-3.4-4-3.4-7.1s1.1-5.4,3.3-7.1c2.2-1.6,4.9-2.4,8.3-2.4c3.1,0,5.7,0.9,7.9,2.5v-9.1h7.2L353.8,324L353.8,324z
				 M334.5,314.5c0,1.9,0.4,3.4,1.2,4.2c1.2,1.3,2.8,1.9,4.9,1.9c1.7,0,3.1-0.5,4.2-1.4c1.2-0.9,1.8-2.4,1.8-4.2
				c0-2.1-0.6-3.6-1.7-4.5s-2.6-1.4-4.3-1.4c-1.7,0-3.2,0.5-4.3,1.4C335.1,311.3,334.5,312.7,334.5,314.5z"/>
			<path fill="#FFFFFF" d="M377.5,318.2l7.2,0.8c-0.9,1.8-2.4,3.1-4.4,4s-4.5,1.4-7.5,1.4c-4.8,0-8.3-1-10.6-3.1
				c-1.8-1.7-2.7-3.8-2.7-6.3c0-3,1.2-5.4,3.6-7.1s5.4-2.6,9-2.6c4.1,0,7.3,0.9,9.6,2.7c2.3,1.8,3.5,4.5,3.4,8.2H367
				c0.1,1.4,0.6,2.5,1.8,3.3c1.1,0.8,2.5,1.2,4.2,1.2c1.1,0,2.1-0.2,2.9-0.6C376.5,319.8,377.1,319.1,377.5,318.2z M377.9,313.3
				c-0.1-1.4-0.6-2.5-1.6-3.2s-2.3-1.1-3.8-1.1c-1.6,0-2.9,0.4-3.9,1.1c-1,0.8-1.5,1.8-1.5,3.1L377.9,313.3L377.9,313.3z"/>
			<path fill="#FFFFFF" d="M393.9,325.2l8.3,0.7c0.1,0.6,0.5,1.1,1,1.3c0.7,0.3,1.8,0.5,3.2,0.5c1.9,0,3.3-0.2,4.2-0.6
				c0.6-0.3,1.1-0.7,1.4-1.2c0.2-0.4,0.3-1.1,0.3-2.2V321c-2.2,2-4.9,3-8.2,3c-3.7,0-6.6-1-8.7-3.1c-1.7-1.6-2.5-3.7-2.5-6.1
				c0-3.1,1.1-5.4,3.3-7c2.2-1.6,4.9-2.4,8.2-2.4c3.4,0,6.2,1,8.4,3v-2.6h6.8v16.4c0,2.2-0.3,3.8-0.8,4.8c-0.5,1.1-1.3,1.9-2.2,2.5
				c-1,0.6-2.2,1.1-3.8,1.4c-1.6,0.3-3.6,0.5-6.1,0.5c-4.6,0-7.9-0.5-9.9-1.6c-1.9-1.1-2.9-2.4-2.9-4
				C393.9,325.7,393.9,325.5,393.9,325.2z M400.4,314.5c0,1.9,0.6,3.4,1.7,4.3s2.5,1.3,4.2,1.3c1.8,0,3.3-0.5,4.5-1.4
				s1.8-2.3,1.8-4.1c0-1.9-0.6-3.3-1.8-4.2c-1.2-0.9-2.6-1.4-4.4-1.4c-1.7,0-3.2,0.4-4.3,1.3S400.4,312.7,400.4,314.5z"/>
			<path fill="#FFFFFF" d="M427.5,324v-25.2h7.2V324H427.5z"/>
			<path fill="#FFFFFF" d="M444,303.3v-4.5h7.2v4.5H444z M444,324v-18.2h7.2V324H444z"/>
			<path fill="#FFFFFF" d="M473.6,303.3v-4.5h7.2v4.5H473.6z M473.6,324v-18.2h7.2V324H473.6z"/>
			<path fill="#FFFFFF" d="M515,324h-7.2v-9.3c0-2-0.2-3.2-0.5-3.8c-0.3-0.6-0.8-1-1.5-1.3s-1.5-0.5-2.5-0.5c-1.3,0-2.4,0.2-3.4,0.7
				s-1.7,1.1-2,1.8c-0.4,0.8-0.6,2.2-0.6,4.2v8.3H490v-18.2h6.7v2.7c2.4-2.1,5.4-3.1,9-3.1c1.6,0,3.1,0.2,4.4,0.6s2.3,0.9,3,1.5
				c0.7,0.6,1.2,1.3,1.4,2c0.3,0.8,0.4,1.8,0.4,3.2L515,324L515,324z"/>
			<path fill="#FFFFFF" d="M538.8,305.8v3.8h-4.9v7.4c0,1.5,0,2.4,0.1,2.6s0.3,0.4,0.6,0.6s0.7,0.2,1.2,0.2c0.7,0,1.6-0.2,2.9-0.5
				l0.6,3.7c-1.7,0.5-3.6,0.7-5.7,0.7c-1.3,0-2.5-0.1-3.5-0.4s-1.8-0.7-2.3-1.1c-0.5-0.5-0.8-1.1-1-1.9c-0.2-0.6-0.2-1.7-0.2-3.4v-8
				h-3.3v-3.8h3.3v-3.6l7.3-2.8v6.4L538.8,305.8L538.8,305.8z"/>
			<path fill="#FFFFFF" d="M558.6,318.2l7.2,0.8c-0.9,1.8-2.4,3.1-4.4,4s-4.5,1.4-7.5,1.4c-4.8,0-8.3-1-10.6-3.1
				c-1.8-1.7-2.7-3.8-2.7-6.3c0-3,1.2-5.4,3.6-7.1c2.4-1.7,5.4-2.6,9-2.6c4.1,0,7.3,0.9,9.6,2.7c2.3,1.8,3.5,4.5,3.4,8.2h-18.1
				c0.1,1.4,0.6,2.5,1.8,3.3c1.1,0.8,2.5,1.2,4.2,1.2c1.1,0,2.1-0.2,2.9-0.6C557.7,319.8,558.2,319.1,558.6,318.2z M559,313.3
				c-0.1-1.4-0.6-2.5-1.6-3.2s-2.3-1.1-3.8-1.1c-1.6,0-2.9,0.4-3.9,1.1c-1,0.8-1.5,1.8-1.5,3.1L559,313.3L559,313.3z"/>
			<path fill="#FFFFFF" d="M582.6,324h-7.2v-18.2h6.7v2.6c1.2-1.2,2.2-2,3.1-2.4c0.9-0.4,2-0.6,3.1-0.6c1.6,0,3.2,0.3,4.8,0.9
				l-2.2,4.2c-1.2-0.5-2.3-0.8-3.4-0.8c-1,0-1.9,0.2-2.6,0.6c-0.7,0.4-1.3,1-1.7,2s-0.6,3-0.6,6.1L582.6,324L582.6,324z"/>
			<path fill="#FFFFFF" d="M620.4,324h-7.2v-9.3c0-2-0.2-3.2-0.5-3.8c-0.3-0.6-0.8-1-1.5-1.3s-1.5-0.5-2.5-0.5
				c-1.3,0-2.4,0.2-3.4,0.7s-1.7,1.1-2,1.8c-0.4,0.8-0.6,2.2-0.6,4.2v8.3h-7.2v-18.2h6.7v2.7c2.4-2.1,5.4-3.1,9-3.1
				c1.6,0,3.1,0.2,4.4,0.6c1.3,0.4,2.3,0.9,3,1.5s1.2,1.3,1.4,2c0.3,0.8,0.4,1.8,0.4,3.2L620.4,324L620.4,324z"/>
			<path fill="#FFFFFF" d="M631.7,303.3v-4.5h7.2v4.5H631.7z M631.7,324v-18.2h7.2V324H631.7z"/>
		</g>
	</g>
</g>
</svg>
