<?xml version="1.0" encoding="utf-8"?>
<!-- Generator: Adobe Illustrator 17.1.0, SVG Export Plug-In . SVG Version: 6.00 Build 0)  -->
<!DOCTYPE svg PUBLIC "-//W3C//DTD SVG 1.1//EN" "http://www.w3.org/Graphics/SVG/1.1/DTD/svg11.dtd">
<svg version="1.1" id="Layer_1" xmlns="http://www.w3.org/2000/svg" xmlns:xlink="http://www.w3.org/1999/xlink" x="0px" y="0px"
	 viewBox="0 226 640 180" enable-background="new 0 226 640 180" xml:space="preserve">
<g id="Layer_1_1_" display="none">
	<g display="inline">
		<rect x="507.5" y="148.6" fill="#706F6F" width="132.2" height="33.4"/>
		<text transform="matrix(1.5002 0 0 1 511.3046 173.2539)" fill="#FFFFFF" font-family="'ArialMT'" font-size="24.3163">via sicilia</text>
		<g>
			<g>
				<path d="M0.5,195.8h24v8.7c3.5-3.6,6.9-6.2,10.5-7.7c3.5-1.5,7.8-2.3,12.7-2.3c5.3,0,9.6,0.8,12.7,2.5s5.7,4.2,7.6,7.5
					c4-3.9,7.7-6.5,11-7.9s7.4-2.1,12.3-2.1c7.2,0,12.8,1.9,16.8,5.7s6,9.7,6,17.7v37.2H88.4v-33.8c0-2.7-0.6-4.7-1.8-6
					c-1.7-2-3.9-3.1-6.4-3.1c-3,0-5.4,1-7.3,2.9c-1.8,1.9-2.8,5-2.8,9.3V255H44.4v-32.7c0-2.6-0.2-4.4-0.5-5.3
					c-0.5-1.5-1.5-2.7-2.8-3.6c-1.4-0.9-2.9-1.4-4.7-1.4c-3,0-5.4,1-7.3,3s-2.8,5.2-2.8,9.7V255H0.5V195.8z"/>
				<path d="M118.9,225.7c0-9,3.4-16.5,10.3-22.4s16.2-8.8,27.9-8.8c13.4,0,23.5,3.4,30.4,10.3c5.5,5.5,8.3,12.4,8.3,20.5
					c0,9.1-3.4,16.6-10.2,22.4c-6.8,5.8-16.3,8.7-28.3,8.7c-10.8,0-19.5-2.4-26.1-7.3C123,243.2,118.9,235.4,118.9,225.7z
					 M144.7,225.6c0,5.3,1.2,9.2,3.6,11.7c2.4,2.5,5.5,3.8,9.1,3.8c3.7,0,6.7-1.2,9.1-3.7c2.4-2.5,3.6-6.5,3.6-12
					c0-5.1-1.2-9-3.6-11.5c-2.4-2.5-5.4-3.8-8.9-3.8c-3.7,0-6.8,1.3-9.3,3.8C145.9,216.5,144.7,220.4,144.7,225.6z"/>
				<path d="M199.3,173.3h25.9v28.4c2.6-2.4,5.5-4.2,8.7-5.4c3.3-1.2,6.9-1.8,10.8-1.8c8.2,0,14.9,2.6,20.2,7.8s8,12.6,8,22.4
					c0,6.5-1.2,12.2-3.7,17.1c-2.4,4.9-5.8,8.6-10.1,11.1c-4.3,2.4-9.1,3.7-14.3,3.7c-4.5,0-8.6-0.9-12.4-2.6
					c-2.8-1.3-5.9-3.9-9.2-7.5v8.8h-24L199.3,173.3L199.3,173.3z M225,225.3c0,5.1,1.1,8.8,3.2,11.1c2.2,2.3,4.9,3.4,8.2,3.4
					c3.1,0,5.6-1.1,7.7-3.4c2.1-2.3,3.1-6,3.1-11.4c0-4.7-1-8.1-3.1-10.3c-2-2.2-4.5-3.3-7.4-3.3c-3.5,0-6.3,1.1-8.5,3.4
					C226.1,217.2,225,220.7,225,225.3z"/>
				<path d="M277.2,173.3h25.7v15.5h-25.7V173.3z M277.2,195.8h25.7v59.3h-25.7V195.8z"/>
				<path d="M312,173.3h25.7v81.9H312V173.3z"/>
				<path d="M346,195.8h23.9v9.7c3.6-3.9,7.2-6.8,10.8-8.5s8.1-2.5,13.4-2.5c7.1,0,12.7,1.9,16.7,5.6c4,3.7,6,9.5,6,17.3v37.7H391
					v-32.6c0-3.7-0.8-6.4-2.3-7.9c-1.6-1.5-3.7-2.3-6.6-2.3c-3.1,0-5.6,1-7.6,3.1c-1.9,2.1-2.9,5.8-2.9,11.2v28.5H346V195.8
					L346,195.8z"/>
				<path d="M422.4,225.7c0-9,3.4-16.5,10.3-22.4s16.2-8.8,27.9-8.8c13.4,0,23.5,3.4,30.4,10.3c5.5,5.5,8.3,12.4,8.3,20.5
					c0,9.1-3.4,16.6-10.2,22.4c-6.8,5.8-16.3,8.7-28.3,8.7c-10.8,0-19.5-2.4-26.1-7.3C426.5,243.2,422.4,235.4,422.4,225.7z
					 M448.1,225.6c0,5.3,1.2,9.2,3.6,11.7s5.5,3.8,9.1,3.8c3.7,0,6.7-1.2,9.1-3.7s3.6-6.5,3.6-12c0-5.1-1.2-9-3.6-11.5
					s-5.4-3.8-8.9-3.8c-3.7,0-6.8,1.3-9.3,3.8C449.3,216.5,448.1,220.4,448.1,225.6z"/>
				<path d="M490,195.8h26.7l13,37.6l13.5-37.6h25.9l-28.5,59.3h-22.8L490,195.8z"/>
				<path d="M561.6,225.7c0-9,3.4-16.5,10.3-22.4c6.9-5.9,16.2-8.8,27.9-8.8c13.4,0,23.5,3.4,30.4,10.3c5.5,5.5,8.3,12.4,8.3,20.5
					c0,9.1-3.4,16.6-10.2,22.4c-6.8,5.8-16.3,8.7-28.3,8.7c-10.8,0-19.5-2.4-26.1-7.3C565.7,243.2,561.6,235.4,561.6,225.7z
					 M587.3,225.6c0,5.3,1.2,9.2,3.6,11.7c2.4,2.5,5.5,3.8,9.1,3.8c3.7,0,6.7-1.2,9.1-3.7c2.4-2.5,3.6-6.5,3.6-12
					c0-5.1-1.2-9-3.6-11.5c-2.4-2.5-5.4-3.8-8.9-3.8c-3.7,0-6.8,1.3-9.3,3.8C588.5,216.5,587.3,220.4,587.3,225.6z"/>
			</g>
			<rect x="0.3" y="273.3" fill="#E4371E" width="637.3" height="11"/>
			<rect x="0.3" y="273.3" fill="#E30613" width="637.3" height="11"/>
			<g>
				<path d="M8.3,311.3l-6.6-0.8c0.7-1.8,2-3.1,3.8-3.9s4.5-1.3,8-1.3c3.2,0,5.6,0.3,7.2,0.8s2.7,1.2,3.3,1.9c0.6,0.8,1,2.2,1,4.3
					v5.7c0,1.6,0.1,2.8,0.3,3.5c0.2,0.8,0.7,1.6,1.3,2.5h-7.2c-0.2-0.3-0.4-0.8-0.7-1.4c-0.1-0.3-0.2-0.5-0.3-0.6
					c-1.2,0.8-2.6,1.4-4,1.8s-2.9,0.6-4.5,0.6c-2.8,0-5-0.5-6.7-1.5c-1.6-1-2.4-2.3-2.4-3.9c0-1,0.4-1.9,1.1-2.8
					c0.7-0.8,1.8-1.4,3.1-1.9c1.3-0.4,3.2-0.8,5.8-1.1c3.4-0.4,5.7-0.8,7-1.2v-0.5c0-0.9-0.3-1.6-1-2s-2-0.6-3.9-0.6
					c-1.3,0-2.3,0.2-3,0.5C9.3,309.9,8.7,310.5,8.3,311.3z M18,315.3c-0.9,0.2-2.4,0.5-4.4,0.7c-2,0.3-3.3,0.6-3.9,0.8
					c-0.9,0.4-1.4,1-1.4,1.7s0.4,1.3,1.1,1.8c0.8,0.5,1.7,0.7,2.9,0.7c1.3,0,2.5-0.3,3.7-0.9c0.9-0.4,1.5-1,1.7-1.6
					c0.2-0.4,0.3-1.2,0.3-2.4C18,316.1,18,315.3,18,315.3z"/>
				<path d="M42.7,324h-7.2v-18.2h6.7v2.6c1.1-1.2,2.2-2,3.1-2.4c0.9-0.4,2-0.6,3.1-0.6c1.6,0,3.2,0.3,4.8,0.9l-2.2,4.2
					c-1.2-0.5-2.3-0.8-3.4-0.8c-1,0-1.9,0.2-2.6,0.6c-0.7,0.4-1.3,1-1.7,2s-0.6,3-0.6,6.1C42.7,318.4,42.7,324,42.7,324z"/>
				<path d="M82.7,311.2l-7.1,0.9c-0.2-1-0.8-1.7-1.6-2.1c-0.9-0.5-2-0.7-3.3-0.7c-1.8,0-3.2,0.4-4.3,1.2c-1.1,0.8-1.6,2.2-1.6,4.2
					c0,2.2,0.5,3.7,1.6,4.6s2.6,1.3,4.4,1.3c1.4,0,2.5-0.3,3.4-0.8s1.5-1.4,1.9-2.7l7.1,0.8c-0.7,2.2-2.2,3.8-4.2,4.9
					c-2.1,1.1-4.9,1.7-8.4,1.7c-4,0-7.2-0.8-9.6-2.5c-2.4-1.7-3.6-4-3.6-7s1.2-5.4,3.6-7c2.4-1.7,5.6-2.5,9.7-2.5
					c3.3,0,6,0.5,7.9,1.4C80.4,307.8,81.8,309.2,82.7,311.2z"/>
				<path d="M95.7,298.8v9.3c2.3-1.8,5.1-2.7,8.4-2.7c1.7,0,3.2,0.2,4.5,0.6s2.3,0.9,3,1.6c0.7,0.6,1.1,1.4,1.4,2.1
					c0.2,0.8,0.4,2,0.4,3.6V324h-7.2v-9.6c0-1.9-0.1-3.1-0.4-3.6s-0.8-0.9-1.5-1.2c-0.7-0.3-1.6-0.5-2.6-0.5c-1.2,0-2.3,0.2-3.2,0.6
					c-0.9,0.4-1.6,1-2.1,1.8c-0.4,0.8-0.7,1.9-0.7,3.5v9.1h-7.2v-25.2h7.2V298.8z"/>
				<path d="M121.4,303.3v-4.5h7.2v4.5H121.4z M121.4,324v-18.2h7.2V324H121.4z"/>
				<path d="M150.4,305.8v3.8h-4.9v7.4c0,1.5,0,2.4,0.1,2.6s0.3,0.4,0.6,0.6s0.7,0.2,1.2,0.2c0.7,0,1.6-0.2,2.9-0.5l0.6,3.7
					c-1.7,0.5-3.6,0.7-5.7,0.7c-1.3,0-2.5-0.1-3.5-0.4s-1.8-0.7-2.3-1.1c-0.5-0.5-0.8-1.1-1-1.9c-0.2-0.6-0.2-1.7-0.2-3.4v-8h-3.3
					v-3.8h3.3v-3.6l7.3-2.8v6.4L150.4,305.8L150.4,305.8z"/>
				<path d="M173.4,318.2l7.2,0.8c-0.9,1.8-2.4,3.1-4.4,4s-4.5,1.4-7.5,1.4c-4.8,0-8.3-1-10.6-3.1c-1.8-1.7-2.7-3.8-2.7-6.3
					c0-3,1.2-5.4,3.6-7.1c2.4-1.7,5.4-2.6,9-2.6c4.1,0,7.3,0.9,9.6,2.7c2.3,1.8,3.5,4.5,3.4,8.2h-18.1c0.1,1.4,0.6,2.5,1.8,3.3
					c1.1,0.8,2.5,1.2,4.2,1.2c1.1,0,2.1-0.2,2.9-0.6C172.4,319.8,173,319.1,173.4,318.2z M173.8,313.3c-0.1-1.4-0.6-2.5-1.6-3.2
					s-2.3-1.1-3.8-1.1c-1.6,0-2.9,0.4-3.9,1.1c-1,0.8-1.5,1.8-1.5,3.1L173.8,313.3L173.8,313.3z"/>
				<path d="M199.8,305.8v3.8h-4.9v7.4c0,1.5,0,2.4,0.1,2.6s0.3,0.4,0.6,0.6s0.7,0.2,1.2,0.2c0.7,0,1.6-0.2,2.9-0.5l0.6,3.7
					c-1.7,0.5-3.6,0.7-5.7,0.7c-1.3,0-2.5-0.1-3.5-0.4s-1.8-0.7-2.3-1.1c-0.5-0.5-0.8-1.1-1-1.9c-0.2-0.6-0.2-1.7-0.2-3.4v-8h-3.3
					v-3.8h3.3v-3.6l7.3-2.8v6.4L199.8,305.8L199.8,305.8z"/>
				<path d="M219.5,305.8v3.8h-4.9v7.4c0,1.5,0,2.4,0.1,2.6s0.3,0.4,0.6,0.6s0.7,0.2,1.2,0.2c0.7,0,1.6-0.2,2.9-0.5l0.6,3.7
					c-1.7,0.5-3.6,0.7-5.7,0.7c-1.3,0-2.5-0.1-3.5-0.4s-1.8-0.7-2.3-1.1c-0.5-0.5-0.8-1.1-1-1.9c-0.2-0.6-0.2-1.7-0.2-3.4v-8H204
					v-3.8h3.3v-3.6l7.3-2.8v6.4L219.5,305.8L219.5,305.8z"/>
				<path d="M244.7,324v-2.7c-1,1-2.3,1.7-3.9,2.3c-1.6,0.6-3.3,0.8-5.1,0.8s-3.5-0.3-4.9-0.8c-1.5-0.5-2.5-1.3-3.2-2.3s-1-2.3-1-4
					v-11.5h7.2v8.4c0,2.6,0.1,4.1,0.4,4.7c0.3,0.6,0.7,1,1.5,1.4c0.7,0.3,1.6,0.5,2.7,0.5c1.2,0,2.3-0.2,3.3-0.7s1.6-1,2-1.7
					s0.5-2.3,0.5-4.9v-7.7h7.2V324H244.7L244.7,324z"/>
				<path d="M266.5,324h-7.2v-18.2h6.7v2.6c1.1-1.2,2.2-2,3.1-2.4s2-0.6,3.1-0.6c1.6,0,3.2,0.3,4.8,0.9l-2.2,4.2
					c-1.2-0.5-2.3-0.8-3.4-0.8c-1,0-1.9,0.2-2.6,0.6s-1.3,1-1.7,2c-0.4,1-0.6,3-0.6,6.1L266.5,324L266.5,324z"/>
				<path d="M288.1,311.3l-6.6-0.8c0.7-1.8,2-3.1,3.8-3.9s4.5-1.3,8-1.3c3.2,0,5.6,0.3,7.2,0.8s2.7,1.2,3.3,1.9c0.6,0.8,1,2.2,1,4.3
					l-0.1,5.6c0,1.6,0.1,2.8,0.4,3.5c0.2,0.8,0.7,1.6,1.3,2.5h-7.2c-0.2-0.3-0.4-0.8-0.7-1.4c-0.1-0.3-0.2-0.5-0.3-0.6
					c-1.2,0.8-2.6,1.4-4,1.8s-2.9,0.6-4.5,0.6c-2.8,0-5-0.5-6.7-1.5c-1.6-1-2.4-2.3-2.4-3.9c0-1,0.4-1.9,1.1-2.8
					c0.7-0.8,1.8-1.4,3.1-1.9c1.3-0.4,3.2-0.8,5.8-1.1c3.4-0.4,5.7-0.8,7-1.2v-0.5c0-0.9-0.3-1.6-1-2s-2-0.6-3.9-0.6
					c-1.3,0-2.3,0.2-3,0.5C289.1,309.9,288.5,310.5,288.1,311.3z M297.7,315.3c-0.9,0.2-2.4,0.5-4.4,0.7c-2,0.3-3.3,0.6-3.9,0.8
					c-0.9,0.4-1.4,1-1.4,1.7s0.4,1.3,1.1,1.8c0.8,0.5,1.7,0.7,2.9,0.7c1.3,0,2.6-0.3,3.7-0.9c0.9-0.4,1.4-1,1.7-1.6
					c0.2-0.4,0.3-1.2,0.3-2.4L297.7,315.3L297.7,315.3z"/>
				<path d="M353.8,324h-6.7v-2.7c-1.1,1-2.4,1.8-4,2.3c-1.5,0.5-3,0.8-4.6,0.8c-3.1,0-5.8-0.8-8.1-2.5c-2.2-1.7-3.4-4-3.4-7.1
					s1.1-5.4,3.3-7.1c2.2-1.6,4.9-2.4,8.3-2.4c3.1,0,5.7,0.9,7.9,2.5v-9.1h7.2L353.8,324L353.8,324z M334.5,314.5
					c0,1.9,0.4,3.4,1.2,4.2c1.2,1.3,2.8,1.9,4.9,1.9c1.7,0,3.1-0.5,4.2-1.4c1.2-0.9,1.8-2.4,1.8-4.2c0-2.1-0.6-3.6-1.7-4.5
					s-2.6-1.4-4.3-1.4c-1.7,0-3.2,0.5-4.3,1.4C335.1,311.3,334.5,312.7,334.5,314.5z"/>
				<path d="M377.5,318.2l7.2,0.8c-0.9,1.8-2.4,3.1-4.4,4s-4.5,1.4-7.5,1.4c-4.8,0-8.3-1-10.6-3.1c-1.8-1.7-2.7-3.8-2.7-6.3
					c0-3,1.2-5.4,3.6-7.1s5.4-2.6,9-2.6c4.1,0,7.3,0.9,9.6,2.7c2.3,1.8,3.5,4.5,3.4,8.2H367c0.1,1.4,0.6,2.5,1.8,3.3
					c1.1,0.8,2.5,1.2,4.2,1.2c1.1,0,2.1-0.2,2.9-0.6C376.5,319.8,377.1,319.1,377.5,318.2z M377.9,313.3c-0.1-1.4-0.6-2.5-1.6-3.2
					s-2.3-1.1-3.8-1.1c-1.6,0-2.9,0.4-3.9,1.1c-1,0.8-1.5,1.8-1.5,3.1L377.9,313.3L377.9,313.3z"/>
				<path d="M393.9,325.2l8.3,0.7c0.1,0.6,0.5,1.1,1,1.3c0.7,0.3,1.8,0.5,3.2,0.5c1.9,0,3.3-0.2,4.2-0.6c0.6-0.3,1.1-0.7,1.4-1.2
					c0.2-0.4,0.3-1.1,0.3-2.2V321c-2.2,2-4.9,3-8.2,3c-3.7,0-6.6-1-8.7-3.1c-1.7-1.6-2.5-3.7-2.5-6.1c0-3.1,1.1-5.4,3.3-7
					c2.2-1.6,4.9-2.4,8.2-2.4c3.4,0,6.2,1,8.4,3v-2.6h6.8v16.4c0,2.2-0.3,3.8-0.8,4.8c-0.5,1.1-1.3,1.9-2.2,2.5
					c-1,0.6-2.2,1.1-3.8,1.4c-1.6,0.3-3.6,0.5-6.1,0.5c-4.6,0-7.9-0.5-9.9-1.6c-1.9-1.1-2.9-2.4-2.9-4
					C393.9,325.7,393.9,325.5,393.9,325.2z M400.4,314.5c0,1.9,0.6,3.4,1.7,4.3s2.5,1.3,4.2,1.3c1.8,0,3.3-0.5,4.5-1.4
					s1.8-2.3,1.8-4.1c0-1.9-0.6-3.3-1.8-4.2c-1.2-0.9-2.6-1.4-4.4-1.4c-1.7,0-3.2,0.4-4.3,1.3S400.4,312.7,400.4,314.5z"/>
				<path d="M427.5,324v-25.2h7.2V324H427.5z"/>
				<path d="M444,303.3v-4.5h7.2v4.5H444z M444,324v-18.2h7.2V324H444z"/>
				<path d="M473.6,303.3v-4.5h7.2v4.5H473.6z M473.6,324v-18.2h7.2V324H473.6z"/>
				<path d="M515,324h-7.2v-9.3c0-2-0.2-3.2-0.5-3.8c-0.3-0.6-0.8-1-1.5-1.3s-1.5-0.5-2.5-0.5c-1.3,0-2.4,0.2-3.4,0.7
					s-1.7,1.1-2,1.8c-0.4,0.8-0.6,2.2-0.6,4.2v8.3H490v-18.2h6.7v2.7c2.4-2.1,5.4-3.1,9-3.1c1.6,0,3.1,0.2,4.4,0.6s2.3,0.9,3,1.5
					c0.7,0.6,1.2,1.3,1.4,2c0.3,0.8,0.4,1.8,0.4,3.2L515,324L515,324z"/>
				<path d="M538.8,305.8v3.8h-4.9v7.4c0,1.5,0,2.4,0.1,2.6s0.3,0.4,0.6,0.6s0.7,0.2,1.2,0.2c0.7,0,1.6-0.2,2.9-0.5l0.6,3.7
					c-1.7,0.5-3.6,0.7-5.7,0.7c-1.3,0-2.5-0.1-3.5-0.4s-1.8-0.7-2.3-1.1c-0.5-0.5-0.8-1.1-1-1.9c-0.2-0.6-0.2-1.7-0.2-3.4v-8h-3.3
					v-3.8h3.3v-3.6l7.3-2.8v6.4L538.8,305.8L538.8,305.8z"/>
				<path d="M558.6,318.2l7.2,0.8c-0.9,1.8-2.4,3.1-4.4,4s-4.5,1.4-7.5,1.4c-4.8,0-8.3-1-10.6-3.1c-1.8-1.7-2.7-3.8-2.7-6.3
					c0-3,1.2-5.4,3.6-7.1c2.4-1.7,5.4-2.6,9-2.6c4.1,0,7.3,0.9,9.6,2.7c2.3,1.8,3.5,4.5,3.4,8.2h-18.1c0.1,1.4,0.6,2.5,1.8,3.3
					c1.1,0.8,2.5,1.2,4.2,1.2c1.1,0,2.1-0.2,2.9-0.6C557.7,319.8,558.2,319.1,558.6,318.2z M559,313.3c-0.1-1.4-0.6-2.5-1.6-3.2
					s-2.3-1.1-3.8-1.1c-1.6,0-2.9,0.4-3.9,1.1c-1,0.8-1.5,1.8-1.5,3.1L559,313.3L559,313.3z"/>
				<path d="M582.6,324h-7.2v-18.2h6.7v2.6c1.2-1.2,2.2-2,3.1-2.4c0.9-0.4,2-0.6,3.1-0.6c1.6,0,3.2,0.3,4.8,0.9l-2.2,4.2
					c-1.2-0.5-2.3-0.8-3.4-0.8c-1,0-1.9,0.2-2.6,0.6c-0.7,0.4-1.3,1-1.7,2s-0.6,3-0.6,6.1L582.6,324L582.6,324z"/>
				<path d="M620.4,324h-7.2v-9.3c0-2-0.2-3.2-0.5-3.8c-0.3-0.6-0.8-1-1.5-1.3s-1.5-0.5-2.5-0.5c-1.3,0-2.4,0.2-3.4,0.7
					s-1.7,1.1-2,1.8c-0.4,0.8-0.6,2.2-0.6,4.2v8.3h-7.2v-18.2h6.7v2.7c2.4-2.1,5.4-3.1,9-3.1c1.6,0,3.1,0.2,4.4,0.6
					c1.3,0.4,2.3,0.9,3,1.5s1.2,1.3,1.4,2c0.3,0.8,0.4,1.8,0.4,3.2L620.4,324L620.4,324z"/>
				<path d="M631.7,303.3v-4.5h7.2v4.5H631.7z M631.7,324v-18.2h7.2V324H631.7z"/>
			</g>
		</g>
	</g>
</g>
<g id="Layer_2">
	<g>
		<g enable-background="new    ">
			<path fill="#FFFFFF" d="M403.103,247.841l-7.079-12.403h3.329l3.995,7.428c0.432,0.802,0.829,1.635,1.191,2.499
				c0.28-0.653,0.672-1.44,1.174-2.358l4.135-7.568h3.242l-7.044,12.403H403.103z"/>
			<path fill="#FFFFFF" d="M415.893,233.137v-2.417h3.154v2.417H415.893z M415.893,247.841v-12.403h3.154v12.403H415.893z"/>
			<path fill="#FFFFFF" d="M435.991,246.311c-1.169,0.662-2.293,1.129-3.373,1.401c-1.081,0.272-2.24,0.409-3.479,0.409
				c-2.044,0-3.615-0.333-4.713-0.999c-1.098-0.665-1.646-1.516-1.646-2.552c0-0.607,0.207-1.162,0.622-1.664
				c0.414-0.502,0.957-0.905,1.629-1.209s1.428-0.533,2.27-0.689c0.618-0.108,1.553-0.214,2.803-0.314
				c2.547-0.203,4.421-0.444,5.624-0.724c0.012-0.288,0.018-0.471,0.018-0.549c0-0.856-0.298-1.459-0.894-1.81
				c-0.806-0.475-2.003-0.712-3.592-0.712c-1.483,0-2.578,0.173-3.285,0.52c-0.706,0.347-1.229,0.96-1.567,1.84l-3.084-0.28
				c0.28-0.88,0.741-1.59,1.384-2.132c0.643-0.541,1.571-0.958,2.786-1.25s2.622-0.438,4.223-0.438c1.588,0,2.879,0.125,3.872,0.374
				c0.992,0.25,1.723,0.563,2.19,0.94c0.467,0.378,0.794,0.854,0.98,1.431c0.105,0.358,0.158,1.004,0.158,1.939v2.803
				c0,1.954,0.067,3.19,0.201,3.708c0.135,0.518,0.4,1.015,0.798,1.489h-3.294C436.294,247.404,436.084,246.895,435.991,246.311z
				 M435.727,241.615c-1.145,0.312-2.861,0.576-5.15,0.795c-1.297,0.124-2.214,0.265-2.751,0.42
				c-0.537,0.156-0.952,0.384-1.244,0.684s-0.438,0.633-0.438,0.998c0,0.561,0.318,1.028,0.955,1.401
				c0.637,0.374,1.568,0.561,2.795,0.561c1.215,0,2.295-0.177,3.241-0.531c0.946-0.354,1.641-0.839,2.085-1.454
				c0.339-0.475,0.508-1.175,0.508-2.102V241.615z"/>
			<path fill="#FFFFFF" d="M465.917,246.311c-1.169,0.662-2.293,1.129-3.373,1.401c-1.081,0.272-2.24,0.409-3.479,0.409
				c-2.044,0-3.615-0.333-4.713-0.999c-1.098-0.665-1.646-1.516-1.646-2.552c0-0.607,0.207-1.162,0.622-1.664
				c0.414-0.502,0.957-0.905,1.629-1.209s1.428-0.533,2.27-0.689c0.618-0.108,1.553-0.214,2.803-0.314
				c2.547-0.203,4.421-0.444,5.624-0.724c0.012-0.288,0.018-0.471,0.018-0.549c0-0.856-0.298-1.459-0.894-1.81
				c-0.806-0.475-2.003-0.712-3.592-0.712c-1.483,0-2.578,0.173-3.285,0.52c-0.706,0.347-1.229,0.96-1.567,1.84l-3.084-0.28
				c0.28-0.88,0.741-1.59,1.384-2.132c0.643-0.541,1.571-0.958,2.786-1.25s2.622-0.438,4.223-0.438c1.588,0,2.879,0.125,3.872,0.374
				c0.992,0.25,1.723,0.563,2.19,0.94c0.467,0.378,0.794,0.854,0.98,1.431c0.105,0.358,0.158,1.004,0.158,1.939v2.803
				c0,1.954,0.067,3.19,0.201,3.708c0.135,0.518,0.4,1.015,0.798,1.489h-3.294C466.22,247.404,466.009,246.895,465.917,246.311z
				 M465.653,241.615c-1.145,0.312-2.861,0.576-5.15,0.795c-1.297,0.124-2.214,0.265-2.751,0.42
				c-0.537,0.156-0.952,0.384-1.244,0.684s-0.438,0.633-0.438,0.998c0,0.561,0.318,1.028,0.955,1.401
				c0.637,0.374,1.568,0.561,2.795,0.561c1.215,0,2.295-0.177,3.241-0.531c0.946-0.354,1.641-0.839,2.085-1.454
				c0.339-0.475,0.508-1.175,0.508-2.102V241.615z"/>
			<path fill="#FFFFFF" d="M473.73,247.841v-12.403h2.839v1.764c1.366-1.362,3.34-2.044,5.922-2.044
				c1.121,0,2.152,0.134,3.093,0.403c0.939,0.269,1.644,0.621,2.111,1.057c0.467,0.436,0.794,0.954,0.98,1.553
				c0.117,0.39,0.176,1.071,0.176,2.043v7.627h-3.154v-7.545c0-0.856-0.122-1.497-0.368-1.921c-0.245-0.424-0.68-0.763-1.305-1.016
				s-1.358-0.38-2.199-0.38c-1.343,0-2.503,0.285-3.478,0.853c-0.976,0.568-1.463,1.646-1.463,3.234v6.774H473.73z"/>
			<path fill="#FFFFFF" d="M505.83,246.311c-1.169,0.662-2.293,1.129-3.373,1.401c-1.081,0.272-2.24,0.409-3.479,0.409
				c-2.044,0-3.615-0.333-4.713-0.999c-1.098-0.665-1.646-1.516-1.646-2.552c0-0.607,0.207-1.162,0.622-1.664
				c0.414-0.502,0.957-0.905,1.629-1.209s1.428-0.533,2.27-0.689c0.618-0.108,1.553-0.214,2.803-0.314
				c2.547-0.203,4.421-0.444,5.624-0.724c0.012-0.288,0.018-0.471,0.018-0.549c0-0.856-0.298-1.459-0.894-1.81
				c-0.806-0.475-2.003-0.712-3.592-0.712c-1.483,0-2.578,0.173-3.285,0.52c-0.706,0.347-1.229,0.96-1.567,1.84l-3.084-0.28
				c0.28-0.88,0.741-1.59,1.384-2.132c0.643-0.541,1.571-0.958,2.786-1.25s2.622-0.438,4.223-0.438c1.588,0,2.879,0.125,3.872,0.374
				c0.992,0.25,1.723,0.563,2.19,0.94c0.467,0.378,0.794,0.854,0.98,1.431c0.105,0.358,0.158,1.004,0.158,1.939v2.803
				c0,1.954,0.067,3.19,0.201,3.708c0.135,0.518,0.4,1.015,0.798,1.489h-3.294C506.133,247.404,505.922,246.895,505.83,246.311z
				 M505.566,241.615c-1.145,0.312-2.861,0.576-5.15,0.795c-1.297,0.124-2.214,0.265-2.751,0.42
				c-0.537,0.156-0.952,0.384-1.244,0.684s-0.438,0.633-0.438,0.998c0,0.561,0.318,1.028,0.955,1.401
				c0.637,0.374,1.568,0.561,2.795,0.561c1.215,0,2.295-0.177,3.241-0.531c0.946-0.354,1.641-0.839,2.085-1.454
				c0.339-0.475,0.508-1.175,0.508-2.102V241.615z"/>
			<path fill="#FFFFFF" d="M512.381,244.139l3.119-0.327c0.175,0.833,0.663,1.472,1.463,1.915c0.8,0.444,1.919,0.666,3.355,0.666
				c1.448,0,2.522-0.196,3.224-0.59s1.052-0.854,1.052-1.384c0-0.476-0.31-0.849-0.929-1.121c-0.433-0.188-1.507-0.425-3.225-0.713
				c-2.312-0.39-3.916-0.726-4.81-1.01s-1.57-0.678-2.032-1.18c-0.461-0.502-0.691-1.057-0.691-1.665
				c0-0.553,0.189-1.064,0.569-1.536c0.379-0.471,0.896-0.862,1.55-1.174c0.491-0.241,1.159-0.446,2.007-0.613
				c0.847-0.167,1.755-0.251,2.725-0.251c1.46,0,2.742,0.14,3.846,0.42s1.918,0.66,2.444,1.139c0.525,0.479,0.888,1.12,1.086,1.921
				l-3.084,0.28c-0.14-0.638-0.546-1.137-1.218-1.495c-0.671-0.358-1.62-0.537-2.847-0.537c-1.448,0-2.482,0.16-3.102,0.479
				s-0.929,0.693-0.929,1.121c0,0.272,0.129,0.518,0.386,0.736c0.257,0.226,0.66,0.413,1.209,0.561
				c0.315,0.078,1.244,0.257,2.786,0.537c2.23,0.396,3.787,0.722,4.669,0.975c0.882,0.254,1.574,0.621,2.076,1.104
				c0.502,0.482,0.754,1.082,0.754,1.798c0,0.701-0.307,1.361-0.92,1.98c-0.613,0.618-1.498,1.098-2.654,1.437
				c-1.156,0.338-2.465,0.508-3.925,0.508c-2.418,0-4.261-0.335-5.528-1.005C513.541,246.447,512.732,245.454,512.381,244.139z"/>
			<path fill="#FFFFFF" d="M538.47,245.96l0.456,1.857c-0.889,0.124-1.683,0.187-2.383,0.187c-1.146,0-2.033-0.121-2.664-0.362
				c-0.63-0.241-1.074-0.559-1.331-0.951c-0.257-0.394-0.386-1.221-0.386-2.482v-7.135h-2.312v-1.635h2.312v-3.072l3.137-1.261
				v4.333h3.171v1.635h-3.171v7.252c0,0.6,0.055,0.985,0.166,1.156s0.292,0.308,0.543,0.409c0.251,0.101,0.61,0.151,1.078,0.151
				C537.437,246.042,537.898,246.015,538.47,245.96z"/>
			<path fill="#FFFFFF" d="M553.697,246.311c-1.169,0.662-2.293,1.129-3.373,1.401c-1.081,0.272-2.24,0.409-3.479,0.409
				c-2.044,0-3.615-0.333-4.713-0.999c-1.098-0.665-1.646-1.516-1.646-2.552c0-0.607,0.207-1.162,0.622-1.664
				c0.414-0.502,0.957-0.905,1.629-1.209s1.428-0.533,2.27-0.689c0.618-0.108,1.553-0.214,2.803-0.314
				c2.547-0.203,4.421-0.444,5.624-0.724c0.012-0.288,0.018-0.471,0.018-0.549c0-0.856-0.298-1.459-0.894-1.81
				c-0.806-0.475-2.003-0.712-3.592-0.712c-1.483,0-2.578,0.173-3.285,0.52c-0.706,0.347-1.229,0.96-1.567,1.84l-3.084-0.28
				c0.28-0.88,0.741-1.59,1.384-2.132c0.643-0.541,1.571-0.958,2.786-1.25s2.622-0.438,4.223-0.438c1.588,0,2.879,0.125,3.872,0.374
				c0.992,0.25,1.723,0.563,2.19,0.94c0.467,0.378,0.794,0.854,0.98,1.431c0.105,0.358,0.158,1.004,0.158,1.939v2.803
				c0,1.954,0.067,3.19,0.201,3.708c0.135,0.518,0.4,1.015,0.798,1.489h-3.294C554.001,247.404,553.79,246.895,553.697,246.311z
				 M553.433,241.615c-1.145,0.312-2.861,0.576-5.15,0.795c-1.297,0.124-2.214,0.265-2.751,0.42
				c-0.537,0.156-0.952,0.384-1.244,0.684s-0.438,0.633-0.438,0.998c0,0.561,0.318,1.028,0.955,1.401
				c0.637,0.374,1.568,0.561,2.795,0.561c1.215,0,2.295-0.177,3.241-0.531c0.946-0.354,1.641-0.839,2.085-1.454
				c0.339-0.475,0.508-1.175,0.508-2.102V241.615z"/>
			<path fill="#FFFFFF" d="M560.249,244.139l3.119-0.327c0.175,0.833,0.663,1.472,1.463,1.915c0.8,0.444,1.919,0.666,3.355,0.666
				c1.448,0,2.522-0.196,3.224-0.59s1.052-0.854,1.052-1.384c0-0.476-0.31-0.849-0.929-1.121c-0.433-0.188-1.507-0.425-3.225-0.713
				c-2.312-0.39-3.916-0.726-4.81-1.01s-1.57-0.678-2.032-1.18c-0.461-0.502-0.691-1.057-0.691-1.665
				c0-0.553,0.189-1.064,0.569-1.536c0.379-0.471,0.896-0.862,1.55-1.174c0.491-0.241,1.159-0.446,2.007-0.613
				c0.847-0.167,1.755-0.251,2.725-0.251c1.46,0,2.742,0.14,3.846,0.42s1.918,0.66,2.444,1.139c0.525,0.479,0.888,1.12,1.086,1.921
				l-3.084,0.28c-0.14-0.638-0.546-1.137-1.218-1.495c-0.671-0.358-1.62-0.537-2.847-0.537c-1.448,0-2.482,0.16-3.102,0.479
				s-0.929,0.693-0.929,1.121c0,0.272,0.129,0.518,0.386,0.736c0.257,0.226,0.66,0.413,1.209,0.561
				c0.315,0.078,1.244,0.257,2.786,0.537c2.23,0.396,3.787,0.722,4.669,0.975c0.882,0.254,1.574,0.621,2.076,1.104
				c0.502,0.482,0.754,1.082,0.754,1.798c0,0.701-0.307,1.361-0.92,1.98c-0.613,0.618-1.498,1.098-2.654,1.437
				c-1.156,0.338-2.465,0.508-3.925,0.508c-2.418,0-4.261-0.335-5.528-1.005C561.408,246.447,560.599,245.454,560.249,244.139z"/>
			<path fill="#FFFFFF" d="M579.47,233.137v-2.417h3.154v2.417H579.47z M579.47,247.841v-12.403h3.154v12.403H579.47z"/>
			<path fill="#FFFFFF" d="M586.251,241.639c0-2.296,0.958-3.998,2.873-5.103c1.601-0.919,3.551-1.378,5.853-1.378
				c2.558,0,4.648,0.559,6.272,1.676c1.623,1.118,2.436,2.661,2.436,4.631c0,1.596-0.359,2.852-1.078,3.767
				c-0.718,0.915-1.764,1.625-3.136,2.131c-1.373,0.507-2.871,0.76-4.494,0.76c-2.604,0-4.711-0.557-6.316-1.67
				C587.053,245.338,586.251,243.733,586.251,241.639z M589.492,241.639c0,1.589,0.52,2.778,1.56,3.568
				c1.039,0.79,2.348,1.186,3.925,1.186c1.565,0,2.867-0.397,3.907-1.191c1.039-0.794,1.56-2.005,1.56-3.632
				c0-1.534-0.523-2.696-1.568-3.486c-1.046-0.791-2.345-1.186-3.898-1.186c-1.577,0-2.886,0.393-3.925,1.18
				C590.011,238.864,589.492,240.051,589.492,241.639z"/>
			<path fill="#FFFFFF" d="M618.332,247.841v-17.122h3.399v17.122H618.332z"/>
			<path fill="#FFFFFF" d="M628.301,247.841v-17.122h3.399v17.122H628.301z"/>
		</g>
		<g>
			<g>
				<path fill="#FFFFFF" d="M6.1,271.285h23.6v8.5c3.4-3.6,6.8-6.1,10.3-7.6s7.6-2.3,12.5-2.3c5.3,0,9.4,0.8,12.5,2.5
					c3.1,1.6,5.6,4.1,7.5,7.4c4-3.8,7.6-6.4,10.8-7.8c3.3-1.4,7.3-2.1,12.1-2.1c7.1,0,12.6,1.9,16.5,5.6c4,3.7,5.9,9.5,5.9,17.4
					v36.6H92.6v-33.2c0-2.6-0.6-4.6-1.7-5.9c-1.7-2-3.8-3-6.3-3c-3,0-5.4,1-7.2,2.9c-1.8,1.9-2.7,5-2.7,9.2v30.1H49.3v-32.1
					c0-2.6-0.2-4.3-0.5-5.2c-0.5-1.5-1.5-2.6-2.8-3.5s-2.9-1.3-4.7-1.3c-2.9,0-5.3,1-7.2,2.9c-1.9,1.9-2.8,5.1-2.8,9.6v29.8H6.1
					V271.285z"/>
				<path fill="#FFFFFF" d="M122.6,300.685c0-8.9,3.4-16.2,10.2-22c6.8-5.8,15.9-8.7,27.5-8.7c13.2,0,23.2,3.4,29.9,10.2
					c5.4,5.5,8.1,12.2,8.1,20.2c0,9-3.4,16.3-10.1,22.1c-6.7,5.7-16,8.6-27.9,8.6c-10.6,0-19.1-2.4-25.7-7.1
					C126.6,317.985,122.6,310.185,122.6,300.685z M147.9,300.585c0,5.2,1.2,9,3.6,11.5c2.4,2.5,5.4,3.7,9,3.7s6.6-1.2,9-3.7
					c2.3-2.5,3.5-6.4,3.5-11.8c0-5.1-1.2-8.8-3.5-11.3c-2.4-2.5-5.3-3.7-8.7-3.7c-3.7,0-6.7,1.3-9.1,3.8
					C149.1,291.685,147.9,295.485,147.9,300.585z"/>
				<path fill="#FFFFFF" d="M201.7,249.185h25.5v27.9c2.5-2.3,5.4-4.1,8.6-5.3c3.2-1.2,6.8-1.8,10.6-1.8c8,0,14.7,2.6,19.9,7.7
					c5.3,5.1,7.9,12.4,7.9,22c0,6.4-1.2,12-3.6,16.8c-2.4,4.9-5.7,8.5-10,10.9c-4.2,2.4-8.9,3.6-14.1,3.6c-4.4,0-8.5-0.8-12.2-2.5
					c-2.8-1.3-5.8-3.8-9.1-7.4v8.6h-23.6L201.7,249.185L201.7,249.185z M227,300.385c0,5,1.1,8.7,3.2,10.9c2.1,2.3,4.8,3.4,8.1,3.4
					c3,0,5.6-1.1,7.6-3.3c2.1-2.2,3.1-5.9,3.1-11.2c0-4.6-1-8-3-10.2s-4.4-3.2-7.3-3.2c-3.4,0-6.2,1.1-8.4,3.4
					C228.1,292.385,227,295.785,227,300.385z"/>
				<path fill="#FFFFFF" d="M278.3,249.185h25.2v15.2h-25.2V249.185z M278.3,271.285h25.2v58.3h-25.2V271.285z"/>
				<path fill="#FFFFFF" d="M312.5,249.185h25.3v80.5h-25.3V249.185z"/>
				<path fill="#FFFFFF" d="M346,271.285h23.5v9.5c3.5-3.9,7.1-6.7,10.7-8.3c3.6-1.7,8-2.5,13.1-2.5c7,0,12.5,1.8,16.4,5.5
					s5.9,9.4,5.9,17.1v37.1h-25.4v-32.1c0-3.7-0.8-6.3-2.3-7.8s-3.7-2.3-6.4-2.3c-3.1,0-5.5,1-7.4,3.1c-1.9,2.1-2.9,5.7-2.9,11v28
					H346V271.285z"/>
				<path fill="#FFFFFF" d="M421.1,300.685c0-8.9,3.4-16.2,10.2-22c6.8-5.8,15.9-8.7,27.5-8.7c13.2,0,23.2,3.4,29.9,10.2
					c5.4,5.5,8.1,12.2,8.1,20.2c0,9-3.4,16.3-10.1,22.1c-6.7,5.7-16,8.6-27.9,8.6c-10.6,0-19.1-2.4-25.7-7.1
					C425.1,317.985,421.1,310.185,421.1,300.685z M446.4,300.585c0,5.2,1.2,9,3.6,11.5s5.4,3.7,9,3.7s6.6-1.2,9-3.7
					c2.3-2.5,3.5-6.4,3.5-11.8c0-5.1-1.2-8.8-3.5-11.3c-2.4-2.5-5.3-3.7-8.7-3.7c-3.7,0-6.7,1.3-9.1,3.8
					C447.6,291.685,446.4,295.485,446.4,300.585z"/>
				<path fill="#FFFFFF" d="M487.7,271.285H514l12.8,37l13.3-37h25.5l-28,58.3h-22.4L487.7,271.285z"/>
				<path fill="#FFFFFF" d="M558,300.685c0-8.9,3.4-16.2,10.2-22c6.8-5.8,15.9-8.7,27.5-8.7c13.2,0,23.2,3.4,29.9,10.2
					c5.4,5.5,8.1,12.2,8.1,20.2c0,9-3.4,16.3-10.1,22.1c-6.7,5.7-16,8.6-27.9,8.6c-10.6,0-19.1-2.4-25.7-7.1
					C562,317.985,558,310.185,558,300.685z M583.3,300.585c0,5.2,1.2,9,3.6,11.5c2.4,2.5,5.4,3.7,9,3.7s6.6-1.2,9-3.7
					c2.3-2.5,3.5-6.4,3.5-11.8c0-5.1-1.2-8.8-3.5-11.3c-2.4-2.5-5.3-3.7-8.7-3.7c-3.7,0-6.7,1.3-9.1,3.8
					C584.5,291.685,583.3,295.485,583.3,300.585z"/>
			</g>
			<rect x="5.9" y="347.585" fill="#FFFFFF" width="626.9" height="10.8"/>
			<rect x="5.9" y="347.585" fill="#FFFFFF" width="626.9" height="10.8"/>
			<g>
				<path fill="#FFFFFF" d="M13.8,384.985l-6.5-0.8c0.7-1.7,2-3,3.7-3.9c1.8-0.8,4.4-1.2,7.9-1.2c3.2,0,5.5,0.2,7.1,0.8
					c1.6,0.5,2.6,1.1,3.3,1.9c0.6,0.8,1,2.2,1,4.2l-0.1,5.5c0,1.6,0.1,2.7,0.3,3.5c0.2,0.7,0.7,1.6,1.3,2.4h-7
					c-0.2-0.3-0.4-0.8-0.7-1.4c-0.1-0.3-0.2-0.5-0.3-0.6c-1.2,0.8-2.5,1.4-3.9,1.8c-1.4,0.4-2.9,0.6-4.4,0.6c-2.8,0-4.9-0.5-6.5-1.5
					s-2.4-2.3-2.4-3.8c0-1,0.4-1.9,1.1-2.7s1.7-1.4,3.1-1.8c1.3-0.4,3.2-0.8,5.7-1.1c3.3-0.4,5.6-0.8,6.9-1.2v-0.4
					c0-0.9-0.3-1.6-1-2c-0.7-0.4-2-0.6-3.8-0.6c-1.3,0-2.3,0.2-3,0.5C14.8,383.585,14.2,384.085,13.8,384.985z M23.3,388.785
					c-0.9,0.2-2.4,0.4-4.3,0.7c-2,0.3-3.3,0.6-3.9,0.8c-0.9,0.4-1.4,1-1.4,1.7s0.4,1.2,1.1,1.7c0.7,0.5,1.7,0.7,2.8,0.7
					c1.3,0,2.5-0.3,3.7-0.8c0.9-0.4,1.4-1,1.7-1.6c0.2-0.4,0.3-1.2,0.3-2.3C23.3,389.785,23.3,388.785,23.3,388.785z"/>
				<path fill="#FFFFFF" d="M47.7,397.385h-7.1v-18h6.6v2.6c1.1-1.2,2.1-2,3.1-2.4c0.9-0.4,1.9-0.6,3.1-0.6c1.6,0,3.2,0.3,4.7,0.9
					l-2.2,4.1c-1.2-0.5-2.3-0.8-3.3-0.8s-1.8,0.2-2.5,0.5c-0.7,0.4-1.2,1-1.6,2c-0.4,1-0.6,3-0.6,6L47.7,397.385L47.7,397.385z"/>
				<path fill="#FFFFFF" d="M87,384.785l-7,0.8c-0.2-0.9-0.8-1.6-1.6-2.1c-0.8-0.5-1.9-0.7-3.3-0.7c-1.8,0-3.2,0.4-4.2,1.2
					c-1.1,0.8-1.6,2.2-1.6,4.1c0,2.1,0.5,3.6,1.6,4.5c1.1,0.9,2.5,1.3,4.3,1.3c1.4,0,2.5-0.3,3.3-0.8c0.9-0.5,1.5-1.4,1.8-2.6l7,0.8
					c-0.7,2.1-2.1,3.8-4.2,4.8c-2.1,1.1-4.8,1.6-8.3,1.6c-3.9,0-7.1-0.8-9.4-2.5s-3.5-3.9-3.5-6.9s1.2-5.3,3.5-6.9
					c2.3-1.6,5.5-2.5,9.5-2.5c3.3,0,5.9,0.5,7.8,1.4C84.7,381.385,86.1,382.885,87,384.785z"/>
				<path fill="#FFFFFF" d="M99.8,372.685v9.1c2.3-1.8,5-2.7,8.2-2.7c1.6,0,3.1,0.2,4.4,0.6c1.3,0.4,2.3,0.9,3,1.6
					c0.7,0.6,1.1,1.3,1.4,2.1c0.2,0.8,0.4,2,0.4,3.6v10.5H110v-9.5c0-1.9-0.1-3.1-0.4-3.6s-0.7-0.9-1.4-1.2
					c-0.7-0.3-1.5-0.4-2.6-0.4c-1.2,0-2.2,0.2-3.2,0.6c-0.9,0.4-1.6,1-2,1.7c-0.4,0.8-0.6,1.9-0.6,3.4v9h-7.1v-24.8L99.8,372.685
					L99.8,372.685z"/>
				<path fill="#FFFFFF" d="M125.1,377.085v-4.4h7.1v4.4H125.1z M125.1,397.385v-18h7.1v17.9L125.1,397.385L125.1,397.385z"/>
				<path fill="#FFFFFF" d="M153.6,379.485v3.8h-4.9v7.2c0,1.5,0,2.3,0.1,2.6c0.1,0.2,0.3,0.4,0.6,0.6s0.7,0.2,1.2,0.2
					c0.7,0,1.6-0.2,2.9-0.5l0.6,3.7c-1.7,0.5-3.5,0.7-5.6,0.7c-1.3,0-2.4-0.1-3.5-0.4c-1-0.3-1.8-0.7-2.3-1.1
					c-0.5-0.5-0.8-1.1-1-1.8c-0.2-0.6-0.2-1.7-0.2-3.3v-7.9h-3.3v-3.8h3.3v-3.6l7.1-2.8v6.3h5V379.485z"/>
				<path fill="#FFFFFF" d="M176.2,391.685l7.1,0.8c-0.9,1.7-2.3,3.1-4.3,4c-2,0.9-4.4,1.4-7.4,1.4c-4.7,0-8.1-1-10.4-3.1
					c-1.8-1.6-2.7-3.7-2.7-6.2c0-3,1.2-5.3,3.5-7s5.3-2.5,8.8-2.5c4,0,7.2,0.9,9.5,2.6s3.4,4.5,3.3,8.1h-17.8
					c0.1,1.4,0.6,2.5,1.7,3.3s2.5,1.2,4.1,1.2c1.1,0,2.1-0.2,2.8-0.6C175.3,393.285,175.8,392.585,176.2,391.685z M176.6,386.885
					c0-1.4-0.6-2.4-1.6-3.1s-2.2-1.1-3.7-1.1c-1.6,0-2.8,0.4-3.8,1.1c-1,0.8-1.5,1.8-1.5,3.1H176.6L176.6,386.885z"/>
				<path fill="#FFFFFF" d="M202.1,379.485v3.8h-4.9v7.2c0,1.5,0,2.3,0.1,2.6c0.1,0.2,0.3,0.4,0.6,0.6s0.7,0.2,1.2,0.2
					c0.7,0,1.6-0.2,2.9-0.5l0.6,3.7c-1.7,0.5-3.5,0.7-5.6,0.7c-1.3,0-2.4-0.1-3.5-0.4c-1-0.3-1.8-0.7-2.3-1.1
					c-0.5-0.5-0.8-1.1-1-1.8c-0.2-0.6-0.2-1.7-0.2-3.3v-7.9h-3.3v-3.8h3.3v-3.6l7.1-2.8v6.3h5V379.485z"/>
				<path fill="#FFFFFF" d="M221.5,379.485v3.8h-4.9v7.2c0,1.5,0,2.3,0.1,2.6c0.1,0.2,0.3,0.4,0.6,0.6s0.7,0.2,1.2,0.2
					c0.7,0,1.6-0.2,2.9-0.5l0.6,3.7c-1.7,0.5-3.5,0.7-5.6,0.7c-1.3,0-2.4-0.1-3.5-0.4c-1-0.3-1.8-0.7-2.3-1.1
					c-0.5-0.5-0.8-1.1-1-1.8c-0.2-0.6-0.2-1.7-0.2-3.3v-7.9h-3.3v-3.8h3.3v-3.6l7.1-2.8v6.3h5V379.485z"/>
				<path fill="#FFFFFF" d="M246.3,397.385v-2.7c-1,1-2.3,1.7-3.9,2.3c-1.6,0.6-3.3,0.8-5,0.8c-1.8,0-3.4-0.3-4.9-0.8
					c-1.4-0.5-2.5-1.3-3.1-2.2c-0.6-1-1-2.3-1-4v-11.4h7.1v8.2c0,2.5,0.1,4.1,0.4,4.6c0.3,0.6,0.7,1,1.4,1.4
					c0.7,0.3,1.6,0.5,2.6,0.5c1.2,0,2.3-0.2,3.3-0.7c1-0.4,1.6-1,2-1.7s0.5-2.3,0.5-4.8v-7.6h7.1v17.9L246.3,397.385L246.3,397.385z
					"/>
				<path fill="#FFFFFF" d="M267.8,397.385h-7.1v-18h6.6v2.6c1.1-1.2,2.1-2,3-2.4c0.9-0.4,1.9-0.6,3.1-0.6c1.6,0,3.2,0.3,4.7,0.9
					l-2.2,4.1c-1.2-0.5-2.3-0.8-3.3-0.8s-1.8,0.2-2.5,0.5c-0.7,0.4-1.2,1-1.6,2s-0.6,3-0.6,6v5.7H267.8z"/>
				<path fill="#FFFFFF" d="M289,384.985l-6.5-0.8c0.7-1.7,2-3,3.7-3.9c1.8-0.8,4.4-1.2,7.9-1.2c3.2,0,5.5,0.2,7.1,0.8
					c1.6,0.5,2.6,1.1,3.3,1.9c0.6,0.8,0.9,2.2,0.9,4.2l-0.1,5.5c0,1.6,0.1,2.7,0.3,3.5c0.2,0.7,0.7,1.6,1.3,2.4h-7
					c-0.2-0.3-0.4-0.8-0.7-1.4c-0.1-0.3-0.2-0.5-0.2-0.6c-1.2,0.8-2.5,1.4-3.9,1.8c-1.4,0.4-2.9,0.6-4.4,0.6c-2.8,0-5-0.5-6.5-1.5
					c-1.6-1-2.4-2.3-2.4-3.8c0-1,0.4-1.9,1.1-2.7s1.7-1.4,3-1.8c1.3-0.4,3.2-0.8,5.7-1.1c3.3-0.4,5.6-0.8,6.9-1.2v-0.4
					c0-0.9-0.3-1.6-1-2c-0.7-0.4-2-0.6-3.8-0.6c-1.3,0-2.3,0.2-3,0.5C290,383.585,289.4,384.085,289,384.985z M298.5,388.785
					c-0.9,0.2-2.4,0.4-4.3,0.7c-2,0.3-3.3,0.6-3.9,0.8c-0.9,0.4-1.4,1-1.4,1.7s0.4,1.2,1.1,1.7s1.7,0.7,2.8,0.7
					c1.3,0,2.5-0.3,3.7-0.8c0.9-0.4,1.4-1,1.7-1.6c0.2-0.4,0.3-1.2,0.3-2.3L298.5,388.785L298.5,388.785z"/>
				<path fill="#FFFFFF" d="M353.7,397.385H347v-2.6c-1.1,1-2.4,1.8-3.9,2.3s-3,0.8-4.5,0.8c-3.1,0-5.7-0.8-7.9-2.5
					c-2.2-1.7-3.3-4-3.3-7s1.1-5.4,3.2-6.9c2.1-1.6,4.9-2.4,8.1-2.4c3,0,5.6,0.8,7.8,2.5v-8.9h7.1L353.7,397.385L353.7,397.385z
					 M334.7,388.085c0,1.9,0.4,3.3,1.2,4.2c1.1,1.2,2.8,1.9,4.8,1.9c1.6,0,3-0.5,4.2-1.4c1.1-0.9,1.7-2.3,1.7-4.2
					c0-2.1-0.6-3.5-1.7-4.5c-1.1-0.9-2.5-1.4-4.3-1.4c-1.7,0-3.1,0.4-4.2,1.3C335.2,384.985,334.7,386.285,334.7,388.085z"/>
				<path fill="#FFFFFF" d="M377,391.685l7.1,0.8c-0.9,1.7-2.3,3.1-4.3,4c-2,0.9-4.4,1.4-7.4,1.4c-4.7,0-8.1-1-10.4-3.1
					c-1.8-1.6-2.7-3.7-2.7-6.2c0-3,1.2-5.3,3.5-7s5.3-2.5,8.8-2.5c4,0,7.2,0.9,9.5,2.6s3.4,4.5,3.3,8.1h-17.8
					c0.1,1.4,0.6,2.5,1.7,3.3s2.5,1.2,4.1,1.2c1.1,0,2.1-0.2,2.8-0.6C376,393.285,376.6,392.585,377,391.685z M377.4,386.885
					c0-1.4-0.6-2.4-1.6-3.1s-2.2-1.1-3.7-1.1c-1.6,0-2.8,0.4-3.8,1.1c-1,0.8-1.5,1.8-1.5,3.1H377.4L377.4,386.885z"/>
				<path fill="#FFFFFF" d="M393.1,398.585l8.1,0.7c0.1,0.6,0.5,1.1,0.9,1.3c0.7,0.3,1.7,0.5,3.2,0.5c1.9,0,3.2-0.2,4.2-0.6
					c0.6-0.2,1.1-0.6,1.4-1.2c0.2-0.4,0.3-1.1,0.3-2.2v-2.6c-2.1,1.9-4.8,2.9-8,2.9c-3.6,0-6.5-1-8.6-3.1c-1.7-1.6-2.5-3.6-2.5-6
					c0-3,1.1-5.3,3.3-6.9c2.2-1.6,4.9-2.4,8.1-2.4c3.3,0,6.1,1,8.2,2.9v-2.5h6.7v16.1c0,2.1-0.3,3.7-0.8,4.8c-0.5,1-1.3,1.9-2.2,2.5
					c-0.9,0.6-2.2,1.1-3.8,1.4c-1.6,0.3-3.6,0.5-6,0.5c-4.6,0-7.8-0.5-9.7-1.6c-1.9-1-2.9-2.4-2.9-4
					C393.1,398.985,393.1,398.785,393.1,398.585z M399.5,388.085c0,1.9,0.6,3.3,1.7,4.2c1.1,0.9,2.5,1.3,4.1,1.3
					c1.7,0,3.2-0.5,4.4-1.4c1.2-0.9,1.8-2.3,1.8-4c0-1.9-0.6-3.2-1.7-4.1c-1.1-0.9-2.6-1.4-4.4-1.4c-1.7,0-3.1,0.4-4.2,1.3
					C400,384.885,399.5,386.285,399.5,388.085z"/>
				<path fill="#FFFFFF" d="M426.2,397.385v-24.8h7.1v24.8H426.2z"/>
				<path fill="#FFFFFF" d="M442.3,377.085v-4.4h7.1v4.4H442.3z M442.3,397.385v-18h7.1v17.9L442.3,397.385L442.3,397.385z"/>
				<path fill="#FFFFFF" d="M471.5,377.085v-4.4h7.1v4.4H471.5z M471.5,397.385v-18h7.1v17.9L471.5,397.385L471.5,397.385z"/>
				<path fill="#FFFFFF" d="M512.2,397.385H505v-9.1c0-1.9-0.2-3.2-0.5-3.8c-0.3-0.6-0.8-1-1.5-1.3s-1.5-0.5-2.5-0.5
					c-1.2,0-2.3,0.2-3.3,0.7s-1.7,1-2,1.8c-0.4,0.7-0.5,2.1-0.5,4.1v8.1h-7.1v-18h6.6v2.6c2.3-2,5.3-3,8.9-3c1.6,0,3,0.2,4.3,0.6
					c1.3,0.4,2.3,0.9,3,1.4c0.7,0.6,1.1,1.2,1.4,2c0.3,0.7,0.4,1.8,0.4,3.2V397.385z"/>
				<path fill="#FFFFFF" d="M535.7,379.485v3.8h-4.9v7.2c0,1.5,0,2.3,0.1,2.6c0.1,0.2,0.3,0.4,0.6,0.6s0.7,0.2,1.2,0.2
					c0.7,0,1.6-0.2,2.9-0.5l0.6,3.7c-1.7,0.5-3.5,0.7-5.6,0.7c-1.3,0-2.4-0.1-3.5-0.4c-1-0.3-1.8-0.7-2.3-1.1
					c-0.5-0.5-0.8-1.1-1-1.8c-0.2-0.6-0.2-1.7-0.2-3.3v-7.9h-3.3v-3.8h3.3v-3.6l7.1-2.8v6.3h5V379.485z"/>
				<path fill="#FFFFFF" d="M555.1,391.685l7.1,0.8c-0.9,1.7-2.3,3.1-4.3,4c-2,0.9-4.4,1.4-7.4,1.4c-4.7,0-8.1-1-10.4-3.1
					c-1.8-1.6-2.7-3.7-2.7-6.2c0-3,1.2-5.3,3.5-7s5.3-2.5,8.8-2.5c4,0,7.2,0.9,9.5,2.6c2.3,1.8,3.4,4.5,3.3,8.1h-17.8
					c0.1,1.4,0.6,2.5,1.7,3.3s2.5,1.2,4.1,1.2c1.1,0,2.1-0.2,2.8-0.6C554.2,393.285,554.7,392.585,555.1,391.685z M555.5,386.885
					c0-1.4-0.6-2.4-1.6-3.1s-2.2-1.1-3.7-1.1c-1.6,0-2.8,0.4-3.8,1.1c-1,0.8-1.5,1.8-1.5,3.1H555.5L555.5,386.885z"/>
				<path fill="#FFFFFF" d="M578.7,397.385h-7.1v-18h6.6v2.6c1.1-1.2,2.1-2,3.1-2.4c0.9-0.4,1.9-0.6,3.1-0.6c1.6,0,3.2,0.3,4.7,0.9
					l-2.2,4.1c-1.2-0.5-2.3-0.8-3.3-0.8s-1.8,0.2-2.5,0.5c-0.7,0.4-1.2,1-1.6,2c-0.4,1-0.6,3-0.6,6L578.7,397.385L578.7,397.385z"/>
				<path fill="#FFFFFF" d="M615.8,397.385h-7.1v-9.1c0-1.9-0.2-3.2-0.5-3.8c-0.3-0.6-0.8-1-1.5-1.3s-1.5-0.5-2.5-0.5
					c-1.2,0-2.3,0.2-3.3,0.7s-1.7,1-2,1.8c-0.4,0.7-0.5,2.1-0.5,4.1v8.1h-7.1v-18h6.6v2.6c2.3-2,5.3-3,8.9-3c1.6,0,3,0.2,4.3,0.6
					c1.3,0.4,2.3,0.9,3,1.4c0.7,0.6,1.1,1.2,1.4,2c0.3,0.7,0.4,1.8,0.4,3.2v11.2H615.8z"/>
				<path fill="#FFFFFF" d="M627,377.085v-4.4h7.1v4.4H627z M627,397.385v-18h7.1v17.9L627,397.385L627,397.385z"/>
			</g>
		</g>
	</g>
</g>
</svg>
