<?xml version="1.0" encoding="utf-8"?>
<!-- Generator: Adobe Illustrator 17.1.0, SVG Export Plug-In . SVG Version: 6.00 Build 0)  -->
<!DOCTYPE svg PUBLIC "-//W3C//DTD SVG 1.1//EN" "http://www.w3.org/Graphics/SVG/1.1/DTD/svg11.dtd">
<svg version="1.1" id="Layer_1" xmlns="http://www.w3.org/2000/svg" xmlns:xlink="http://www.w3.org/1999/xlink" x="0px" y="0px"
	 viewBox="0 150 640 180" enable-background="new 0 150 640 180" xml:space="preserve">
<g id="Layer_1_1_" display="none">
	<g display="inline">
		<rect x="459.528" y="171.205" fill="#706F6F" width="99.489" height="25.158"/>
		<text transform="matrix(1.5002 0 0 1 462.3815 189.7761)" fill="#FFFFFF" font-family="'ArialMT'" font-size="18.2967">via sicilia</text>
		<g>
			<g>
				<path d="M78.027,206.768h18.029v6.513c2.598-2.715,5.217-4.651,7.863-5.797c2.646-1.149,5.836-1.722,9.574-1.722
					c4.022,0,7.207,0.631,9.551,1.892c2.344,1.259,4.261,3.135,5.749,5.627c3.032-2.912,5.795-4.896,8.292-5.946
					c2.495-1.05,5.575-1.575,9.239-1.575c5.403,0,9.617,1.422,12.651,4.263c3.032,2.846,4.55,7.29,4.55,13.342v28.022h-19.359
					v-25.417c0-2.016-0.443-3.513-1.325-4.497c-1.291-1.539-2.899-2.309-4.823-2.309c-2.27,0-4.098,0.729-5.485,2.185
					c-1.387,1.456-2.08,3.797-2.08,7.017v23.023h-19.359V226.81c0-1.961-0.128-3.293-0.383-3.992
					c-0.413-1.119-1.126-2.023-2.142-2.708s-2.206-1.03-3.57-1.03c-2.222,0-4.047,0.741-5.476,2.227s-2.144,3.921-2.144,7.311
					v22.773H78.022v-44.623H78.027z"/>
				<path d="M167.141,229.204c0-6.808,2.594-12.415,7.783-16.827c5.187-4.414,12.193-6.618,21.017-6.618
					c10.09,0,17.712,2.591,22.87,7.772c4.144,4.174,6.217,9.315,6.217,15.419c0,6.863-2.571,12.486-7.71,16.868
					c-5.141,4.382-12.248,6.572-21.326,6.572c-8.099,0-14.646-1.821-19.643-5.46C170.207,242.424,167.141,236.514,167.141,229.204z
					 M186.5,229.163c0,3.979,0.908,6.916,2.727,8.822c1.818,1.906,4.105,2.857,6.857,2.857c2.784,0,5.068-0.938,6.857-2.814
					c1.786-1.876,2.681-4.887,2.681-9.033c0-3.866-0.901-6.744-2.704-8.634c-1.802-1.89-4.034-2.837-6.689-2.837
					c-2.816,0-5.141,0.961-6.976,2.876C187.418,222.32,186.5,225.239,186.5,229.163z"/>
				<path d="M227.619,189.791h19.501v21.345c1.929-1.793,4.118-3.137,6.57-4.034c2.449-0.897,5.164-1.344,8.136-1.344
					c6.136,0,11.211,1.954,15.231,5.861c4.015,3.905,6.026,9.517,6.026,16.827c0,4.873-0.917,9.166-2.752,12.876
					c-1.837,3.713-4.373,6.485-7.616,8.322c-3.243,1.832-6.838,2.749-10.792,2.749c-3.387,0-6.485-0.642-9.301-1.931
					c-2.119-1.009-4.428-2.899-6.928-5.673v6.597h-18.077V189.791z M246.975,228.952c0,3.836,0.812,6.618,2.442,8.34
					c1.628,1.722,3.692,2.584,6.192,2.584c2.309,0,4.249-0.848,5.811-2.541c1.569-1.695,2.35-4.545,2.35-8.549
					c0-3.529-0.768-6.12-2.3-7.774c-1.536-1.653-3.394-2.479-5.575-2.479c-2.626,0-4.77,0.86-6.43,2.582
					C247.806,222.838,246.975,225.452,246.975,228.952z"/>
				<path d="M286.241,189.791h19.311v11.64h-19.311V189.791z M286.241,206.768h19.311v44.62h-19.311V206.768z"/>
				<path d="M312.431,189.791h19.357v61.594h-19.357V189.791z"/>
				<path d="M338.005,206.768h17.981v7.269c2.688-2.967,5.41-5.091,8.161-6.366c2.752-1.275,6.104-1.913,10.058-1.913
					c5.345,0,9.528,1.408,12.55,4.224c3.02,2.814,4.531,7.164,4.531,13.043v28.362h-19.407v-24.537c0-2.8-0.585-4.781-1.754-5.946
					c-1.17-1.16-2.814-1.743-4.935-1.743c-2.341,0-4.24,0.784-5.694,2.353c-1.456,1.571-2.183,4.385-2.183,8.446v21.427h-19.311
					v-44.62H338.005z"/>
				<path d="M395.49,229.204c0-6.808,2.594-12.415,7.781-16.827c5.187-4.414,12.193-6.618,21.017-6.618
					c10.09,0,17.715,2.591,22.87,7.772c4.144,4.174,6.217,9.315,6.217,15.419c0,6.863-2.571,12.486-7.71,16.868
					c-5.141,4.382-12.248,6.572-21.329,6.572c-8.097,0-14.644-1.821-19.641-5.46C398.556,242.424,395.49,236.514,395.49,229.204z
					 M414.846,229.163c0,3.979,0.908,6.916,2.727,8.822c1.818,1.906,4.105,2.857,6.857,2.857c2.784,0,5.068-0.938,6.854-2.814
					s2.683-4.887,2.683-9.033c0-3.866-0.901-6.744-2.704-8.634s-4.034-2.837-6.689-2.837c-2.816,0-5.141,0.961-6.976,2.876
					C415.763,222.32,414.846,225.239,414.846,229.163z"/>
				<path d="M446.389,206.768h20.09l9.776,28.277l10.143-28.277h19.487l-21.416,44.62h-17.125L446.389,206.768z"/>
				<path d="M500.22,229.204c0-6.808,2.594-12.415,7.781-16.827c5.187-4.414,12.193-6.618,21.017-6.618
					c10.09,0,17.715,2.591,22.87,7.772c4.144,4.174,6.217,9.315,6.217,15.419c0,6.863-2.571,12.486-7.71,16.868
					c-5.141,4.382-12.248,6.572-21.329,6.572c-8.097,0-14.644-1.821-19.641-5.46C503.289,242.424,500.22,236.514,500.22,229.204z
					 M519.579,229.163c0,3.979,0.908,6.916,2.727,8.822c1.818,1.906,4.105,2.857,6.857,2.857c2.784,0,5.068-0.938,6.854-2.814
					s2.683-4.887,2.683-9.033c0-3.866-0.901-6.744-2.704-8.634c-1.802-1.89-4.034-2.837-6.689-2.837
					c-2.816,0-5.141,0.961-6.976,2.876C520.494,222.32,519.579,225.239,519.579,229.163z"/>
			</g>
			<rect x="77.857" y="265.083" fill="#E4371E" width="479.555" height="8.274"/>
			<rect x="77.857" y="265.083" fill="#E30613" width="479.555" height="8.274"/>
			<g>
				<path d="M83.902,293.681l-4.939-0.594c0.555-1.328,1.511-2.309,2.866-2.949c1.358-0.638,3.371-0.956,6.045-0.956
					c2.428,0,4.235,0.193,5.423,0.576c1.188,0.383,2.025,0.871,2.509,1.461c0.484,0.589,0.727,1.674,0.727,3.249l-0.057,4.242
					c0,1.206,0.087,2.098,0.261,2.669c0.174,0.573,0.5,1.188,0.979,1.844h-5.384c-0.142-0.241-0.316-0.599-0.523-1.073
					c-0.089-0.216-0.154-0.358-0.193-0.427c-0.931,0.603-1.924,1.055-2.983,1.355c-1.059,0.3-2.188,0.454-3.389,0.454
					c-2.117,0-3.786-0.385-5.008-1.151c-1.22-0.768-1.83-1.738-1.83-2.91c0-0.775,0.277-1.465,0.832-2.075
					c0.555-0.608,1.332-1.073,2.334-1.397c1-0.321,2.442-0.605,4.329-0.846c2.543-0.316,4.307-0.617,5.288-0.892v-0.362
					c0-0.699-0.259-1.197-0.775-1.495c-0.516-0.296-1.491-0.445-2.924-0.445c-0.968,0-1.722,0.128-2.266,0.381
					C84.677,292.598,84.239,293.045,83.902,293.681z M91.185,296.63c-0.697,0.156-1.802,0.342-3.311,0.557
					c-1.511,0.216-2.497,0.427-2.963,0.635c-0.711,0.335-1.066,0.761-1.066,1.28c0,0.507,0.284,0.947,0.853,1.319
					c0.566,0.371,1.291,0.557,2.169,0.557c0.981,0,1.917-0.218,2.809-0.647c0.658-0.326,1.092-0.729,1.298-1.202
					c0.142-0.31,0.213-0.901,0.213-1.77v-0.729H91.185z"/>
				<path d="M109.806,303.222h-5.444v-13.729h5.056v1.952c0.865-0.922,1.642-1.53,2.334-1.823c0.69-0.294,1.475-0.44,2.353-0.44
					c1.241,0,2.435,0.227,3.584,0.686l-1.685,3.167c-0.917-0.394-1.768-0.594-2.557-0.594c-0.764,0-1.408,0.14-1.938,0.42
					c-0.53,0.28-0.947,0.787-1.25,1.518c-0.303,0.734-0.454,2.268-0.454,4.602C109.806,298.98,109.806,303.222,109.806,303.222z"/>
				<path d="M139.876,293.554l-5.366,0.644c-0.181-0.715-0.592-1.254-1.229-1.617c-0.64-0.362-1.47-0.543-2.488-0.543
					c-1.355,0-2.438,0.312-3.245,0.938c-0.807,0.626-1.211,1.669-1.211,3.135c0,1.628,0.41,2.779,1.231,3.451
					c0.819,0.672,1.922,1.007,3.302,1.007c1.032,0,1.88-0.195,2.536-0.587c0.658-0.39,1.124-1.066,1.394-2.023l5.348,0.608
					c-0.557,1.637-1.621,2.873-3.197,3.71c-1.575,0.837-3.687,1.254-6.334,1.254c-3.009,0-5.41-0.635-7.196-1.901
					c-1.789-1.266-2.683-3.02-2.683-5.263c0-2.266,0.897-4.031,2.692-5.293s4.224-1.894,7.283-1.894c2.506,0,4.497,0.36,5.976,1.078
					C138.167,290.984,139.229,292.08,139.876,293.554z"/>
				<path d="M149.663,284.272v6.967c1.757-1.369,3.855-2.055,6.295-2.055c1.252,0,2.383,0.156,3.389,0.468
					c1.007,0.307,1.766,0.706,2.275,1.188c0.511,0.482,0.86,1.016,1.046,1.603c0.188,0.585,0.282,1.495,0.282,2.727v8.054h-5.444
					v-7.253c0-1.438-0.103-2.355-0.31-2.74c-0.206-0.388-0.571-0.697-1.094-0.924c-0.523-0.227-1.179-0.342-1.968-0.342
					c-0.904,0-1.711,0.144-2.422,0.438c-0.711,0.296-1.229,0.734-1.559,1.328c-0.33,0.589-0.493,1.463-0.493,2.616v6.877h-5.444
					v-18.951H149.663L149.663,284.272z"/>
				<path d="M169.026,287.631v-3.362h5.444v3.362H169.026z M169.026,303.222v-13.729h5.444v13.729H169.026z"/>
				<path d="M190.83,289.493v2.896h-3.717v5.533c0,1.121,0.034,1.773,0.105,1.958c0.071,0.186,0.232,0.337,0.484,0.459
					c0.25,0.122,0.56,0.181,0.92,0.181c0.505,0,1.234-0.117,2.188-0.349l0.466,2.818c-1.264,0.362-2.697,0.543-4.302,0.543
					c-0.981,0-1.864-0.11-2.653-0.33c-0.787-0.218-1.364-0.502-1.734-0.853c-0.367-0.349-0.621-0.819-0.764-1.413
					c-0.117-0.424-0.174-1.277-0.174-2.561v-5.983h-2.5v-2.896h2.5v-2.727l5.462-2.119v4.845h3.719V289.493z"/>
				<path d="M208.148,298.854l5.423,0.608c-0.697,1.328-1.798,2.337-3.302,3.032s-3.387,1.041-5.648,1.041
					c-3.575,0-6.226-0.78-7.941-2.341c-1.358-1.247-2.036-2.825-2.036-4.731c0-2.275,0.894-4.059,2.676-5.348
					c1.782-1.286,4.034-1.931,6.758-1.931c3.059,0,5.476,0.674,7.246,2.023c1.768,1.348,2.614,3.414,2.536,6.198h-13.637
					c0.041,1.078,0.477,1.917,1.319,2.516c0.839,0.599,1.885,0.899,3.137,0.899c0.853,0,1.571-0.154,2.151-0.466
					C207.412,300.042,207.85,299.542,208.148,298.854z M208.457,295.183c-0.039-1.053-0.445-1.851-1.22-2.399
					c-0.775-0.548-1.718-0.819-2.827-0.819c-1.188,0-2.172,0.289-2.944,0.865c-0.777,0.578-1.156,1.362-1.144,2.355h8.136V295.183z"
					/>
				<path d="M227.967,289.493v2.896h-3.717v5.533c0,1.121,0.034,1.773,0.105,1.958c0.071,0.186,0.232,0.337,0.484,0.459
					c0.25,0.122,0.56,0.181,0.92,0.181c0.505,0,1.234-0.117,2.188-0.349l0.466,2.818c-1.264,0.362-2.699,0.543-4.302,0.543
					c-0.981,0-1.864-0.11-2.653-0.33c-0.787-0.218-1.364-0.502-1.734-0.853c-0.367-0.349-0.621-0.819-0.764-1.413
					c-0.117-0.424-0.174-1.277-0.174-2.561v-5.983h-2.5v-2.896h2.5v-2.727l5.462-2.119v4.845h3.719V289.493z"/>
				<path d="M242.809,289.493v2.896h-3.719v5.533c0,1.121,0.034,1.773,0.105,1.958c0.071,0.186,0.232,0.337,0.486,0.459
					c0.25,0.122,0.557,0.181,0.92,0.181c0.502,0,1.234-0.117,2.19-0.349l0.466,2.818c-1.266,0.362-2.701,0.543-4.302,0.543
					c-0.981,0-1.867-0.11-2.653-0.33c-0.787-0.218-1.367-0.502-1.734-0.853c-0.369-0.349-0.624-0.819-0.766-1.413
					c-0.117-0.424-0.174-1.277-0.174-2.561v-5.983h-2.5v-2.896h2.5v-2.727l5.462-2.119v4.845h3.719V289.493z"/>
				<path d="M261.753,303.222v-2.055c-0.75,0.732-1.734,1.309-2.956,1.731s-2.509,0.635-3.864,0.635
					c-1.383,0-2.621-0.204-3.72-0.608c-1.098-0.404-1.894-0.975-2.383-1.706c-0.491-0.732-0.734-1.747-0.734-3.038v-8.689h5.442
					v6.309c0,1.931,0.101,3.114,0.3,3.548c0.2,0.436,0.564,0.782,1.094,1.036c0.53,0.252,1.199,0.381,2.016,0.381
					c0.929,0,1.761-0.17,2.5-0.509c0.734-0.342,1.238-0.764,1.509-1.268c0.273-0.502,0.406-1.738,0.406-3.703v-5.793h5.444v13.729
					C266.807,303.222,261.753,303.222,261.753,303.222z"/>
				<path d="M278.211,303.222h-5.444v-13.729h5.056v1.952c0.862-0.922,1.642-1.53,2.332-1.823c0.693-0.294,1.477-0.44,2.355-0.44
					c1.241,0,2.435,0.227,3.582,0.686l-1.683,3.167c-0.915-0.394-1.768-0.594-2.555-0.594c-0.764,0-1.41,0.14-1.938,0.42
					c-0.53,0.28-0.947,0.787-1.25,1.518c-0.3,0.734-0.454,2.268-0.454,4.602v4.242H278.211z"/>
				<path d="M294.409,293.681l-4.939-0.594c0.555-1.328,1.509-2.309,2.869-2.949c1.355-0.638,3.371-0.956,6.045-0.956
					c2.426,0,4.235,0.193,5.423,0.576s2.023,0.871,2.509,1.461c0.484,0.589,0.727,1.674,0.727,3.249l-0.057,4.242
					c0,1.206,0.089,2.098,0.264,2.669c0.174,0.573,0.5,1.188,0.979,1.844h-5.387c-0.142-0.241-0.316-0.599-0.523-1.073
					c-0.089-0.216-0.154-0.358-0.193-0.427c-0.931,0.603-1.926,1.055-2.983,1.355c-1.059,0.3-2.188,0.454-3.389,0.454
					c-2.117,0-3.788-0.385-5.008-1.151c-1.22-0.768-1.832-1.738-1.832-2.91c0-0.775,0.28-1.465,0.835-2.075
					c0.555-0.608,1.33-1.073,2.332-1.397c1-0.321,2.445-0.605,4.332-0.846c2.543-0.316,4.307-0.617,5.286-0.892v-0.362
					c0-0.699-0.257-1.197-0.773-1.495c-0.518-0.296-1.493-0.445-2.926-0.445c-0.97,0-1.724,0.128-2.266,0.381
					C295.182,292.598,294.744,293.045,294.409,293.681z M301.693,296.63c-0.697,0.156-1.8,0.342-3.309,0.557
					c-1.511,0.216-2.5,0.427-2.965,0.635c-0.711,0.335-1.064,0.761-1.064,1.28c0,0.507,0.284,0.947,0.853,1.319
					c0.566,0.371,1.291,0.557,2.167,0.557c0.984,0,1.919-0.218,2.809-0.647c0.658-0.326,1.089-0.729,1.3-1.202
					c0.14-0.31,0.211-0.901,0.211-1.77v-0.729H301.693z"/>
				<path d="M343.88,303.222h-5.054v-2.018c-0.839,0.784-1.832,1.369-2.974,1.752c-1.142,0.385-2.293,0.576-3.458,0.576
					c-2.362,0-4.387-0.637-6.072-1.908c-1.683-1.27-2.527-3.043-2.527-5.32c0-2.325,0.819-4.093,2.458-5.306
					c1.64-1.211,3.713-1.816,6.219-1.816c2.298,0,4.286,0.64,5.967,1.915v-6.827h5.444v18.953H343.88z M329.353,296.059
					c0,1.465,0.3,2.527,0.908,3.181c0.878,0.949,2.105,1.422,3.681,1.422c1.252,0,2.318-0.355,3.197-1.069
					c0.878-0.711,1.319-1.77,1.319-3.185c0-1.578-0.427-2.713-1.28-3.405c-0.851-0.695-1.942-1.041-3.272-1.041
					c-1.293,0-2.373,0.342-3.245,1.027C329.788,293.676,329.353,294.699,329.353,296.059z"/>
				<path d="M361.716,298.854l5.423,0.608c-0.697,1.328-1.798,2.337-3.302,3.032s-3.387,1.041-5.646,1.041
					c-3.575,0-6.224-0.78-7.941-2.341c-1.355-1.247-2.032-2.825-2.032-4.731c0-2.275,0.892-4.059,2.674-5.348
					c1.779-1.286,4.034-1.931,6.758-1.931c3.061,0,5.476,0.674,7.246,2.023c1.768,1.348,2.614,3.414,2.536,6.198h-13.637
					c0.039,1.078,0.477,1.917,1.319,2.516c0.839,0.599,1.885,0.899,3.137,0.899c0.853,0,1.571-0.154,2.151-0.466
					C360.98,300.042,361.42,299.542,361.716,298.854z M362.026,295.183c-0.039-1.053-0.445-1.851-1.22-2.399
					c-0.775-0.548-1.718-0.819-2.827-0.819c-1.188,0-2.172,0.289-2.944,0.865c-0.775,0.578-1.156,1.362-1.144,2.355h8.136V295.183z"
					/>
				<path d="M374.058,304.126l6.219,0.504c0.105,0.482,0.344,0.814,0.718,0.995c0.516,0.257,1.33,0.388,2.442,0.388
					c1.419,0,2.486-0.14,3.197-0.427c0.477-0.19,0.839-0.495,1.085-0.917c0.167-0.303,0.25-0.858,0.25-1.667v-2.004
					c-1.626,1.484-3.678,2.224-6.157,2.224c-2.766,0-4.953-0.78-6.57-2.341c-1.264-1.231-1.896-2.766-1.896-4.6
					c0-2.3,0.828-4.061,2.488-5.274c1.66-1.215,3.724-1.823,6.189-1.823c2.543,0,4.641,0.745,6.297,2.236v-1.926h5.095v12.319
					c0,1.621-0.202,2.832-0.601,3.635c-0.401,0.8-0.963,1.429-1.685,1.887c-0.725,0.456-1.688,0.814-2.894,1.073
					c-1.208,0.259-2.736,0.388-4.584,0.388c-3.486,0-5.96-0.399-7.418-1.197c-1.461-0.798-2.188-1.807-2.188-3.032
					C374.042,304.447,374.046,304.298,374.058,304.126z M378.922,296.072c0,1.456,0.424,2.525,1.268,3.201
					c0.846,0.676,1.89,1.014,3.13,1.014c1.33,0,2.451-0.346,3.371-1.041c0.917-0.693,1.376-1.722,1.376-3.082
					c0-1.422-0.44-2.479-1.319-3.167c-0.878-0.69-1.988-1.034-3.332-1.034c-1.305,0-2.378,0.337-3.224,1.014
					C379.346,293.653,378.922,294.685,378.922,296.072z"/>
				<path d="M399.354,303.222v-18.951h5.444v18.951H399.354z"/>
				<path d="M411.723,287.631v-3.362h5.442v3.362H411.723z M411.723,303.222v-13.729h5.442v13.729H411.723z"/>
				<path d="M434.044,287.631v-3.362h5.444v3.362H434.044z M434.044,303.222v-13.729h5.444v13.729H434.044z"/>
				<path d="M465.128,303.222h-5.444v-7.006c0-1.484-0.117-2.442-0.349-2.876c-0.232-0.436-0.612-0.773-1.135-1.014
					c-0.523-0.241-1.153-0.362-1.887-0.362c-0.943,0-1.789,0.172-2.536,0.516c-0.75,0.344-1.264,0.803-1.541,1.371
					c-0.277,0.566-0.415,1.619-0.415,3.153v6.219h-5.444v-13.729h5.054v2.018c1.796-1.552,4.057-2.328,6.781-2.328
					c1.199,0,2.298,0.144,3.293,0.433c0.993,0.289,1.747,0.656,2.256,1.105c0.511,0.449,0.867,0.956,1.066,1.525
					c0.202,0.569,0.3,1.383,0.3,2.444L465.128,303.222L465.128,303.222z"/>
				<path d="M483.1,289.493v2.896h-3.722v5.533c0,1.121,0.037,1.773,0.108,1.958c0.071,0.186,0.232,0.337,0.484,0.459
					c0.252,0.122,0.557,0.181,0.92,0.181c0.502,0,1.234-0.117,2.19-0.349l0.466,2.818c-1.266,0.362-2.699,0.543-4.3,0.543
					c-0.984,0-1.867-0.11-2.655-0.33c-0.787-0.218-1.364-0.502-1.734-0.853c-0.369-0.349-0.624-0.819-0.764-1.413
					c-0.117-0.424-0.174-1.277-0.174-2.561v-5.983h-2.5v-2.896h2.5v-2.727l5.46-2.119v4.845h3.722V289.493z"/>
				<path d="M497.994,298.854l5.423,0.608c-0.697,1.328-1.798,2.337-3.302,3.032c-1.502,0.695-3.387,1.041-5.646,1.041
					c-3.575,0-6.224-0.78-7.941-2.341c-1.355-1.247-2.032-2.825-2.032-4.731c0-2.275,0.892-4.059,2.674-5.348
					c1.779-1.286,4.034-1.931,6.758-1.931c3.061,0,5.476,0.674,7.246,2.023c1.768,1.348,2.617,3.414,2.536,6.198h-13.637
					c0.041,1.078,0.477,1.917,1.319,2.516c0.839,0.599,1.885,0.899,3.137,0.899c0.853,0,1.571-0.154,2.151-0.466
					C497.258,300.042,497.698,299.542,497.994,298.854z M498.303,295.183c-0.039-1.053-0.445-1.851-1.22-2.399
					c-0.775-0.548-1.718-0.819-2.827-0.819c-1.188,0-2.172,0.289-2.944,0.865c-0.775,0.578-1.158,1.362-1.144,2.355h8.136V295.183z"
					/>
				<path d="M516.052,303.222h-5.442v-13.729h5.054v1.952c0.867-0.922,1.644-1.53,2.334-1.823c0.693-0.294,1.477-0.44,2.355-0.44
					c1.241,0,2.435,0.227,3.584,0.686l-1.685,3.167c-0.915-0.394-1.768-0.594-2.557-0.594c-0.761,0-1.408,0.14-1.935,0.42
					c-0.53,0.28-0.947,0.787-1.247,1.518c-0.303,0.734-0.456,2.268-0.456,4.602v4.242H516.052z"/>
				<path d="M544.437,303.222h-5.444v-7.006c0-1.484-0.117-2.442-0.349-2.876c-0.232-0.436-0.612-0.773-1.135-1.014
					s-1.154-0.362-1.887-0.362c-0.943,0-1.789,0.172-2.536,0.516c-0.75,0.344-1.263,0.803-1.541,1.371
					c-0.278,0.566-0.415,1.619-0.415,3.153v6.219h-5.444v-13.729h5.054v2.018c1.796-1.552,4.057-2.328,6.781-2.328
					c1.199,0,2.298,0.144,3.293,0.433c0.993,0.289,1.747,0.656,2.256,1.105c0.511,0.449,0.867,0.956,1.066,1.525
					c0.202,0.569,0.303,1.383,0.303,2.444v8.528H544.437z"/>
				<path d="M552.972,287.631v-3.362h5.444v3.362H552.972z M552.972,303.222v-13.729h5.444v13.729H552.972z"/>
			</g>
		</g>
	</g>
</g>
<g id="Layer_2" display="none">
	<g display="inline">
		<rect x="391.211" y="171.205" fill="#706F6F" width="160.792" height="24.748"/>
		<text transform="matrix(1.5002 0 0 1 392.8252 190.7581)" fill="#FFFFFF" font-family="'ArialMT'" font-size="17.9976">via anastasio II</text>
		<g>
			<g>
				<path d="M82.253,208.435h17.735v6.407c2.555-2.672,5.132-4.575,7.735-5.703c2.603-1.128,5.74-1.695,9.418-1.695
					c3.956,0,7.09,0.619,9.395,1.86c2.305,1.238,4.19,3.084,5.655,5.536c2.983-2.864,5.701-4.816,8.157-5.848
					c2.454-1.032,5.483-1.548,9.088-1.548c5.313,0,9.462,1.399,12.443,4.194c2.983,2.8,4.474,7.171,4.474,13.121v27.566h-19.04
					v-25.002c0-1.984-0.436-3.456-1.303-4.424c-1.27-1.513-2.853-2.273-4.742-2.273c-2.231,0-4.031,0.715-5.396,2.149
					c-1.364,1.433-2.045,3.736-2.045,6.902v22.647h-19.04v-24.174c0-1.929-0.126-3.238-0.376-3.928
					c-0.406-1.101-1.108-1.99-2.107-2.665c-1-0.674-2.172-1.014-3.511-1.014c-2.185,0-3.981,0.729-5.387,2.19
					c-1.406,1.461-2.107,3.857-2.107,7.191v22.4h-19.04v-43.891H82.253z"/>
				<path d="M169.909,230.506c0-6.696,2.552-12.213,7.655-16.552c5.102-4.341,11.993-6.51,20.673-6.51
					c9.925,0,17.421,2.548,22.494,7.645c4.075,4.107,6.114,9.161,6.114,15.167c0,6.751-2.529,12.282-7.583,16.593
					c-5.056,4.311-12.048,6.467-20.976,6.467c-7.966,0-14.408-1.791-19.322-5.371C172.927,243.509,169.909,237.698,169.909,230.506z
					 M188.952,230.465c0,3.912,0.894,6.804,2.683,8.677c1.789,1.874,4.038,2.809,6.744,2.809c2.738,0,4.985-0.922,6.744-2.768
					c1.757-1.846,2.637-4.806,2.637-8.884c0-3.802-0.887-6.634-2.66-8.494c-1.773-1.86-3.967-2.791-6.579-2.791
					c-2.77,0-5.056,0.945-6.861,2.83C189.855,223.735,188.952,226.606,188.952,230.465z"/>
				<path d="M229.398,191.738h19.182v20.996c1.899-1.763,4.052-3.087,6.464-3.967c2.41-0.881,5.079-1.323,8.003-1.323
					c6.036,0,11.028,1.922,14.981,5.765c3.951,3.843,5.928,9.361,5.928,16.552c0,4.795-0.904,9.017-2.706,12.665
					c-1.805,3.651-4.302,6.38-7.492,8.187c-3.19,1.802-6.728,2.704-10.615,2.704c-3.33,0-6.38-0.633-9.147-1.901
					c-2.084-0.993-4.357-2.853-6.815-5.579v6.49h-17.781v-60.588H229.398z M248.439,230.256c0,3.775,0.8,6.51,2.403,8.203
					c1.601,1.695,3.632,2.541,6.091,2.541c2.273,0,4.178-0.835,5.717-2.5c1.543-1.667,2.311-4.472,2.311-8.409
					c0-3.472-0.757-6.02-2.263-7.645c-1.511-1.626-3.339-2.438-5.483-2.438c-2.584,0-4.692,0.846-6.325,2.541
					C249.257,224.244,248.439,226.814,248.439,230.256z"/>
				<path d="M287.064,191.738h18.994v11.45h-18.994L287.064,191.738L287.064,191.738z M287.064,208.435h18.994v43.891h-18.994
					L287.064,208.435L287.064,208.435z"/>
				<path d="M312.826,191.738h19.04v60.588h-19.04V191.738z"/>
				<path d="M337.982,208.435h17.687v7.15c2.644-2.919,5.32-5.006,8.028-6.26c2.706-1.254,6.003-1.88,9.893-1.88
					c5.258,0,9.372,1.385,12.344,4.155c2.97,2.768,4.458,7.045,4.458,12.83v27.896h-19.091V228.19c0-2.754-0.576-4.703-1.727-5.848
					c-1.151-1.142-2.768-1.713-4.852-1.713c-2.302,0-4.169,0.771-5.6,2.314c-1.433,1.543-2.146,4.313-2.146,8.306v21.079h-18.994
					L337.982,208.435L337.982,208.435z"/>
				<path d="M394.524,230.506c0-6.696,2.55-12.213,7.655-16.552c5.102-4.341,11.993-6.51,20.673-6.51
					c9.925,0,17.423,2.548,22.494,7.645c4.075,4.107,6.114,9.161,6.114,15.167c0,6.751-2.529,12.282-7.583,16.593
					c-5.056,4.311-12.048,6.467-20.978,6.467c-7.964,0-14.406-1.791-19.32-5.371C397.542,243.509,394.524,237.698,394.524,230.506z
					 M413.567,230.465c0,3.912,0.894,6.804,2.683,8.677s4.038,2.809,6.744,2.809c2.738,0,4.985-0.922,6.742-2.768
					c1.757-1.846,2.639-4.806,2.639-8.884c0-3.802-0.887-6.634-2.66-8.494c-1.773-1.86-3.967-2.791-6.579-2.791
					c-2.77,0-5.056,0.945-6.861,2.83C414.466,223.735,413.567,226.606,413.567,230.465z"/>
				<path d="M444.591,208.435h19.762l9.615,27.814l9.975-27.814h19.168l-21.065,43.891h-16.846L444.591,208.435z"/>
				<path d="M497.544,230.506c0-6.696,2.55-12.213,7.655-16.552c5.102-4.341,11.993-6.51,20.673-6.51
					c9.925,0,17.423,2.548,22.494,7.645c4.075,4.107,6.114,9.161,6.114,15.167c0,6.751-2.529,12.282-7.583,16.593
					c-5.056,4.311-12.048,6.467-20.978,6.467c-7.964,0-14.406-1.791-19.32-5.371C500.562,243.509,497.544,237.698,497.544,230.506z
					 M516.587,230.465c0,3.912,0.894,6.804,2.683,8.677c1.789,1.874,4.038,2.809,6.744,2.809c2.738,0,4.985-0.922,6.742-2.768
					s2.639-4.806,2.639-8.884c0-3.802-0.887-6.634-2.66-8.494c-1.773-1.86-3.967-2.791-6.579-2.791c-2.77,0-5.056,0.945-6.861,2.83
					C517.486,223.735,516.587,226.606,516.587,230.465z"/>
			</g>
			<rect x="82.086" y="265.798" fill="#E4371E" width="471.714" height="8.138"/>
			<rect x="82.086" y="265.798" fill="#E30613" width="471.714" height="8.138"/>
			<g>
				<path d="M88.032,293.928l-4.859-0.585c0.546-1.305,1.486-2.273,2.821-2.901c1.335-0.626,3.316-0.94,5.946-0.94
					c2.387,0,4.167,0.188,5.336,0.566c1.17,0.376,1.993,0.858,2.467,1.438c0.477,0.58,0.715,1.646,0.715,3.197l-0.057,4.171
					c0,1.186,0.085,2.064,0.257,2.626c0.172,0.564,0.493,1.17,0.963,1.812h-5.297c-0.14-0.238-0.312-0.589-0.516-1.055
					c-0.089-0.213-0.151-0.351-0.19-0.42c-0.915,0.594-1.892,1.037-2.933,1.335c-1.043,0.296-2.153,0.445-3.334,0.445
					c-2.082,0-3.724-0.378-4.926-1.131c-1.199-0.757-1.8-1.708-1.8-2.862c0-0.761,0.273-1.44,0.819-2.041
					c0.546-0.599,1.312-1.055,2.295-1.374c0.984-0.316,2.403-0.596,4.258-0.832c2.502-0.312,4.235-0.605,5.201-0.876v-0.355
					c0-0.688-0.255-1.179-0.761-1.47c-0.507-0.291-1.468-0.438-2.878-0.438c-0.952,0-1.695,0.126-2.229,0.374
					C88.796,292.862,88.362,293.302,88.032,293.928z M95.196,296.827c-0.686,0.154-1.773,0.337-3.259,0.548
					c-1.486,0.211-2.458,0.42-2.915,0.624c-0.699,0.33-1.048,0.75-1.048,1.259c0,0.498,0.28,0.931,0.839,1.296
					c0.557,0.365,1.27,0.548,2.133,0.548c0.965,0,1.887-0.213,2.763-0.638c0.649-0.321,1.073-0.715,1.277-1.181
					c0.14-0.305,0.209-0.885,0.209-1.743V296.827z"/>
				<path d="M113.514,303.314h-5.355v-13.507h4.972v1.919c0.851-0.908,1.617-1.504,2.295-1.793s1.452-0.433,2.314-0.433
					c1.22,0,2.394,0.225,3.525,0.674l-1.658,3.116c-0.901-0.39-1.741-0.585-2.513-0.585c-0.75,0-1.385,0.138-1.906,0.413
					c-0.521,0.275-0.931,0.773-1.229,1.493c-0.298,0.72-0.447,2.231-0.447,4.529v4.174H113.514z"/>
				<path d="M143.091,293.802l-5.279,0.635c-0.179-0.704-0.58-1.234-1.208-1.591c-0.628-0.355-1.445-0.534-2.449-0.534
					c-1.335,0-2.399,0.307-3.192,0.922c-0.793,0.615-1.19,1.644-1.19,3.084c0,1.601,0.404,2.733,1.211,3.394
					c0.807,0.66,1.89,0.991,3.249,0.991c1.016,0,1.848-0.19,2.495-0.578c0.649-0.385,1.105-1.048,1.371-1.99l5.261,0.599
					c-0.548,1.61-1.596,2.827-3.144,3.648c-1.55,0.823-3.628,1.234-6.231,1.234c-2.96,0-5.32-0.624-7.079-1.869
					c-1.759-1.245-2.639-2.97-2.639-5.176c0-2.229,0.883-3.965,2.649-5.208c1.766-1.241,4.155-1.862,7.164-1.862
					c2.465,0,4.424,0.353,5.877,1.062C141.41,291.275,142.453,292.353,143.091,293.802z"/>
				<path d="M152.717,284.673v6.852c1.727-1.346,3.791-2.02,6.192-2.02c1.231,0,2.344,0.154,3.334,0.459
					c0.991,0.303,1.738,0.695,2.238,1.17c0.502,0.475,0.844,1,1.03,1.578c0.186,0.576,0.277,1.47,0.277,2.683v7.923h-5.355v-7.134
					c0-1.415-0.103-2.316-0.305-2.697c-0.204-0.383-0.562-0.686-1.075-0.91c-0.514-0.225-1.158-0.337-1.935-0.337
					c-0.89,0-1.683,0.142-2.383,0.431c-0.699,0.289-1.208,0.722-1.534,1.305c-0.323,0.58-0.486,1.438-0.486,2.575v6.765h-5.355
					v-18.641C147.361,284.673,152.717,284.673,152.717,284.673z"/>
				<path d="M171.764,287.977v-3.307h5.355v3.307H171.764z M171.764,303.314v-13.507h5.355v13.504h-5.355V303.314z"/>
				<path d="M193.212,289.807v2.85h-3.655v5.442c0,1.103,0.032,1.745,0.103,1.926c0.071,0.183,0.229,0.333,0.477,0.449
					c0.245,0.119,0.55,0.179,0.906,0.179c0.498,0,1.213-0.115,2.153-0.342l0.456,2.772c-1.243,0.355-2.653,0.534-4.231,0.534
					c-0.965,0-1.835-0.108-2.61-0.326c-0.773-0.216-1.341-0.495-1.704-0.839c-0.36-0.342-0.61-0.807-0.752-1.39
					c-0.115-0.417-0.172-1.257-0.172-2.52v-5.887h-2.458v-2.85h2.458v-2.683l5.373-2.085v4.767H193.212z"/>
				<path d="M210.248,299.017l5.334,0.599c-0.686,1.305-1.768,2.298-3.247,2.981c-1.481,0.683-3.332,1.023-5.556,1.023
					c-3.518,0-6.123-0.766-7.81-2.302c-1.335-1.229-2.004-2.779-2.004-4.653c0-2.238,0.878-3.992,2.633-5.26
					c1.754-1.266,3.967-1.901,6.648-1.901c3.011,0,5.387,0.663,7.127,1.99c1.741,1.328,2.573,3.359,2.495,6.098h-13.415
					c0.039,1.062,0.47,1.885,1.296,2.474c0.826,0.589,1.855,0.883,3.087,0.883c0.839,0,1.543-0.151,2.117-0.456
					C209.521,300.184,209.952,299.693,210.248,299.017z M210.551,295.405c-0.037-1.034-0.438-1.821-1.199-2.36
					c-0.761-0.539-1.69-0.807-2.782-0.807c-1.17,0-2.135,0.284-2.896,0.851c-0.764,0.569-1.137,1.339-1.126,2.316
					C202.548,295.405,210.551,295.405,210.551,295.405z"/>
				<path d="M229.742,289.807v2.85h-3.655v5.442c0,1.103,0.032,1.745,0.103,1.926c0.071,0.183,0.229,0.333,0.477,0.449
					c0.245,0.119,0.55,0.179,0.906,0.179c0.498,0,1.213-0.115,2.153-0.342l0.456,2.772c-1.243,0.355-2.653,0.534-4.231,0.534
					c-0.965,0-1.835-0.108-2.61-0.326c-0.773-0.216-1.342-0.495-1.704-0.839c-0.36-0.342-0.61-0.807-0.752-1.39
					c-0.115-0.417-0.172-1.257-0.172-2.52v-5.887h-2.458v-2.85h2.458v-2.683l5.373-2.085v4.767H229.742z"/>
				<path d="M244.341,289.807v2.85h-3.658v5.442c0,1.103,0.032,1.745,0.103,1.926c0.071,0.183,0.229,0.333,0.479,0.449
					c0.245,0.119,0.548,0.179,0.906,0.179c0.495,0,1.213-0.115,2.153-0.342l0.456,2.772c-1.245,0.355-2.655,0.534-4.231,0.534
					c-0.965,0-1.837-0.108-2.61-0.326c-0.773-0.216-1.344-0.495-1.704-0.839c-0.362-0.342-0.612-0.807-0.754-1.39
					c-0.115-0.417-0.172-1.257-0.172-2.52v-5.887h-2.458v-2.85h2.458v-2.683l5.373-2.085v4.767H244.341z"/>
				<path d="M262.975,303.314v-2.02c-0.738,0.72-1.704,1.286-2.908,1.704c-1.202,0.415-2.467,0.624-3.8,0.624
					c-1.36,0-2.58-0.2-3.658-0.599c-1.08-0.397-1.864-0.959-2.344-1.679c-0.484-0.72-0.722-1.718-0.722-2.988v-8.549h5.352v6.208
					c0,1.899,0.099,3.061,0.296,3.488c0.195,0.429,0.555,0.768,1.075,1.02c0.521,0.248,1.181,0.374,1.981,0.374
					c0.915,0,1.734-0.167,2.458-0.5c0.722-0.337,1.218-0.752,1.486-1.247c0.268-0.495,0.399-1.708,0.399-3.642v-5.701h5.357v13.504
					h-4.974V303.314z"/>
				<path d="M279.165,303.314h-5.355v-13.507h4.974v1.919c0.848-0.908,1.614-1.504,2.293-1.793c0.681-0.289,1.452-0.433,2.316-0.433
					c1.222,0,2.394,0.225,3.525,0.674l-1.656,3.116c-0.901-0.39-1.741-0.585-2.513-0.585c-0.752,0-1.387,0.138-1.908,0.413
					c-0.521,0.275-0.931,0.773-1.231,1.493c-0.296,0.72-0.445,2.231-0.445,4.529V303.314z"/>
				<path d="M295.1,293.928l-4.859-0.585c0.546-1.305,1.486-2.273,2.821-2.901c1.335-0.626,3.316-0.94,5.946-0.94
					c2.385,0,4.164,0.188,5.334,0.566c1.169,0.376,1.99,0.858,2.467,1.438c0.477,0.58,0.713,1.646,0.713,3.197l-0.057,4.171
					c0,1.186,0.087,2.064,0.259,2.626c0.172,0.564,0.493,1.17,0.963,1.812h-5.302c-0.14-0.238-0.312-0.589-0.514-1.055
					c-0.087-0.213-0.151-0.351-0.188-0.42c-0.915,0.594-1.894,1.037-2.935,1.335c-1.041,0.296-2.153,0.445-3.334,0.445
					c-2.082,0-3.726-0.378-4.926-1.131c-1.199-0.757-1.802-1.708-1.802-2.862c0-0.761,0.275-1.44,0.821-2.041
					c0.546-0.599,1.309-1.055,2.293-1.374c0.984-0.316,2.403-0.596,4.261-0.832c2.502-0.312,4.235-0.605,5.201-0.876v-0.355
					c0-0.688-0.252-1.179-0.759-1.47c-0.509-0.291-1.468-0.438-2.878-0.438c-0.954,0-1.697,0.126-2.227,0.374
					C295.859,292.862,295.428,293.302,295.1,293.928z M302.261,296.827c-0.686,0.154-1.77,0.337-3.256,0.548
					c-1.488,0.211-2.458,0.42-2.917,0.624c-0.699,0.33-1.046,0.75-1.046,1.259c0,0.498,0.28,0.931,0.839,1.296
					c0.557,0.365,1.27,0.548,2.13,0.548c0.968,0,1.887-0.213,2.763-0.638c0.649-0.321,1.073-0.715,1.28-1.181
					c0.138-0.305,0.206-0.885,0.206-1.743V296.827z"/>
				<path d="M343.758,303.314h-4.972v-1.984c-0.826,0.77-1.802,1.346-2.926,1.722c-1.124,0.378-2.256,0.566-3.401,0.566
					c-2.325,0-4.316-0.626-5.974-1.876c-1.656-1.25-2.486-2.995-2.486-5.233c0-2.286,0.807-4.027,2.419-5.219
					c1.612-1.19,3.651-1.786,6.116-1.786c2.261,0,4.215,0.628,5.868,1.883v-6.714h5.355L343.758,303.314L343.758,303.314z
					 M329.47,296.267c0,1.44,0.296,2.486,0.894,3.128c0.865,0.933,2.071,1.399,3.621,1.399c1.234,0,2.279-0.349,3.144-1.05
					c0.865-0.699,1.296-1.743,1.296-3.132c0-1.55-0.42-2.669-1.259-3.35c-0.837-0.683-1.91-1.023-3.22-1.023
					c-1.273,0-2.334,0.337-3.192,1.011C329.898,293.924,329.47,294.93,329.47,296.267z"/>
				<path d="M361.303,299.017l5.334,0.599c-0.686,1.305-1.768,2.298-3.249,2.981c-1.479,0.683-3.33,1.023-5.554,1.023
					c-3.518,0-6.123-0.766-7.813-2.302c-1.335-1.229-2-2.779-2-4.653c0-2.238,0.876-3.992,2.63-5.26
					c1.752-1.266,3.967-1.901,6.648-1.901c3.013,0,5.387,0.663,7.127,1.99c1.741,1.328,2.573,3.359,2.495,6.098h-13.415
					c0.039,1.062,0.47,1.885,1.296,2.474c0.826,0.589,1.855,0.883,3.087,0.883c0.839,0,1.543-0.151,2.117-0.456
					C360.579,300.184,361.012,299.693,361.303,299.017z M361.608,295.405c-0.037-1.034-0.438-1.821-1.199-2.36
					c-0.761-0.539-1.69-0.807-2.782-0.807c-1.17,0-2.135,0.284-2.896,0.851c-0.761,0.569-1.137,1.339-1.126,2.316
					C353.605,295.405,361.608,295.405,361.608,295.405z"/>
				<path d="M373.445,304.204l6.116,0.498c0.103,0.475,0.339,0.803,0.706,0.979c0.507,0.252,1.309,0.381,2.401,0.381
					c1.397,0,2.444-0.138,3.144-0.42c0.47-0.186,0.826-0.488,1.069-0.904c0.165-0.296,0.245-0.844,0.245-1.64v-1.972
					c-1.598,1.458-3.619,2.188-6.056,2.188c-2.72,0-4.873-0.766-6.462-2.302c-1.243-1.211-1.864-2.72-1.864-4.527
					c0-2.263,0.814-3.995,2.447-5.189c1.633-1.195,3.662-1.793,6.088-1.793c2.502,0,4.566,0.734,6.194,2.199v-1.894h5.011v12.119
					c0,1.596-0.197,2.786-0.592,3.575c-0.394,0.787-0.947,1.406-1.658,1.857c-0.711,0.447-1.66,0.8-2.848,1.055
					c-1.188,0.255-2.692,0.383-4.508,0.383c-3.428,0-5.861-0.392-7.297-1.179c-1.438-0.784-2.153-1.777-2.153-2.981
					C373.427,304.518,373.434,304.371,373.445,304.204z M378.227,296.281c0,1.433,0.417,2.483,1.247,3.149
					c0.832,0.665,1.86,0.998,3.077,0.998c1.307,0,2.412-0.342,3.316-1.023c0.904-0.681,1.353-1.695,1.353-3.032
					c0-1.399-0.433-2.438-1.296-3.114c-0.865-0.679-1.956-1.018-3.277-1.018c-1.282,0-2.339,0.333-3.171,0.998
					C378.644,293.901,378.227,294.917,378.227,296.281z"/>
				<path d="M398.326,303.314v-18.641h5.355v18.641H398.326z"/>
				<path d="M410.491,287.977v-3.307h5.355v3.307H410.491z M410.491,303.314v-13.507h5.355v13.504h-5.355V303.314z"/>
				<path d="M432.451,287.977v-3.307h5.355v3.307H432.451z M432.451,303.314v-13.507h5.355v13.504h-5.355V303.314z"/>
				<path d="M463.025,303.314h-5.355v-6.891c0-1.458-0.115-2.401-0.342-2.83c-0.229-0.429-0.603-0.759-1.117-0.998
					c-0.514-0.236-1.133-0.355-1.857-0.355c-0.926,0-1.759,0.17-2.495,0.507c-0.738,0.339-1.243,0.789-1.516,1.348
					c-0.273,0.557-0.408,1.594-0.408,3.103v6.116h-5.355v-13.507h4.972v1.984c1.766-1.527,3.99-2.289,6.671-2.289
					c1.179,0,2.261,0.142,3.238,0.427c0.977,0.284,1.718,0.647,2.22,1.087c0.502,0.443,0.853,0.94,1.048,1.5
					c0.197,0.56,0.296,1.36,0.296,2.403V303.314z"/>
				<path d="M480.703,289.807v2.85h-3.66v5.442c0,1.103,0.034,1.745,0.105,1.926c0.071,0.183,0.229,0.333,0.477,0.449
					c0.248,0.119,0.548,0.179,0.906,0.179c0.495,0,1.213-0.115,2.153-0.342l0.456,2.772c-1.245,0.355-2.653,0.534-4.229,0.534
					c-0.968,0-1.837-0.108-2.612-0.326c-0.773-0.216-1.342-0.495-1.706-0.839c-0.362-0.342-0.612-0.807-0.752-1.39
					c-0.115-0.417-0.172-1.257-0.172-2.52v-5.887h-2.458v-2.85h2.458v-2.683l5.371-2.085v4.767H480.703z"/>
				<path d="M495.354,299.017l5.334,0.599c-0.686,1.305-1.768,2.298-3.249,2.981c-1.479,0.683-3.33,1.023-5.554,1.023
					c-3.518,0-6.123-0.766-7.813-2.302c-1.335-1.229-2-2.779-2-4.653c0-2.238,0.876-3.992,2.63-5.26
					c1.752-1.266,3.967-1.901,6.648-1.901c3.013,0,5.387,0.663,7.127,1.99c1.741,1.328,2.573,3.359,2.495,6.098h-13.415
					c0.039,1.062,0.47,1.885,1.296,2.474c0.826,0.589,1.855,0.883,3.087,0.883c0.839,0,1.546-0.151,2.117-0.456
					C494.63,300.184,495.063,299.693,495.354,299.017z M495.657,295.405c-0.037-1.034-0.438-1.821-1.199-2.36
					c-0.761-0.539-1.69-0.807-2.782-0.807c-1.169,0-2.135,0.284-2.896,0.851c-0.761,0.569-1.137,1.339-1.126,2.316
					C487.654,295.405,495.657,295.405,495.657,295.405z"/>
				<path d="M513.117,303.314h-5.355v-13.507h4.972v1.919c0.853-0.908,1.617-1.504,2.295-1.793c0.681-0.289,1.452-0.433,2.316-0.433
					c1.22,0,2.394,0.225,3.527,0.674l-1.658,3.116c-0.901-0.39-1.741-0.585-2.516-0.585c-0.75,0-1.385,0.138-1.906,0.413
					c-0.521,0.275-0.931,0.773-1.229,1.493c-0.298,0.72-0.449,2.231-0.449,4.529v4.174H513.117z"/>
				<path d="M541.039,303.314h-5.354v-6.891c0-1.458-0.115-2.401-0.342-2.83c-0.229-0.429-0.603-0.759-1.117-0.998
					c-0.514-0.236-1.133-0.355-1.857-0.355c-0.926,0-1.759,0.17-2.495,0.507c-0.738,0.339-1.243,0.789-1.516,1.348
					c-0.273,0.557-0.408,1.594-0.408,3.103v6.116h-5.355v-13.507h4.972v1.984c1.766-1.527,3.99-2.289,6.671-2.289
					c1.181,0,2.261,0.142,3.238,0.427c0.977,0.284,1.718,0.647,2.22,1.087c0.502,0.443,0.853,0.94,1.048,1.5
					c0.197,0.56,0.296,1.36,0.296,2.403V303.314z"/>
				<path d="M549.432,287.977v-3.307h5.355v3.307H549.432z M549.432,303.314v-13.507h5.355v13.504h-5.355V303.314z"/>
			</g>
		</g>
	</g>
</g>
<g id="Layer_3" display="none">
	<g display="inline">
		<polygon fill="#D3072A" points="241.21,299.418 395.318,299.418 395.32,308.795 241.208,308.795 		"/>
		<path fill="#FFFFFF" d="M246.223,306.229c0.255,0,0.466-0.025,0.631-0.08c0.294-0.099,0.534-0.289,0.72-0.569
			c0.149-0.225,0.257-0.514,0.323-0.865c0.039-0.211,0.057-0.404,0.057-0.585c0-0.69-0.138-1.227-0.413-1.607
			c-0.273-0.381-0.713-0.573-1.323-0.573h-1.339v4.277h1.344V306.229z M244.121,301.303h2.256c0.766,0,1.36,0.273,1.782,0.816
			c0.376,0.491,0.564,1.119,0.564,1.885c0,0.592-0.112,1.126-0.332,1.605c-0.392,0.844-1.066,1.266-2.02,1.266h-2.25
			L244.121,301.303L244.121,301.303z"/>
		<path fill="none" stroke="#FFFFFF" stroke-width="0.2835" stroke-miterlimit="3.8637" d="M246.223,306.229
			c0.255,0,0.466-0.025,0.631-0.08c0.294-0.099,0.534-0.289,0.72-0.569c0.149-0.225,0.257-0.514,0.323-0.865
			c0.039-0.211,0.057-0.404,0.057-0.585c0-0.69-0.138-1.227-0.413-1.607c-0.273-0.381-0.713-0.573-1.323-0.573h-1.339v4.277h1.344
			V306.229z M244.121,301.303h2.256c0.766,0,1.36,0.273,1.782,0.816c0.376,0.491,0.564,1.119,0.564,1.885
			c0,0.592-0.112,1.126-0.332,1.605c-0.392,0.844-1.066,1.266-2.02,1.266h-2.25L244.121,301.303L244.121,301.303z"/>
		<polygon fill="#FFFFFF" stroke="#FFFFFF" stroke-width="0.2835" stroke-miterlimit="3.8637" points="252.124,301.303 
			256.185,301.303 256.185,301.984 252.86,301.984 252.86,303.676 255.935,303.676 255.935,304.321 252.86,304.321 252.86,306.208 
			256.242,306.208 256.242,306.873 252.124,306.873 		"/>
		<path fill="#FFFFFF" stroke="#FFFFFF" stroke-width="0.2835" stroke-miterlimit="3.8637" d="M260.081,305.075
			c0.018,0.316,0.092,0.573,0.225,0.77c0.25,0.369,0.693,0.553,1.323,0.553c0.282,0,0.541-0.041,0.773-0.122
			c0.449-0.156,0.674-0.438,0.674-0.842c0-0.303-0.094-0.521-0.284-0.649c-0.193-0.126-0.493-0.236-0.904-0.33l-0.754-0.17
			c-0.493-0.112-0.842-0.234-1.046-0.367c-0.353-0.232-0.532-0.58-0.532-1.043c0-0.5,0.172-0.913,0.518-1.231
			c0.346-0.321,0.837-0.482,1.472-0.482c0.585,0,1.08,0.142,1.486,0.424c0.41,0.28,0.615,0.732,0.615,1.351h-0.709
			c-0.039-0.298-0.119-0.527-0.243-0.686c-0.229-0.291-0.621-0.436-1.172-0.436c-0.445,0-0.766,0.094-0.959,0.28
			c-0.195,0.188-0.291,0.404-0.291,0.651c0,0.273,0.115,0.472,0.342,0.599c0.149,0.08,0.486,0.181,1.014,0.303l0.782,0.179
			c0.376,0.087,0.667,0.204,0.871,0.353c0.353,0.259,0.53,0.638,0.532,1.133c0,0.617-0.225,1.057-0.674,1.323
			c-0.447,0.266-0.968,0.397-1.562,0.397c-0.693,0-1.236-0.177-1.626-0.53c-0.392-0.351-0.585-0.828-0.576-1.429H260.081
			L260.081,305.075z"/>
		<polygon fill="#FFFFFF" stroke="#FFFFFF" stroke-width="0.2835" stroke-miterlimit="3.8637" points="267.297,301.303 
			268.059,301.303 268.059,306.873 267.297,306.873 		"/>
		<path fill="#FFFFFF" stroke="#FFFFFF" stroke-width="0.2835" stroke-miterlimit="3.8637" d="M275.406,301.461
			c0.553,0.291,0.892,0.8,1.016,1.527h-0.748c-0.092-0.406-0.28-0.702-0.564-0.887c-0.287-0.188-0.647-0.28-1.08-0.28
			c-0.516,0-0.952,0.193-1.305,0.58c-0.351,0.388-0.527,0.963-0.527,1.729c0,0.663,0.144,1.202,0.436,1.619
			c0.291,0.415,0.764,0.621,1.422,0.621c0.502,0,0.92-0.144,1.247-0.436c0.33-0.294,0.5-0.766,0.509-1.417h-1.745v-0.626h2.447
			v2.981h-0.486l-0.181-0.718c-0.255,0.28-0.482,0.475-0.679,0.585c-0.33,0.188-0.752,0.28-1.264,0.28
			c-0.66,0-1.227-0.213-1.704-0.64c-0.518-0.537-0.777-1.27-0.777-2.206c0-0.933,0.252-1.674,0.759-2.227
			c0.482-0.525,1.103-0.789,1.867-0.789C274.571,301.159,275.025,301.259,275.406,301.461L275.406,301.461z"/>
		<polygon fill="#FFFFFF" stroke="#FFFFFF" stroke-width="0.2835" stroke-miterlimit="3.8637" points="280.038,301.303 
			280.93,301.303 283.744,305.814 283.744,301.303 284.462,301.303 284.462,306.873 283.616,306.873 280.761,302.365 
			280.761,306.873 280.038,306.873 		"/>
		<path fill="#FFFFFF" stroke="#FFFFFF" stroke-width="0.2835" stroke-miterlimit="3.8637" d="M296.51,301.709
			c0.39,0.371,0.605,0.793,0.649,1.266h-0.736c-0.083-0.358-0.25-0.644-0.5-0.853c-0.248-0.209-0.596-0.314-1.046-0.314
			c-0.548,0-0.993,0.193-1.33,0.58c-0.337,0.385-0.504,0.975-0.504,1.77c0,0.651,0.151,1.181,0.454,1.589
			c0.305,0.404,0.761,0.608,1.364,0.608c0.557,0,0.979-0.213,1.27-0.64c0.154-0.225,0.268-0.521,0.346-0.887h0.736
			c-0.067,0.587-0.282,1.078-0.651,1.475c-0.443,0.477-1.039,0.718-1.791,0.718c-0.647,0-1.19-0.197-1.63-0.587
			c-0.58-0.518-0.869-1.319-0.869-2.401c0-0.821,0.218-1.495,0.651-2.02c0.47-0.571,1.119-0.858,1.945-0.858
			C295.572,301.149,296.12,301.335,296.51,301.709L296.51,301.709z"/>
		<path fill="#FFFFFF" d="M305.075,302.099c0.369,0.493,0.553,1.124,0.553,1.892c0,0.832-0.211,1.523-0.633,2.075
			c-0.495,0.647-1.202,0.97-2.119,0.97c-0.858,0-1.53-0.282-2.02-0.848c-0.438-0.546-0.656-1.236-0.656-2.071
			c0-0.754,0.188-1.399,0.562-1.933c0.479-0.688,1.19-1.032,2.13-1.032C303.873,301.149,304.6,301.466,305.075,302.099
			L305.075,302.099z M304.408,305.649c0.298-0.477,0.447-1.027,0.447-1.646c0-0.654-0.172-1.181-0.516-1.58
			c-0.342-0.399-0.809-0.599-1.403-0.599c-0.576,0-1.046,0.2-1.41,0.596c-0.365,0.394-0.546,0.977-0.546,1.747
			c0,0.617,0.156,1.137,0.466,1.562c0.314,0.422,0.821,0.633,1.52,0.633C303.63,306.359,304.112,306.123,304.408,305.649
			L304.408,305.649z"/>
		<path fill="none" stroke="#FFFFFF" stroke-width="0.2835" stroke-miterlimit="3.8637" d="M305.075,302.099
			c0.369,0.493,0.553,1.124,0.553,1.892c0,0.832-0.211,1.523-0.633,2.075c-0.495,0.647-1.202,0.97-2.119,0.97
			c-0.858,0-1.53-0.282-2.02-0.848c-0.438-0.546-0.656-1.236-0.656-2.071c0-0.754,0.188-1.399,0.562-1.933
			c0.479-0.688,1.19-1.032,2.13-1.032C303.873,301.149,304.6,301.466,305.075,302.099L305.075,302.099z M304.408,305.649
			c0.298-0.477,0.447-1.027,0.447-1.646c0-0.654-0.172-1.181-0.516-1.58c-0.342-0.399-0.809-0.599-1.403-0.599
			c-0.576,0-1.046,0.2-1.41,0.596c-0.365,0.394-0.546,0.977-0.546,1.747c0,0.617,0.156,1.137,0.466,1.562
			c0.314,0.422,0.821,0.633,1.52,0.633C303.63,306.359,304.112,306.123,304.408,305.649L304.408,305.649z"/>
		<polygon fill="#FFFFFF" stroke="#FFFFFF" stroke-width="0.2835" stroke-miterlimit="3.8637" points="308.884,301.303 
			309.776,301.303 312.59,305.814 312.59,301.303 313.305,301.303 313.305,306.873 312.459,306.873 309.604,302.365 
			309.604,306.873 308.884,306.873 		"/>
		<polygon fill="#FFFFFF" stroke="#FFFFFF" stroke-width="0.2835" stroke-miterlimit="3.8637" points="320.902,301.303 
			320.902,301.966 319.027,301.966 319.027,306.873 318.261,306.873 318.261,301.966 316.383,301.966 316.383,301.303 		"/>
		<polygon fill="#FFFFFF" stroke="#FFFFFF" stroke-width="0.2835" stroke-miterlimit="3.8637" points="324.023,301.303 
			328.085,301.303 328.085,301.984 324.759,301.984 324.759,303.676 327.835,303.676 327.835,304.321 324.759,304.321 
			324.759,306.208 328.14,306.208 328.14,306.873 324.023,306.873 		"/>
		<path fill="#FFFFFF" stroke="#FFFFFF" stroke-width="0.2835" stroke-miterlimit="3.8637" d="M331.469,301.303h1.08l1.601,4.71
			l1.589-4.71h1.069v5.57h-0.718v-3.288c0-0.115,0.002-0.303,0.007-0.564c0.005-0.264,0.009-0.543,0.009-0.846l-1.589,4.699h-0.748
			l-1.601-4.699v0.17c0,0.138,0.002,0.346,0.007,0.626c0.007,0.277,0.011,0.484,0.011,0.615v3.288h-0.722v-5.57H331.469z"/>
		<path fill="#FFFFFF" d="M340.387,301.303h2.506c0.495,0,0.894,0.14,1.197,0.422c0.303,0.277,0.454,0.67,0.454,1.176
			c0,0.436-0.135,0.814-0.406,1.137c-0.271,0.321-0.686,0.482-1.247,0.482h-1.752v2.355h-0.754v-5.572H340.387z M343.329,302.069
			c-0.167-0.078-0.397-0.117-0.686-0.117h-1.502v1.931h1.502c0.339,0,0.612-0.071,0.823-0.216c0.213-0.144,0.319-0.399,0.319-0.761
			C343.784,302.493,343.632,302.216,343.329,302.069L343.329,302.069z"/>
		<path fill="none" stroke="#FFFFFF" stroke-width="0.2835" stroke-miterlimit="3.8637" d="M340.387,301.303h2.506
			c0.495,0,0.894,0.14,1.197,0.422c0.303,0.277,0.454,0.67,0.454,1.176c0,0.436-0.135,0.814-0.406,1.137
			c-0.271,0.321-0.686,0.482-1.247,0.482h-1.752v2.355h-0.754v-5.572H340.387z M343.329,302.069
			c-0.167-0.078-0.397-0.117-0.686-0.117h-1.502v1.931h1.502c0.339,0,0.612-0.071,0.823-0.216c0.213-0.144,0.319-0.399,0.319-0.761
			C343.784,302.493,343.632,302.216,343.329,302.069L343.329,302.069z"/>
		<path fill="#FFFFFF" d="M352.44,302.099c0.369,0.493,0.553,1.124,0.553,1.892c0,0.832-0.211,1.523-0.633,2.075
			c-0.495,0.647-1.202,0.97-2.119,0.97c-0.858,0-1.53-0.282-2.02-0.848c-0.438-0.546-0.656-1.236-0.656-2.071
			c0-0.754,0.186-1.399,0.562-1.933c0.479-0.688,1.19-1.032,2.13-1.032C351.239,301.149,351.968,301.466,352.44,302.099
			L352.44,302.099z M351.773,305.649c0.298-0.477,0.447-1.027,0.447-1.646c0-0.654-0.172-1.181-0.516-1.58
			c-0.342-0.399-0.809-0.599-1.403-0.599c-0.578,0-1.048,0.2-1.41,0.596c-0.365,0.394-0.546,0.977-0.546,1.747
			c0,0.617,0.156,1.137,0.466,1.562c0.314,0.422,0.821,0.633,1.52,0.633C350.998,306.359,351.477,306.123,351.773,305.649
			L351.773,305.649z"/>
		<path fill="none" stroke="#FFFFFF" stroke-width="0.2835" stroke-miterlimit="3.8637" d="M352.44,302.099
			c0.369,0.493,0.553,1.124,0.553,1.892c0,0.832-0.211,1.523-0.633,2.075c-0.495,0.647-1.202,0.97-2.119,0.97
			c-0.858,0-1.53-0.282-2.02-0.848c-0.438-0.546-0.656-1.236-0.656-2.071c0-0.754,0.186-1.399,0.562-1.933
			c0.479-0.688,1.19-1.032,2.13-1.032C351.239,301.149,351.968,301.466,352.44,302.099L352.44,302.099z M351.773,305.649
			c0.298-0.477,0.447-1.027,0.447-1.646c0-0.654-0.172-1.181-0.516-1.58c-0.342-0.399-0.809-0.599-1.403-0.599
			c-0.578,0-1.048,0.2-1.41,0.596c-0.365,0.394-0.546,0.977-0.546,1.747c0,0.617,0.156,1.137,0.466,1.562
			c0.314,0.422,0.821,0.633,1.52,0.633C350.998,306.359,351.477,306.123,351.773,305.649L351.773,305.649z"/>
		<path fill="#FFFFFF" d="M358.84,303.855c0.355,0,0.633-0.071,0.839-0.213s0.31-0.397,0.31-0.766c0-0.397-0.144-0.667-0.433-0.812
			c-0.154-0.076-0.36-0.115-0.617-0.115h-1.844v1.903h1.745V303.855z M356.341,301.303h2.58c0.424,0,0.775,0.062,1.05,0.186
			c0.523,0.238,0.784,0.676,0.784,1.316c0,0.335-0.069,0.608-0.209,0.819c-0.135,0.213-0.328,0.383-0.578,0.511
			c0.218,0.087,0.381,0.204,0.491,0.349s0.172,0.378,0.186,0.702l0.027,0.748c0.007,0.211,0.025,0.371,0.053,0.475
			c0.046,0.177,0.126,0.291,0.243,0.342v0.126h-0.924c-0.025-0.048-0.046-0.11-0.062-0.186c-0.016-0.076-0.027-0.222-0.039-0.44
			l-0.046-0.929c-0.018-0.365-0.154-0.608-0.406-0.732c-0.144-0.069-0.369-0.103-0.679-0.103h-1.718v2.389h-0.754L356.341,301.303
			L356.341,301.303z"/>
		<path fill="none" stroke="#FFFFFF" stroke-width="0.2835" stroke-miterlimit="3.8637" d="M358.84,303.855
			c0.355,0,0.633-0.071,0.839-0.213s0.31-0.397,0.31-0.766c0-0.397-0.144-0.667-0.433-0.812c-0.154-0.076-0.36-0.115-0.617-0.115
			h-1.844v1.903h1.745V303.855z M356.341,301.303h2.58c0.424,0,0.775,0.062,1.05,0.186c0.523,0.238,0.784,0.676,0.784,1.316
			c0,0.335-0.069,0.608-0.209,0.819c-0.135,0.213-0.328,0.383-0.578,0.511c0.218,0.087,0.381,0.204,0.491,0.349
			s0.172,0.378,0.186,0.702l0.027,0.748c0.007,0.211,0.025,0.371,0.053,0.475c0.046,0.177,0.126,0.291,0.243,0.342v0.126h-0.924
			c-0.025-0.048-0.046-0.11-0.062-0.186c-0.016-0.076-0.027-0.222-0.039-0.44l-0.046-0.929c-0.018-0.365-0.154-0.608-0.406-0.732
			c-0.144-0.069-0.369-0.103-0.679-0.103h-1.718v2.389h-0.754L356.341,301.303L356.341,301.303z"/>
		<path fill="#FFFFFF" d="M367.075,304.589l-0.846-2.461l-0.899,2.461H367.075L367.075,304.589z M365.835,301.303h0.853l2.02,5.57
			h-0.826l-0.564-1.669h-2.204l-0.603,1.669h-0.773L365.835,301.303L365.835,301.303z"/>
		<path fill="none" stroke="#FFFFFF" stroke-width="0.2835" stroke-miterlimit="3.8637" d="M367.075,304.589l-0.846-2.461
			l-0.899,2.461H367.075L367.075,304.589z M365.835,301.303h0.853l2.02,5.57h-0.826l-0.564-1.669h-2.204l-0.603,1.669h-0.773
			L365.835,301.303L365.835,301.303z"/>
		<polygon fill="#FFFFFF" stroke="#FFFFFF" stroke-width="0.2835" stroke-miterlimit="3.8637" points="371.753,301.303 
			372.643,301.303 375.459,305.814 375.459,301.303 376.174,301.303 376.174,306.873 375.328,306.873 372.473,302.365 
			372.473,306.873 371.753,306.873 		"/>
		<polygon fill="#FFFFFF" stroke="#FFFFFF" stroke-width="0.2835" stroke-miterlimit="3.8637" points="379.791,301.303 
			383.852,301.303 383.852,301.984 380.527,301.984 380.527,303.676 383.602,303.676 383.602,304.321 380.527,304.321 
			380.527,306.208 383.909,306.208 383.909,306.873 379.791,306.873 		"/>
		<path d="M279.016,176.213c2.876,0,5.109,0.693,6.698,2.073c1.589,1.383,2.383,3.224,2.385,5.527c0,1.454-0.342,2.74-1.025,3.859
			c-0.674,1.119-1.729,2.013-3.167,2.681c-1.429,0.658-3.052,0.988-4.873,0.988c-1.5,0-2.951-0.25-4.359-0.745
			c-1.399-0.498-2.529-1.323-3.394-2.479c-0.855-1.156-1.282-2.578-1.282-4.265c0-2.312,0.793-4.162,2.383-5.552
			C273.977,176.908,276.188,176.213,279.016,176.213L279.016,176.213z M279.107,187.482c0.463,0,0.901-0.112,1.312-0.337
			c0.413-0.234,0.734-0.64,0.965-1.22c0.241-0.578,0.362-1.314,0.362-2.208c0-1.3-0.298-2.289-0.89-2.965
			c-0.433-0.504-1.025-0.759-1.78-0.759c-0.784,0-1.438,0.298-1.961,0.894c-0.514,0.587-0.77,1.571-0.77,2.951
			c0,0.885,0.122,1.598,0.362,2.14c0.252,0.532,0.594,0.917,1.025,1.151C278.176,187.365,278.635,187.482,279.107,187.482
			L279.107,187.482z"/>
		<path d="M289.252,190.883l-0.002-19.678h6.336v6.84c0.594-0.615,1.241-1.073,1.947-1.38c0.713-0.307,1.548-0.461,2.504-0.461
			c1.981,0,3.651,0.683,5.008,2.046c1.367,1.364,2.052,3.238,2.052,5.621c0,1.5-0.287,2.821-0.86,3.967s-1.417,2.018-2.534,2.614
			c-1.105,0.587-2.348,0.881-3.726,0.881c-1.227,0-2.238-0.213-3.032-0.637c-0.796-0.433-1.463-1.043-2.007-1.828v2.018
			L289.252,190.883L289.252,190.883z M298.122,180.58c-0.775,0-1.417,0.271-1.931,0.812c-0.502,0.532-0.754,1.332-0.754,2.396
			c0,0.722,0.122,1.355,0.362,1.896c0.241,0.532,0.569,0.917,0.981,1.151c0.422,0.234,0.865,0.353,1.328,0.353
			c0.743,0,1.371-0.271,1.885-0.812c0.514-0.541,0.768-1.371,0.768-2.493c0-1.119-0.252-1.949-0.754-2.493
			C299.514,180.85,298.886,180.58,298.122,180.58L298.122,180.58z"/>
		<path d="M308.512,171.244h6.336v4.077h-6.336V171.244L308.512,171.244z M308.512,190.887V176.64l6.336,0.002v14.247
			L308.512,190.887L308.512,190.887z"/>
		<polygon points="316.846,190.887 316.846,171.21 323.136,171.21 323.138,190.89 		"/>
		<path d="M324.736,190.89v-14.289h5.822v2.222c0.764-0.931,1.569-1.598,2.412-2.004c0.855-0.406,1.855-0.61,3.002-0.61
			c1.951,0,3.458,0.488,4.527,1.463c1.075,0.965,1.612,2.408,1.614,4.32v8.897h-6.366v-7.868c0-0.83-0.202-1.431-0.603-1.8
			c-0.392-0.378-0.952-0.569-1.674-0.569c-0.713,0-1.293,0.22-1.736,0.663c-0.443,0.433-0.663,1.133-0.663,2.098v7.476H324.736
			L324.736,190.89z"/>
		<path d="M352.536,176.225c2.876,0,5.109,0.693,6.698,2.073c1.589,1.38,2.383,3.224,2.383,5.527c0,1.454-0.342,2.74-1.025,3.859
			c-0.674,1.119-1.729,2.013-3.169,2.681c-1.429,0.658-3.052,0.988-4.873,0.988c-1.5,0-2.951-0.25-4.359-0.745
			c-1.399-0.498-2.529-1.323-3.394-2.479c-0.855-1.156-1.282-2.577-1.282-4.265c0-2.311,0.793-4.162,2.383-5.552
			C347.496,176.92,349.709,176.225,352.536,176.225L352.536,176.225z M352.628,187.494c0.463,0,0.901-0.112,1.312-0.339
			c0.41-0.234,0.734-0.64,0.965-1.218c0.241-0.578,0.362-1.314,0.362-2.208c0-1.3-0.298-2.289-0.89-2.967
			c-0.433-0.504-1.027-0.759-1.78-0.759c-0.784,0-1.438,0.298-1.961,0.894c-0.514,0.587-0.771,1.571-0.771,2.951
			c0,0.885,0.122,1.598,0.362,2.14c0.252,0.532,0.594,0.917,1.025,1.151C351.697,187.377,352.154,187.494,352.628,187.494
			L352.628,187.494z"/>
		<polygon points="360.668,176.647 366.958,176.647 369.781,185.627 372.54,176.649 378.621,176.649 373.251,190.897 
			366.206,190.897 		"/>
		<path d="M386.581,176.232c2.876,0,5.109,0.693,6.698,2.073c1.589,1.383,2.383,3.224,2.385,5.527c0,1.454-0.342,2.74-1.027,3.859
			c-0.674,1.119-1.729,2.013-3.167,2.681c-1.429,0.658-3.052,0.988-4.873,0.988c-1.497,0-2.951-0.248-4.359-0.745
			c-1.399-0.498-2.532-1.323-3.394-2.479c-0.855-1.156-1.282-2.578-1.282-4.265c0-2.312,0.793-4.162,2.383-5.552
			C381.543,176.927,383.756,176.232,386.581,176.232L386.581,176.232z M386.672,187.498c0.463,0,0.901-0.112,1.312-0.339
			c0.413-0.234,0.734-0.64,0.965-1.218c0.241-0.578,0.362-1.314,0.362-2.208c0-1.3-0.298-2.289-0.89-2.965
			c-0.433-0.504-1.025-0.759-1.78-0.759c-0.784,0-1.438,0.298-1.963,0.894c-0.511,0.587-0.768,1.571-0.768,2.951
			c0,0.885,0.122,1.598,0.362,2.14c0.252,0.532,0.594,0.917,1.027,1.151C385.741,187.381,386.2,187.498,386.672,187.498
			L386.672,187.498z"/>
		<path d="M247.044,176.668v2.084c0.695-0.839,1.472-1.468,2.339-1.883c0.876-0.424,1.876-0.635,3.002-0.635
			c1.206,0,2.188,0.213,2.942,0.637c0.754,0.424,1.403,1.071,1.947,1.938c0.844-0.938,1.69-1.603,2.534-1.99
			c0.844-0.388,1.88-0.582,3.107-0.582c1.055,0,1.965,0.14,2.731,0.42c0.764,0.28,1.399,0.676,1.901,1.192
			c0.342,0.353,0.612,0.782,0.814,1.286c0.351,0.913,0.527,1.91,0.527,2.993v8.79h-6.29v-7.895c0-0.812-0.193-1.403-0.573-1.775
			c-0.371-0.378-0.881-0.569-1.523-0.569c-0.745,0-1.362,0.266-1.855,0.798c-0.342,0.378-0.514,1.034-0.514,1.963v7.476h-6.231
			v-7.639c0-0.894-0.135-1.518-0.408-1.869c-0.392-0.488-0.936-0.732-1.63-0.732c-0.713,0-1.293,0.22-1.734,0.663
			c-0.443,0.443-0.663,1.16-0.663,2.153v7.421h-6.214v-14.247L247.044,176.668L247.044,176.668z"/>
		<path fill="#482C1F" d="M327.401,214.998c0.91,1.053,1.789,2.231,2.633,3.534c2.252,3.444,3.965,7.395,5.144,11.858
			c1.176,4.43,1.766,9.191,1.766,14.284c0,5.061-0.495,9.716-1.486,13.965c-0.993,4.219-2.479,8.065-4.462,11.541
			c-2.293,4.002-4.887,7.024-7.778,9.069c-2.892,2.045-6.033,3.08-9.42,3.107c-4.018,0.03-7.634-1.319-10.849-4.047
			c-1.023-1.188-1.997-2.539-2.926-4.047c-4.401-7.18-6.6-16.073-6.6-26.683c0-4.995,0.599-9.732,1.798-14.213
			c1.197-4.481,2.954-8.526,5.267-12.133c2.149-3.41,4.554-5.992,7.219-7.742c2.685-1.784,5.588-2.688,8.707-2.711
			c3.16-0.025,6.084,0.835,8.769,2.578C325.938,213.833,326.679,214.381,327.401,214.998L327.401,214.998z M324.714,220.648
			c0.771,0.92,1.509,1.949,2.22,3.096c3.635,5.815,5.453,12.771,5.453,20.865c0,8.652-1.766,15.96-5.299,21.927
			c-3.534,5.937-7.861,8.923-12.984,8.962c-3.128,0.025-5.967-1.004-8.512-3.082c3.16,3.788,6.847,5.666,11.064,5.634
			c5.123-0.039,9.45-3.025,12.984-8.962c3.531-5.967,5.299-13.275,5.299-21.927c0-8.095-1.818-15.05-5.453-20.865
			C328.018,223.932,326.427,222.049,324.714,220.648L324.714,220.648z M303.041,269.862c2.548,2.08,5.384,3.107,8.512,3.082
			c5.123-0.039,9.45-3.025,12.984-8.962c3.531-5.967,5.299-13.275,5.299-21.927c0-8.095-1.818-15.05-5.453-20.865
			c-0.713-1.144-1.452-2.176-2.222-3.096c-2.525-2.066-5.313-3.089-8.365-3.066c-5.061,0.039-9.379,3.043-12.952,9.01
			c-3.554,5.937-5.329,13.082-5.329,21.436c0,8.455,1.798,15.589,5.391,21.404C301.589,267.981,302.3,268.974,303.041,269.862
			L303.041,269.862z M311.305,205.671c3.16-0.025,6.084,0.835,8.769,2.578c1.683,1.064,3.275,2.463,4.772,4.194
			c-0.722-0.617-1.461-1.163-2.22-1.644c-2.685-1.743-5.609-2.6-8.769-2.578c-3.119,0.023-6.022,0.929-8.707,2.711
			c-2.667,1.752-5.072,4.332-7.219,7.742c-2.314,3.609-4.07,7.655-5.267,12.133c-1.199,4.481-1.798,9.218-1.798,14.213
			c0,10.61,2.199,19.503,6.6,26.683c0.929,1.509,1.906,2.86,2.926,4.047c-1.977-1.679-3.804-3.878-5.478-6.6
			c-4.401-7.18-6.6-16.073-6.6-26.683c0-4.994,0.599-9.732,1.798-14.213c1.197-4.481,2.954-8.526,5.267-12.133
			c2.149-3.41,4.554-5.992,7.219-7.742C305.286,206.6,308.187,205.697,311.305,205.671L311.305,205.671z"/>
		<polygon fill="#482C1F" points="329.873,206.969 335.718,206.937 336.216,209.506 333.902,209.522 347.402,278.135 
			343.877,278.151 		"/>
		<polygon fill="#482C1F" points="347.941,259.412 356.107,206.781 360.166,206.749 360.562,209.318 358.659,209.331 
			350.496,261.964 352.133,270.416 361.211,211.886 363.748,211.87 371.045,255.344 380.522,206.593 384.829,206.559 
			384.327,209.136 383.074,209.146 372.962,261.498 374.317,270.244 385.627,211.698 388.356,211.689 374.915,280.509 
			371.902,280.52 363.014,224.991 362.149,231.889 369.35,277.968 367.199,277.984 360.019,231.025 352.016,280.676 
			349.954,280.688 336.452,212.074 338.768,212.058 		"/>
		<polygon fill="#482C1F" points="250.085,207.524 256.469,207.483 257.467,210.047 253.69,210.077 253.69,278.793 250.085,278.812 
					"/>
		<polygon fill="#482C1F" points="280.19,263.305 280.19,207.295 285.099,207.283 285.099,209.856 283.375,209.847 283.375,266.874 
			285.927,274.065 285.927,212.4 289.128,212.388 289.128,281.105 283.847,281.132 260.489,221.017 260.489,225.033 
			281.295,278.582 279.738,278.594 257.937,222.48 257.937,281.332 256.242,281.346 256.242,212.629 260.652,212.599 		"/>
	</g>
</g>
<g id="Layer_4" display="none">
	<g display="inline">
		<path d="M-185.913,233.852c0,4.917-5.125,8.902-11.445,8.902c-6.32,0-11.445-3.986-11.445-8.902V84.345
			c0-18.648-14.86-33.764-33.193-33.764s-33.193,15.117-33.193,33.764V214.14c0,15.802-12.81,28.614-28.614,28.614
			c-15.804,0-28.614-12.812-28.614-28.614l-0.021-171.01c0-6.32,5.125-11.445,11.445-11.445c6.322,0,11.445,5.125,11.445,11.445
			l0.021,171.021c0,3.16,2.561,5.724,5.721,5.724s5.724-2.561,5.724-5.724V83.774c0-30.976,25.108-56.084,56.084-56.084
			c30.974,0,56.084,25.11,56.084,56.084v150.078H-185.913z"/>
		<path d="M1019.408,233.852c0,4.917-5.123,8.902-11.445,8.902s-11.445-3.986-11.445-8.902V84.345
			c0-18.648-14.86-33.764-33.193-33.764s-33.191,15.117-33.191,33.764V214.14c0,15.802-12.81,28.614-28.614,28.614
			s-28.614-12.812-28.614-28.614l-0.021-171.01c0-6.32,5.125-11.445,11.445-11.445c6.322,0,11.445,5.125,11.445,11.445
			l0.023,171.021c0,3.16,2.562,5.724,5.721,5.724c3.16,0,5.721-2.561,5.721-5.724V83.774c0-30.976,25.11-56.084,56.084-56.084
			c30.976,0,56.084,25.11,56.084,56.084V233.852L1019.408,233.852z"/>
		<path d="M400.445-81.042h0.005c6.32,0,11.445,5.123,11.445,11.443v301.025c0,6.32-5.125,11.443-11.445,11.443h-0.005
			c-6.32,0-11.443-5.123-11.443-11.443V-69.599C389-75.919,394.123-81.042,400.445-81.042L400.445-81.042z"/>
		<path d="M824.391,32.27h0.005c6.32,0,11.443,5.123,11.443,11.443v187.711c0,6.32-5.123,11.443-11.443,11.443h-0.005
			c-6.32,0-11.443-5.123-11.443-11.443V43.712C812.948,37.393,818.071,32.27,824.391,32.27L824.391,32.27z"/>
		<path d="M824.391-10.397h0.005c6.32,0,11.443,5.123,11.443,11.443v6.87c0,6.32-5.123,11.443-11.443,11.443h-0.005
			c-6.32,0-11.443-5.123-11.443-11.443v-6.87C812.948-5.274,818.071-10.397,824.391-10.397L824.391-10.397z"/>
		<path d="M-608.04,136.695c0,47.411,38.431,85.842,85.842,85.842c47.411,0,85.842-38.431,85.842-85.842
			c0-47.409-38.431-85.842-85.842-85.842C-569.609,50.853-608.04,89.284-608.04,136.695L-608.04,136.695z M-436.535,69.717
			l-0.021-9.262c0-15.802,12.81-28.614,28.614-28.614c15.802,0,28.614,12.812,28.614,28.614l0.021,171.01
			c0,6.322-5.125,11.445-11.445,11.445c-6.32,0-11.445-5.125-11.445-11.445l-0.023-171.019c0-3.16-2.564-5.724-5.724-5.724
			c-3.16,0-5.721,2.561-5.721,5.724l0.202,76.25c0,60.053-48.681,108.735-108.735,108.735S-630.93,196.749-630.93,136.695
			s48.681-108.732,108.732-108.732C-487.411,27.961-456.44,44.297-436.535,69.717L-436.535,69.717z"/>
		<path d="M-97.434,205.454c14.33,10.725,32.129,17.084,51.413,17.084s37.08-6.359,51.413-17.091l32.827,0.009
			c-19.941,24.397-50.271,39.972-84.239,39.972c-33.966,0-64.296-15.573-84.235-39.97L-97.434,205.454L-97.434,205.454z
			 M96.872,205.454l0.002,22.108c0,68.87-55.747,124.654-124.617,124.654c-36.129,0-68.538-15.355-91.311-39.906
			c-2.075-2.245-3.224-4.951-3.224-7.946c0-6.322,5.125-11.445,11.445-11.445c3.775,0,7.123,1.828,9.207,4.646
			c18.552,19.563,44.792,31.76,73.883,31.76c56.228,0,101.974-45.538,101.974-101.766l-0.037-22.108L96.872,205.454L96.872,205.454z
			"/>
		<path d="M-130.256,205.454c-15.314-18.733-24.498-42.673-24.498-68.758c0-60.053,48.681-108.732,108.735-108.732
			c34.81,0,65.8,16.357,85.7,41.804l-0.053-9.537c0-15.802,12.812-28.614,28.614-28.614c15.804,0,28.614,12.812,28.614,28.614
			l0.016,145.226H74.197l-0.234-145.24c0-3.16-2.561-5.724-5.724-5.724c-3.162,0-5.721,2.561-5.721,5.724l0.195,76.479
			c0,26.085-9.184,50.023-24.496,68.758H5.391c20.902-15.665,34.429-40.632,34.429-68.758c0-47.409-38.431-85.842-85.842-85.842
			c-47.409,0-85.842,38.433-85.842,85.842c0,28.128,13.527,53.094,34.429,68.751L-130.256,205.454L-130.256,205.454z"/>
		<path d="M150.894,136.695c0-47.409,38.433-85.842,85.842-85.842c47.411,0,85.842,38.433,85.842,85.842
			c0,47.411-38.431,85.842-85.842,85.842C189.328,222.538,150.894,184.107,150.894,136.695L150.894,136.695z M128.004,136.695
			c0-60.053,48.681-108.732,108.732-108.732c60.053,0,108.735,48.681,108.735,108.732c0,60.053-48.681,108.735-108.735,108.735
			C176.686,245.428,128.004,196.746,128.004,136.695L128.004,136.695z"/>
		<path d="M465.924,136.695c0-47.409,38.431-85.842,85.842-85.842c47.409,0,85.842,38.433,85.842,85.842
			c0,47.411-38.431,85.842-85.842,85.842C504.355,222.538,465.924,184.107,465.924,136.695L465.924,136.695z M443.031,136.695
			c0-60.053,48.681-108.732,108.735-108.732s108.732,48.681,108.732,108.732c0,60.053-48.681,108.735-108.732,108.735
			C491.713,245.428,443.031,196.746,443.031,136.695L443.031,136.695z"/>
	</g>
</g>
<g id="Layer_5">
	<g>
		<path fill="#FFFFFF" d="M5.962,306.69v-58.677h22.342v8.581c2.724-3.451,5.797-6.01,9.205-7.664
			c3.415-1.653,7.34-2.479,11.773-2.479c4.05,0,7.551,0.809,10.487,2.422c2.938,1.619,5.568,4.194,7.875,7.721
			c2.993-3.527,6.269-6.118,9.84-7.769c3.559-1.653,7.577-2.486,12.046-2.486c7.281,0,12.924,1.784,16.942,5.345
			c4.02,3.566,6.029,8.567,6.029,15.009v40H88.28v-31.421c0-3.671-0.649-6.331-1.956-7.989c-1.305-1.651-3.426-2.483-6.343-2.483
			c-2.997,0-5.187,0.862-6.593,2.596c-1.399,1.722-2.103,4.423-2.103,8.095v31.198H47.179v-30.607c0-4.034-0.676-6.916-2.018-8.664
			c-1.351-1.743-3.557-2.617-6.63-2.617c-2.729,0-4.804,0.887-6.219,2.644c-1.419,1.766-2.133,4.341-2.133,7.721v31.524H5.962z"/>
		<path fill="#FFFFFF" d="M120.882,277.271c0-9.716,3.103-17.373,9.326-22.968c6.214-5.6,14.759-8.395,25.631-8.395
			c10.883,0,19.416,2.795,25.61,8.395c6.205,5.595,9.296,13.254,9.296,22.968c0,9.79-3.103,17.49-9.317,23.101
			c-6.219,5.614-14.75,8.423-25.589,8.423c-10.833,0-19.37-2.809-25.605-8.423C123.996,294.761,120.882,287.06,120.882,277.271
			 M145.723,277.271c0,5.43,0.791,9.338,2.357,11.711c1.575,2.378,4.162,3.566,7.758,3.566c3.603,0,6.205-1.202,7.817-3.589
			c1.617-2.396,2.424-6.292,2.424-11.691c0-5.364-0.807-9.223-2.424-11.585c-1.612-2.355-4.215-3.529-7.817-3.529
			c-3.596,0-6.182,1.169-7.758,3.506C146.517,268.006,145.723,271.873,145.723,277.271"/>
		<path fill="#FFFFFF" d="M199.069,306.69v-79.52h23.989v26.995c2.428-2.591,5.132-4.543,8.102-5.859
			c2.97-1.309,6.166-1.968,9.583-1.968c8.102,0,14.614,2.839,19.524,8.531c4.91,5.682,7.359,13.257,7.359,22.725
			c0,9.39-2.428,16.942-7.304,22.645c-4.866,5.708-11.28,8.556-19.242,8.556c-4.171,0-7.918-0.761-11.255-2.291
			c-3.339-1.53-6.327-3.864-8.985-6.992v7.175h-21.771V306.69z M222.829,277.972c0,4.245,0.89,7.57,2.672,9.959
			c1.786,2.396,4.263,3.593,7.453,3.593c3.139,0,5.6-1.192,7.359-3.568c1.757-2.371,2.644-5.698,2.644-9.984
			c0-4.644-0.816-8.074-2.442-10.285c-1.637-2.217-4.158-3.318-7.561-3.318c-3.449,0-6.001,1.112-7.65,3.346
			C223.652,269.951,222.829,273.37,222.829,277.972"/>
		<path fill="#FFFFFF" d="M276.562,225.23h24.787v16.791h-24.787V225.23z M276.562,248.015h24.787v58.68h-24.787V248.015z"/>
		<rect x="313.401" y="227.177" fill="#FFFFFF" width="24.791" height="79.518"/>
		<path fill="#FFFFFF" d="M349.262,306.69v-58.677h22.342v8.581c2.883-3.417,6.095-5.967,9.636-7.634
			c3.543-1.674,7.551-2.506,12.025-2.506c3.752,0,7.107,0.589,10.06,1.775c2.958,1.186,5.455,2.954,7.505,5.29
			c1.855,2.126,3.174,4.706,3.953,7.749c0.773,3.041,1.165,8.019,1.165,14.928v30.497h-24.562v-30.389
			c0-4.467-0.624-7.538-1.874-9.207c-1.25-1.676-3.412-2.511-6.485-2.511c-3.105,0-5.416,0.972-6.939,2.917
			c-1.511,1.94-2.268,4.91-2.268,8.909v30.281h-24.56V306.69z"/>
		<path fill="#FFFFFF" d="M423.7,277.271c0-9.716,3.107-17.373,9.322-22.968c6.214-5.6,14.759-8.395,25.638-8.395
			c10.876,0,19.416,2.795,25.605,8.395c6.203,5.595,9.299,13.254,9.299,22.968c0,9.79-3.107,17.49-9.324,23.101
			c-6.212,5.614-14.743,8.423-25.58,8.423c-10.84,0-19.379-2.809-25.61-8.423C426.816,294.761,423.7,287.06,423.7,277.271
			 M448.54,277.271c0,5.43,0.784,9.338,2.36,11.711c1.571,2.378,4.155,3.566,7.76,3.566c3.603,0,6.203-1.202,7.817-3.589
			c1.61-2.396,2.417-6.292,2.417-11.691c0-5.364-0.807-9.223-2.417-11.585c-1.614-2.355-4.217-3.529-7.817-3.529
			c-3.603,0-6.189,1.169-7.76,3.506C449.324,268.006,448.54,271.873,448.54,277.271"/>
		<polygon fill="#FFFFFF" points="516.098,306.69 494.554,248.012 518.997,248.012 529.683,283.263 540.204,248.012 
			563.569,248.012 543.554,306.69 		"/>
		<path fill="#FFFFFF" d="M564.174,277.271c0-9.716,3.107-17.373,9.322-22.968c6.214-5.6,14.759-8.395,25.638-8.395
			c10.876,0,19.416,2.795,25.61,8.395c6.198,5.595,9.294,13.254,9.294,22.968c0,9.79-3.107,17.49-9.324,23.101
			c-6.214,5.614-14.743,8.423-25.58,8.423c-10.84,0-19.37-2.809-25.608-8.423C567.291,294.761,564.174,287.06,564.174,277.271
			 M589.014,277.271c0,5.43,0.784,9.338,2.36,11.711c1.571,2.378,4.155,3.566,7.76,3.566c3.603,0,6.203-1.202,7.817-3.589
			c1.61-2.396,2.415-6.292,2.415-11.691c0-5.364-0.807-9.223-2.415-11.585c-1.614-2.355-4.217-3.529-7.817-3.529
			c-3.603,0-6.189,1.169-7.76,3.506C589.798,268.006,589.014,271.873,589.014,277.271"/>
		<path fill="#FFFFFF" d="M377.131,187.418c3.963,0,7.687,0.991,11.172,2.972c3.488,1.981,6.212,4.671,8.168,8.067
			c1.956,3.398,2.935,7.065,2.935,11.003c0,3.963-0.986,7.671-2.956,11.117c-1.97,3.449-4.651,6.146-8.047,8.088
			c-3.398,1.942-7.143,2.915-11.236,2.915c-6.022,0-11.163-2.142-15.422-6.428c-4.258-4.286-6.389-9.489-6.389-15.616
			c0-6.561,2.408-12.03,7.219-16.405C366.798,189.323,371.65,187.418,377.131,187.418z M377.305,197.34
			c-3.277,0-6.003,1.137-8.177,3.415c-2.178,2.277-3.268,5.192-3.268,8.744c0,3.655,1.078,6.616,3.231,8.879
			c2.151,2.263,4.875,3.398,8.175,3.398c3.3,0,6.045-1.144,8.235-3.437c2.192-2.289,3.288-5.235,3.288-8.84
			c0-3.603-1.073-6.531-3.226-8.781C383.409,198.466,380.655,197.34,377.305,197.34z"/>
		<path fill="#FFFFFF" d="M416.972,188.498h3.745c0.025-5.506,0.117-8.762,0.271-9.767c0.28-2.316,1.252-4.148,2.915-5.499
			c1.66-1.353,4.006-2.027,7.045-2.027c2.188,0,4.655,0.502,7.411,1.504v8.031c-1.523-0.438-2.766-0.656-3.745-0.656
			c-1.234,0-2.137,0.257-2.701,0.773c-0.413,0.385-0.617,1.183-0.617,2.394l-0.041,5.249h6.68v8.918h-6.68v33.083h-10.537v-33.086
			h-3.745V188.498z"/>
		<path fill="#FFFFFF" d="M451.177,188.498h3.745c0.023-5.506,0.115-8.762,0.268-9.767c0.284-2.316,1.257-4.148,2.917-5.499
			c1.66-1.353,4.011-2.027,7.047-2.027c2.185,0,4.657,0.502,7.409,1.504v8.031c-1.518-0.438-2.768-0.656-3.745-0.656
			c-1.234,0-2.133,0.257-2.699,0.773c-0.413,0.385-0.619,1.183-0.619,2.394l-0.039,5.249h6.678v8.918h-6.678v33.083h-10.539v-33.086
			h-3.745L451.177,188.498L451.177,188.498z"/>
		<path fill="#FFFFFF" d="M494.513,171.205c1.846,0,3.433,0.67,4.751,2.007c1.325,1.339,1.984,2.96,1.984,4.864
			c0,1.88-0.654,3.479-1.963,4.806c-1.309,1.325-2.873,1.986-4.694,1.986c-1.874,0-3.47-0.674-4.793-2.025
			c-1.321-1.353-1.984-2.993-1.984-4.921c0-1.853,0.656-3.435,1.963-4.749C491.087,171.861,492.667,171.205,494.513,171.205z
			 M489.245,188.498h10.537v41.999h-10.537V188.498z"/>
		<path fill="#FFFFFF" d="M562.555,196.992l-8.776,4.825c-1.649-1.722-3.279-2.919-4.889-3.589c-1.61-0.67-3.497-1.004-5.659-1.004
			c-3.944,0-7.134,1.176-9.567,3.527c-2.435,2.353-3.653,5.364-3.653,9.037c0,3.573,1.172,6.49,3.518,8.748
			c2.341,2.261,5.421,3.392,9.237,3.392c4.715,0,8.388-1.61,11.014-4.827l8.31,5.692c-4.504,5.857-10.86,8.785-19.07,8.785
			c-7.386,0-13.17-2.188-17.35-6.561c-4.18-4.375-6.274-9.498-6.274-15.364c0-4.066,1.016-7.811,3.052-11.234
			c2.032-3.421,4.868-6.114,8.51-8.067c3.642-1.956,7.712-2.933,12.218-2.933c4.171,0,7.911,0.83,11.234,2.49
			C557.731,191.568,560.446,193.93,562.555,196.992z"/>
		<path fill="#FFFFFF" d="M624.324,212.549H590.47c0.488,2.986,1.793,5.359,3.917,7.123c2.123,1.763,4.832,2.644,8.127,2.644
			c3.935,0,7.322-1.376,10.154-4.13l8.877,4.167c-2.213,3.142-4.864,5.462-7.95,6.969c-3.091,1.504-6.756,2.259-11.003,2.259
			c-6.588,0-11.954-2.08-16.096-6.235c-4.144-4.155-6.217-9.361-6.217-15.614c0-6.407,2.064-11.73,6.198-15.963
			c4.128-4.233,9.308-6.35,15.536-6.35c6.611,0,11.993,2.117,16.135,6.35c4.144,4.233,6.214,9.824,6.214,16.774L624.324,212.549z
			 M613.785,204.25c-0.695-2.341-2.066-4.247-4.118-5.715c-2.048-1.468-4.428-2.199-7.132-2.199c-2.942,0-5.52,0.823-7.733,2.47
			c-1.394,1.03-2.683,2.844-3.869,5.444H613.785z"/>
	</g>
</g>
</svg>
