<?xml version="1.0" encoding="utf-8"?>
<!-- Generator: Adobe Illustrator 17.1.0, SVG Export Plug-In . SVG Version: 6.00 Build 0)  -->
<!DOCTYPE svg PUBLIC "-//W3C//DTD SVG 1.1//EN" "http://www.w3.org/Graphics/SVG/1.1/DTD/svg11.dtd">
<svg version="1.1" id="Layer_1" xmlns="http://www.w3.org/2000/svg" xmlns:xlink="http://www.w3.org/1999/xlink" x="0px" y="0px"
	 viewBox="0 245 1275.6 319.5" enable-background="new 0 245 1275.6 319.5" xml:space="preserve">
<rect x="11.3" y="453.1" fill-rule="evenodd" clip-rule="evenodd" fill="#EA442B" width="1249.8" height="21.5"/>
<rect x="11.3" y="453.1" fill="#EC1C24" width="1259.2" height="21.5"/>
<path fill="#231F20" d="M5,293.9h43v17.5c6.2-7.3,12.4-12.5,18.7-15.6c6.3-3.1,13.9-4.6,22.8-4.6c9.6,0,17.2,1.7,22.8,5.1
	c5.6,3.4,10.1,8.4,13.7,15.2c7.2-7.8,13.8-13.2,19.8-16c6-2.8,13.3-4.2,22-4.2c12.9,0,22.9,3.8,30.2,11.5
	c7.2,7.7,10.8,19.6,10.8,35.9v75.4h-46.1v-68.4c0-5.4-1-9.5-3.2-12.1c-3.1-4.1-6.9-6.2-11.5-6.2c-5.4,0-9.8,2-13.1,5.9
	c-3.3,3.9-5,10.2-5,18.9v62H83.9v-66.2c0-5.3-0.3-8.9-0.9-10.7c-1-3-2.7-5.4-5.1-7.3c-2.4-1.8-5.3-2.8-8.5-2.8c-5.3,0-9.7,2-13.1,6
	c-3.4,4-5.1,10.6-5.1,19.7v61.3H5V293.9z"/>
<path fill="#231F20" d="M230.7,354.3c0-18.3,6.2-33.4,18.5-45.3c12.4-11.9,29.1-17.8,50.1-17.8c24.1,0,42.2,7,54.5,20.9
	c9.9,11.2,14.8,25.1,14.8,41.5c0,18.5-6.1,33.6-18.4,45.4c-12.3,11.8-29.2,17.7-50.8,17.7c-19.3,0-34.9-4.9-46.8-14.7
	C238,389.9,230.7,374,230.7,354.3z M276.8,354.2c0,10.7,2.2,18.6,6.5,23.7c4.3,5.1,9.8,7.7,16.3,7.7c6.6,0,12.1-2.5,16.3-7.6
	c4.3-5.1,6.4-13.2,6.4-24.3c0-10.4-2.1-18.1-6.4-23.2c-4.3-5.1-9.6-7.6-15.9-7.6c-6.7,0-12.3,2.6-16.6,7.8
	C279,335.8,276.8,343.7,276.8,354.2z"/>
<path fill="#231F20" d="M391,248.3h46.5v57.5c4.6-4.8,9.8-8.4,15.7-10.9c5.8-2.4,12.3-3.6,19.4-3.6c14.6,0,26.7,5.3,36.3,15.8
	c9.6,10.5,14.4,25.6,14.4,45.3c0,13.1-2.2,24.7-6.6,34.7c-4.4,10-10.4,17.5-18.1,22.4c-7.7,4.9-16.3,7.4-25.7,7.4
	c-8.1,0-15.5-1.7-22.2-5.2c-5-2.7-10.6-7.8-16.5-15.3v17.8H391V248.3z M437.2,353.7c0,10.3,1.9,17.8,5.8,22.5c3.9,4.6,8.8,7,14.8,7
	c5.5,0,10.1-2.3,13.8-6.8c3.7-4.6,5.6-12.2,5.6-23c0-9.5-1.8-16.5-5.5-20.9c-3.7-4.4-8.1-6.7-13.3-6.7c-6.3,0-11.4,2.3-15.3,7
	C439.1,337.2,437.2,344.2,437.2,353.7z"/>
<path fill="#231F20" d="M547,293.9h46v120.1h-46V293.9z M547,248.3h46v31.3h-46V248.3z"/>
<path fill="#231F20" d="M624,248.3h46.1v165.8H624V248.3z"/>
<path fill="#231F20" d="M699.5,293.9h42.9v19.6c6.4-8,12.9-13.7,19.4-17.1c6.6-3.4,14.6-5.1,24-5.1c12.7,0,22.7,3.8,29.9,11.4
	c7.2,7.6,10.8,19.3,10.8,35.1v76.3h-46.3v-66c0-7.5-1.4-12.9-4.2-16c-2.8-3.1-6.7-4.7-11.8-4.7c-5.6,0-10.1,2.1-13.6,6.3
	c-3.5,4.2-5.2,11.8-5.2,22.7v57.7h-46V293.9z"/>
<path fill="#231F20" d="M848.4,354.3c0-18.3,6.2-33.4,18.5-45.3c12.4-11.9,29.1-17.8,50.1-17.8c24,0,42.2,7,54.5,20.9
	c9.9,11.2,14.8,25.1,14.8,41.5c0,18.5-6.1,33.6-18.4,45.4c-12.3,11.8-29.2,17.7-50.8,17.7c-19.3,0-34.9-4.9-46.8-14.7
	C855.7,389.9,848.4,374,848.4,354.3z M894.5,354.2c0,10.7,2.2,18.6,6.5,23.7c4.3,5.1,9.8,7.7,16.3,7.7c6.6,0,12.1-2.5,16.3-7.6
	c4.3-5.1,6.4-13.2,6.4-24.3c0-10.4-2.2-18.1-6.4-23.2c-4.3-5.1-9.6-7.6-15.9-7.6c-6.7,0-12.3,2.6-16.6,7.8
	C896.7,335.8,894.5,343.7,894.5,354.2z"/>
<path fill="#231F20" d="M987,293.9h47.9l23.3,76.1l24.2-76.1h46.4l-51,120.1H1037L987,293.9z"/>
<path fill="#231F20" d="M1130.4,354.3c0-18.3,6.2-33.4,18.5-45.3c12.4-11.9,29.1-17.8,50.1-17.8c24,0,42.2,7,54.5,20.9
	c9.9,11.2,14.8,25.1,14.8,41.5c0,18.5-6.1,33.6-18.4,45.4c-12.3,11.8-29.2,17.7-50.8,17.7c-19.3,0-34.9-4.9-46.8-14.7
	C1137.7,389.9,1130.4,374,1130.4,354.3z M1176.6,354.2c0,10.7,2.2,18.6,6.5,23.7c4.3,5.1,9.8,7.7,16.3,7.7c6.6,0,12.1-2.5,16.3-7.6
	c4.3-5.1,6.4-13.2,6.4-24.3c0-10.4-2.1-18.1-6.4-23.2c-4.3-5.1-9.6-7.6-15.9-7.6c-6.7,0-12.3,2.6-16.6,7.8
	C1178.7,335.8,1176.6,343.7,1176.6,354.2z"/>
<path fill="#231F20" d="M24,520.4l-11-1.6c1.2-3.6,3.4-6.2,6.4-8c3-1.7,7.5-2.6,13.4-2.6c5.4,0,9.4,0.5,12.1,1.6
	c2.6,1,4.5,2.3,5.6,3.9c1.1,1.6,1.6,4.5,1.6,8.8L52,533.9c0,3.3,0.2,5.7,0.6,7.2c0.4,1.6,1.1,3.2,2.2,5h-12
	c-0.3-0.6-0.7-1.6-1.2-2.9c-0.2-0.6-0.3-1-0.4-1.2c-2.1,1.6-4.3,2.8-6.6,3.7c-2.4,0.8-4.9,1.2-7.5,1.2c-4.7,0-8.4-1-11.1-3.1
	c-2.7-2.1-4.1-4.7-4.1-7.9c0-2.1,0.6-4,1.9-5.6c1.2-1.6,3-2.9,5.2-3.8c2.2-0.9,5.4-1.6,9.6-2.3c5.7-0.9,9.6-1.7,11.8-2.4v-1
	c0-1.9-0.6-3.2-1.7-4c-1.1-0.8-3.3-1.2-6.5-1.2c-2.2,0-3.8,0.4-5,1C25.7,517.4,24.8,518.6,24,520.4z M40.2,528.3
	c-1.6,0.4-4,0.9-7.4,1.5c-3.4,0.6-5.6,1.2-6.6,1.7c-1.6,0.9-2.4,2.1-2.4,3.5c0,1.4,0.6,2.6,1.9,3.6c1.3,1,2.9,1.5,4.8,1.5
	c2.2,0,4.3-0.6,6.3-1.7c1.5-0.9,2.4-2,2.9-3.2c0.3-0.8,0.5-2.4,0.5-4.8V528.3z"/>
<path fill="#231F20" d="M85.8,546.1H73.7V509h11.2v5.3c1.9-2.5,3.7-4.1,5.2-4.9c1.5-0.8,3.3-1.2,5.2-1.2c2.7,0,5.4,0.6,8,1.8
	l-3.7,8.6c-2-1.1-3.9-1.6-5.7-1.6c-1.7,0-3.1,0.4-4.3,1.1c-1.2,0.8-2.1,2.1-2.8,4.1c-0.7,2-1,6.1-1,12.4V546.1z"/>
<path fill="#231F20" d="M158.5,520l-11.9,1.7c-0.4-1.9-1.3-3.4-2.7-4.4c-1.4-1-3.3-1.5-5.5-1.5c-3,0-5.4,0.8-7.2,2.5
	c-1.8,1.7-2.7,4.5-2.7,8.5c0,4.4,0.9,7.5,2.7,9.3c1.8,1.8,4.3,2.7,7.3,2.7c2.3,0,4.2-0.5,5.6-1.6c1.5-1.1,2.5-2.9,3.1-5.5l11.9,1.6
	c-1.2,4.4-3.6,7.8-7.1,10c-3.5,2.3-8.2,3.4-14.1,3.4c-6.7,0-12-1.7-16-5.1c-4-3.4-6-8.2-6-14.2c0-6.1,2-10.9,6-14.3
	c4-3.4,9.4-5.1,16.2-5.1c5.6,0,10,1,13.3,2.9C154.8,513.1,157.1,516,158.5,520z"/>
<path fill="#231F20" d="M189.9,494.9v18.8c3.9-3.7,8.6-5.5,14-5.5c2.8,0,5.3,0.4,7.5,1.3c2.2,0.8,3.9,1.9,5.1,3.2
	c1.1,1.3,1.9,2.8,2.3,4.3c0.4,1.6,0.6,4,0.6,7.4v21.7h-12.1v-19.6c0-3.9-0.2-6.4-0.7-7.4c-0.5-1-1.3-1.9-2.4-2.5
	c-1.2-0.6-2.6-0.9-4.4-0.9c-2,0-3.8,0.4-5.4,1.2c-1.6,0.8-2.7,2-3.5,3.6c-0.7,1.6-1.1,3.9-1.1,7.1v18.6h-12.1v-51.2H189.9z"/>
<path fill="#231F20" d="M241.9,546.1V509H254v37.1H241.9z M241.9,504v-9.1H254v9.1H241.9z"/>
<path fill="#231F20" d="M297.5,509v7.8h-8.3v14.9c0,3,0.1,4.8,0.2,5.3c0.1,0.5,0.5,0.9,1.1,1.2c0.6,0.3,1.2,0.5,2,0.5
	c1.1,0,2.7-0.3,4.9-0.9l1,7.6c-2.8,1-6,1.5-9.6,1.5c-2.2,0-4.1-0.3-5.9-0.9c-1.7-0.6-3-1.4-3.8-2.3c-0.8-0.9-1.4-2.2-1.7-3.8
	c-0.3-1.1-0.4-3.4-0.4-6.9v-16.2h-5.6V509h5.6v-7.4l12.1-5.7V509H297.5z"/>
<path fill="#231F20" d="M342.6,534.3l12.1,1.6c-1.6,3.6-4,6.3-7.3,8.2c-3.4,1.9-7.5,2.8-12.6,2.8c-8,0-13.8-2.1-17.7-6.3
	c-3-3.4-4.5-7.6-4.5-12.8c0-6.1,2-11,5.9-14.4c4-3.5,9-5.2,15-5.2c6.8,0,12.2,1.8,16.1,5.5c3.9,3.6,5.8,9.2,5.6,16.7H325
	c0.1,2.9,1.1,5.2,2.9,6.8c1.9,1.6,4.2,2.4,7,2.4c1.9,0,3.5-0.4,4.8-1.3C340.9,537.5,341.9,536.2,342.6,534.3z M343.3,524.4
	c-0.1-2.8-1-5-2.7-6.5c-1.7-1.5-3.8-2.2-6.3-2.2c-2.6,0-4.8,0.8-6.5,2.3c-1.7,1.6-2.6,3.7-2.6,6.3H343.3z"/>
<path fill="#231F20" d="M396.3,509v7.8H388v14.9c0,3,0.1,4.8,0.2,5.3c0.1,0.5,0.5,0.9,1.1,1.2c0.6,0.3,1.2,0.5,2,0.5
	c1.1,0,2.7-0.3,4.9-0.9l1,7.6c-2.8,1-6,1.5-9.6,1.5c-2.2,0-4.1-0.3-5.9-0.9c-1.7-0.6-3-1.4-3.8-2.3c-0.8-0.9-1.4-2.2-1.7-3.8
	c-0.3-1.1-0.4-3.4-0.4-6.9v-16.2h-5.6V509h5.6v-7.4L388,496V509H396.3z"/>
<path fill="#231F20" d="M435.8,509v7.8h-8.3v14.9c0,3,0.1,4.8,0.2,5.3c0.2,0.5,0.5,0.9,1.1,1.2c0.6,0.3,1.2,0.5,2,0.5
	c1.1,0,2.7-0.3,4.9-0.9l1,7.6c-2.8,1-6,1.5-9.6,1.5c-2.2,0-4.1-0.3-5.9-0.9c-1.7-0.6-3-1.4-3.8-2.3c-0.8-0.9-1.4-2.2-1.7-3.8
	c-0.3-1.1-0.4-3.4-0.4-6.9v-16.2h-5.6V509h5.6v-7.4l12.1-5.7V509H435.8z"/>
<path fill="#231F20" d="M484.4,546.1v-5.6c-1.7,2-3.8,3.5-6.6,4.7c-2.7,1.1-5.6,1.7-8.6,1.7c-3.1,0-5.8-0.5-8.3-1.6
	c-2.4-1.1-4.2-2.6-5.3-4.6c-1.1-2-1.6-4.7-1.6-8.2V509h12.1v17c0,5.2,0.2,8.4,0.7,9.6c0.5,1.2,1.3,2.1,2.4,2.8c1.2,0.7,2.7,1,4.5,1
	c2.1,0,3.9-0.5,5.6-1.4c1.6-0.9,2.7-2.1,3.4-3.4c0.6-1.4,0.9-4.7,0.9-10V509h12.1v37.1H484.4z"/>
<path fill="#231F20" d="M530,546.1h-12.1V509h11.2v5.3c1.9-2.5,3.7-4.1,5.2-4.9c1.5-0.8,3.3-1.2,5.2-1.2c2.7,0,5.4,0.6,8,1.8
	l-3.7,8.6c-2-1.1-3.9-1.6-5.7-1.6c-1.7,0-3.1,0.4-4.3,1.1c-1.2,0.8-2.1,2.1-2.8,4.1c-0.7,2-1,6.1-1,12.4V546.1z"/>
<path fill="#231F20" d="M571.9,520.4l-11-1.6c1.2-3.6,3.4-6.2,6.4-8c3-1.7,7.5-2.6,13.4-2.6c5.4,0,9.4,0.5,12.1,1.6
	c2.6,1,4.5,2.3,5.6,3.9c1.1,1.6,1.6,4.5,1.6,8.8l-0.1,11.4c0,3.3,0.2,5.7,0.6,7.2c0.4,1.6,1.1,3.2,2.2,5h-12
	c-0.3-0.6-0.7-1.6-1.2-2.9c-0.2-0.6-0.3-1-0.4-1.2c-2.1,1.6-4.3,2.8-6.6,3.7c-2.4,0.8-4.9,1.2-7.5,1.2c-4.7,0-8.4-1-11.1-3.1
	c-2.7-2.1-4.1-4.7-4.1-7.9c0-2.1,0.6-4,1.9-5.6c1.2-1.6,3-2.9,5.2-3.8c2.2-0.9,5.4-1.6,9.6-2.3c5.7-0.9,9.6-1.7,11.8-2.4v-1
	c0-1.9-0.6-3.2-1.7-4c-1.1-0.8-3.3-1.2-6.5-1.2c-2.2,0-3.8,0.4-5,1C573.6,517.4,572.7,518.6,571.9,520.4z M588.1,528.3
	c-1.6,0.4-4,0.9-7.4,1.5c-3.4,0.6-5.5,1.2-6.6,1.7c-1.6,0.9-2.4,2.1-2.4,3.5c0,1.4,0.6,2.6,1.9,3.6c1.3,1,2.9,1.5,4.8,1.5
	c2.2,0,4.3-0.6,6.3-1.7c1.5-0.9,2.4-2,2.9-3.2c0.3-0.8,0.5-2.4,0.5-4.8V528.3z"/>
<path fill="#231F20" d="M698.7,546.1h-11.2v-5.4c-1.9,2.1-4.1,3.7-6.6,4.7c-2.5,1-5.1,1.5-7.7,1.5c-5.3,0-9.8-1.7-13.5-5.1
	c-3.7-3.4-5.6-8.2-5.6-14.4c0-6.3,1.8-11.1,5.5-14.3c3.6-3.3,8.3-4.9,13.8-4.9c5.1,0,9.5,1.7,13.3,5.2v-18.4h12.1V546.1z
	 M666.4,526.8c0,4,0.7,6.8,2,8.6c2,2.6,4.7,3.8,8.2,3.8c2.8,0,5.2-1,7.1-2.9c1.9-1.9,2.9-4.8,2.9-8.6c0-4.3-0.9-7.3-2.8-9.2
	c-1.9-1.9-4.3-2.8-7.3-2.8c-2.9,0-5.3,0.9-7.2,2.8C667.3,520.3,666.4,523.1,666.4,526.8z"/>
<path fill="#231F20" d="M747.2,534.3l12.1,1.6c-1.6,3.6-4,6.3-7.3,8.2c-3.3,1.9-7.5,2.8-12.6,2.8c-8,0-13.8-2.1-17.7-6.3
	c-3-3.4-4.5-7.6-4.5-12.8c0-6.1,2-11,5.9-14.4c4-3.5,9-5.2,15-5.2c6.8,0,12.2,1.8,16.1,5.5c3.9,3.6,5.8,9.2,5.6,16.7h-30.3
	c0.1,2.9,1.1,5.2,2.9,6.8c1.9,1.6,4.2,2.4,7,2.4c1.9,0,3.5-0.4,4.8-1.3C745.6,537.5,746.6,536.2,747.2,534.3z M747.9,524.4
	c-0.1-2.8-1-5-2.7-6.5c-1.7-1.5-3.8-2.2-6.3-2.2c-2.6,0-4.8,0.8-6.6,2.3c-1.7,1.6-2.6,3.7-2.5,6.3H747.9z"/>
<path fill="#231F20" d="M778.8,548.6l13.8,1.4c0.2,1.3,0.8,2.2,1.6,2.7c1.1,0.7,3,1,5.4,1c3.2,0,5.5-0.4,7.1-1.1
	c1.1-0.5,1.9-1.3,2.4-2.5c0.4-0.8,0.6-2.3,0.6-4.5v-5.4c-3.6,4-8.2,6-13.7,6c-6.1,0-11-2.1-14.6-6.3c-2.8-3.3-4.2-7.5-4.2-12.4
	c0-6.2,1.8-11,5.5-14.2c3.7-3.3,8.3-4.9,13.8-4.9c5.7,0,10.3,2,14,6V509h11.3v33.3c0,4.4-0.4,7.6-1.3,9.8c-0.9,2.2-2.1,3.9-3.7,5.1
	c-1.6,1.2-3.8,2.2-6.4,2.9c-2.7,0.7-6.1,1-10.2,1c-7.8,0-13.3-1.1-16.5-3.2c-3.2-2.1-4.9-4.9-4.9-8.2
	C778.8,549.4,778.8,549,778.8,548.6z M789.7,526.8c0,3.9,0.9,6.8,2.8,8.6c1.9,1.8,4.2,2.7,7,2.7c3,0,5.5-0.9,7.5-2.8
	c2-1.9,3.1-4.6,3.1-8.3c0-3.8-1-6.7-2.9-8.6c-2-1.9-4.4-2.8-7.4-2.8c-2.9,0-5.3,0.9-7.2,2.7C790.6,520.3,789.7,523.1,789.7,526.8z"
	/>
<path fill="#231F20" d="M844,546.1v-51.2h12.1v51.2H844z"/>
<path fill="#231F20" d="M878.6,546.1V509h12.1v37.1H878.6z M878.6,504v-9.1h12.1v9.1H878.6z"/>
<path fill="#231F20" d="M948,546.1V509h12.1v37.1H948z M948,504v-9.1h12.1v9.1H948z"/>
<path fill="#231F20" d="M1024.2,546.1h-12.1v-18.9c0-4-0.3-6.6-0.8-7.8c-0.5-1.2-1.4-2.1-2.5-2.7c-1.2-0.6-2.6-1-4.2-1
	c-2.1,0-4,0.5-5.6,1.4c-1.7,0.9-2.8,2.2-3.4,3.7c-0.6,1.5-0.9,4.4-0.9,8.5v16.8h-12.1V509h11.2v5.4c4-4.2,9-6.3,15.1-6.3
	c2.7,0,5.1,0.4,7.3,1.2c2.2,0.8,3.9,1.8,5,3c1.1,1.2,1.9,2.6,2.4,4.1c0.4,1.5,0.7,3.7,0.7,6.6V546.1z"/>
<path fill="#231F20" d="M1067.6,509v7.8h-8.3v14.9c0,3,0.1,4.8,0.2,5.3c0.2,0.5,0.5,0.9,1.1,1.2c0.6,0.3,1.2,0.5,2,0.5
	c1.1,0,2.7-0.3,4.9-0.9l1,7.6c-2.8,1-6,1.5-9.6,1.5c-2.2,0-4.1-0.3-5.9-0.9c-1.7-0.6-3-1.4-3.8-2.3c-0.8-0.9-1.4-2.2-1.7-3.8
	c-0.3-1.1-0.4-3.4-0.4-6.9v-16.2h-5.6V509h5.6v-7.4l12.1-5.7V509H1067.6z"/>
<path fill="#231F20" d="M1112.7,534.3l12.1,1.6c-1.6,3.6-4,6.3-7.3,8.2c-3.3,1.9-7.5,2.8-12.6,2.8c-8,0-13.8-2.1-17.7-6.3
	c-3-3.4-4.5-7.6-4.5-12.8c0-6.1,2-11,5.9-14.4c4-3.5,9-5.2,15-5.2c6.8,0,12.2,1.8,16.1,5.5c3.9,3.6,5.8,9.2,5.6,16.7H1095
	c0.1,2.9,1.1,5.2,2.9,6.8c1.9,1.6,4.2,2.4,7,2.4c1.9,0,3.5-0.4,4.8-1.3C1111,537.5,1112,536.2,1112.7,534.3z M1113.3,524.4
	c-0.1-2.8-1-5-2.7-6.5c-1.7-1.5-3.8-2.2-6.3-2.2c-2.6,0-4.8,0.8-6.6,2.3c-1.7,1.6-2.6,3.7-2.5,6.3H1113.3z"/>
<path fill="#231F20" d="M1157,546.1h-12.1V509h11.2v5.3c1.9-2.5,3.7-4.1,5.2-4.9c1.5-0.8,3.3-1.2,5.2-1.2c2.8,0,5.4,0.6,8,1.8
	l-3.7,8.6c-2-1.1-3.9-1.6-5.7-1.6c-1.7,0-3.1,0.4-4.3,1.1c-1.2,0.8-2.1,2.1-2.8,4.1c-0.7,2-1,6.1-1,12.4V546.1z"/>
<path fill="#231F20" d="M1231.5,546.1h-12.1v-18.9c0-4-0.3-6.6-0.8-7.8c-0.5-1.2-1.4-2.1-2.5-2.7c-1.2-0.6-2.6-1-4.2-1
	c-2.1,0-4,0.5-5.6,1.4c-1.7,0.9-2.8,2.2-3.4,3.7c-0.6,1.5-0.9,4.4-0.9,8.5v16.8h-12.1V509h11.2v5.4c4-4.2,9-6.3,15.1-6.3
	c2.7,0,5.1,0.4,7.3,1.2c2.2,0.8,3.9,1.8,5,3c1.1,1.2,1.9,2.6,2.4,4.1c0.4,1.5,0.7,3.7,0.7,6.6V546.1z"/>
<path fill="#231F20" d="M1253.9,546.1V509h12.1v37.1H1253.9z M1253.9,504v-9.1h12.1v9.1H1253.9z"/>
</svg>
