<?xml version="1.0" encoding="utf-8"?>
<!-- Generator: Adobe Illustrator 17.1.0, SVG Export Plug-In . SVG Version: 6.00 Build 0)  -->
<!DOCTYPE svg PUBLIC "-//W3C//DTD SVG 1.1//EN" "http://www.w3.org/Graphics/SVG/1.1/DTD/svg11.dtd">
<svg version="1.1" id="Layer_1" xmlns="http://www.w3.org/2000/svg" xmlns:xlink="http://www.w3.org/1999/xlink" x="0px" y="0px"
	 viewBox="0 0 225 40" enable-background="new 0 0 225 40" xml:space="preserve">
<g>
	<rect x="1.804" y="36.192" fill-rule="evenodd" clip-rule="evenodd" fill="#E4371E" width="220.845" height="3.808"/>
	<rect x="0.692" y="36.192" fill="#E30613" width="223.617" height="3.808"/>
	<g>
		<path d="M0.692,8.073h7.594v3.099c1.095-1.292,2.197-2.212,3.312-2.758c1.113-0.546,2.457-0.82,4.032-0.82
			c1.696,0,3.035,0.301,4.024,0.899c0.986,0.6,1.793,1.493,2.42,2.679c1.276-1.386,2.442-2.329,3.491-2.828
			c1.052-0.5,2.349-0.75,3.892-0.75c2.275,0,4.053,0.677,5.329,2.029c1.276,1.353,1.914,3.468,1.914,6.344v13.329h-8.153v-12.09
			c0-0.96-0.185-1.672-0.557-2.138c-0.545-0.732-1.22-1.098-2.03-1.098c-0.958,0-1.727,0.346-2.313,1.039
			c-0.582,0.692-0.875,1.805-0.875,3.337v10.951h-8.154v-11.69c0-0.932-0.053-1.565-0.161-1.899
			c-0.174-0.532-0.474-0.962-0.902-1.288c-0.427-0.327-0.928-0.49-1.503-0.49c-0.936,0-1.706,0.353-2.307,1.06
			c-0.601,0.706-0.902,1.864-0.902,3.477v10.831H0.692V8.073z"/>
		<path d="M40.558,18.744c0-3.237,1.091-5.905,3.278-8.003c2.186-2.099,5.136-3.148,8.852-3.148c4.251,0,7.463,1.233,9.633,3.697
			c1.746,1.985,2.619,4.43,2.619,7.334c0,3.264-1.081,5.938-3.246,8.024c-2.168,2.085-5.161,3.127-8.984,3.127
			c-3.409,0-6.167-0.866-8.274-2.599C41.85,25.033,40.558,22.221,40.558,18.744z M48.711,18.725c0,1.892,0.383,3.291,1.15,4.196
			c0.767,0.906,1.729,1.359,2.888,1.359c1.173,0,2.135-0.447,2.887-1.34c0.755-0.893,1.129-2.325,1.129-4.297
			c0-1.838-0.38-3.206-1.139-4.107c-0.76-0.899-1.698-1.349-2.816-1.349c-1.187,0-2.165,0.458-2.937,1.37
			C49.098,15.47,48.711,16.859,48.711,18.725z"/>
		<path d="M68.894,0h8.214v10.152c0.812-0.853,1.735-1.493,2.769-1.92c1.031-0.426,2.173-0.64,3.425-0.64
			c2.587,0,4.723,0.929,6.416,2.788c1.693,1.858,2.539,4.526,2.539,8.003c0,2.318-0.388,4.36-1.16,6.125
			c-0.773,1.765-1.841,3.084-3.206,3.957c-1.366,0.873-2.882,1.309-4.546,1.309c-1.427,0-2.732-0.307-3.918-0.919
			c-0.891-0.48-1.864-1.379-2.917-2.699v3.138h-7.615V0z M77.047,18.624c0,1.826,0.342,3.147,1.031,3.967
			c0.685,0.819,1.553,1.229,2.608,1.229c0.97,0,1.788-0.404,2.447-1.209c0.659-0.805,0.989-2.161,0.989-4.067
			c0-1.678-0.321-2.91-0.968-3.697c-0.648-0.786-1.429-1.179-2.349-1.179c-1.105,0-2.009,0.41-2.708,1.229
			C77.398,15.717,77.047,16.959,77.047,18.624z"/>
		<path d="M96.452,8.073h8.132v21.223h-8.132V8.073z M96.452,0h8.132v5.535h-8.132V0z"/>
		<path d="M110.061,0h8.154v29.295h-8.154V0z"/>
		<path d="M123.409,8.073h7.575v3.457c1.132-1.412,2.278-2.421,3.437-3.027c1.16-0.606,2.571-0.91,4.237-0.91
			c2.252,0,4.013,0.67,5.285,2.009c1.273,1.338,1.909,3.407,1.909,6.205v13.489h-8.174v-11.67c0-1.332-0.247-2.274-0.738-2.827
			c-0.493-0.554-1.187-0.829-2.079-0.829c-0.986,0-1.785,0.373-2.398,1.118c-0.612,0.746-0.919,2.086-0.919,4.017v10.191h-8.134
			V8.073z"/>
		<path d="M149.708,18.744c0-3.237,1.093-5.905,3.278-8.003c2.184-2.099,5.137-3.148,8.854-3.148c4.249,0,7.459,1.233,9.632,3.697
			c1.745,1.985,2.617,4.43,2.617,7.334c0,3.264-1.082,5.938-3.247,8.024c-2.165,2.085-5.159,3.127-8.982,3.127
			c-3.411,0-6.169-0.866-8.273-2.599C151,25.033,149.708,22.221,149.708,18.744z M157.863,18.725c0,1.892,0.382,3.291,1.148,4.196
			c0.766,0.906,1.729,1.359,2.888,1.359c1.172,0,2.136-0.447,2.887-1.34c0.752-0.893,1.13-2.325,1.13-4.297
			c0-1.838-0.38-3.206-1.139-4.107c-0.759-0.899-1.698-1.349-2.817-1.349c-1.187,0-2.165,0.458-2.937,1.37
			C158.249,15.47,157.863,16.859,157.863,18.725z"/>
		<path d="M174.207,8.073h8.463l4.117,13.449l4.272-13.449h8.207l-9.019,21.223h-7.213L174.207,8.073z"/>
		<path d="M199.546,18.744c0-3.237,1.093-5.905,3.277-8.003c2.185-2.099,5.137-3.148,8.854-3.148c4.249,0,7.46,1.233,9.632,3.697
			c1.745,1.985,2.617,4.43,2.617,7.334c0,3.264-1.082,5.938-3.247,8.024c-2.165,2.085-5.159,3.127-8.983,3.127
			c-3.411,0-6.168-0.866-8.273-2.599C200.838,25.033,199.546,22.221,199.546,18.744z M207.7,18.725c0,1.892,0.383,3.291,1.149,4.196
			c0.766,0.906,1.728,1.359,2.887,1.359c1.172,0,2.134-0.447,2.887-1.34c0.753-0.893,1.129-2.325,1.129-4.297
			c0-1.838-0.379-3.206-1.139-4.107c-0.759-0.899-1.698-1.349-2.817-1.349c-1.186,0-2.165,0.458-2.937,1.37
			C208.086,15.47,207.7,16.859,207.7,18.725z"/>
	</g>
</g>
</svg>
