<?xml version="1.0" encoding="utf-8"?>
<!-- Generator: Adobe Illustrator 17.1.0, SVG Export Plug-In . SVG Version: 6.00 Build 0)  -->
<!DOCTYPE svg PUBLIC "-//W3C//DTD SVG 1.1//EN" "http://www.w3.org/Graphics/SVG/1.1/DTD/svg11.dtd">
<svg version="1.1" id="Layer_1" xmlns="http://www.w3.org/2000/svg" xmlns:xlink="http://www.w3.org/1999/xlink" x="0px" y="0px"
	 viewBox="0 0 30 30" enable-background="new 0 0 30 30" xml:space="preserve">
<path id="_x33_79-facebook" fill="#FFFFFF" d="M27.688,0H2.312C1.034,0,0,1.035,0,2.313v25.473C0,29.062,1.034,30,2.312,30h25.377
	C28.965,30,30,29.062,30,27.785V2.313C30,1.035,28.965,0,27.688,0z M15.757,9.939c-0.732-0.429-1.314-0.766-2.04-0.766
	c-0.715,0-1.329,0.179-1.64,0.479c-0.311,0.3-0.464,0.877-0.464,1.731v1.261h3.819l-0.827,3.512h-2.992v11.666H6.814V16.156H4.57
	v-3.512h2.244v-1.341c0-1.412,0.167-2.257,0.501-2.953c0.333-0.695,0.979-1.468,1.874-1.905c0.894-0.437,2.222-0.656,3.593-0.656
	c1.404,0,2.503,0.466,3.85,0.845L15.757,9.939z"/>
</svg>
